<?xml version="1.0" encoding="utf-8"?>
<!-- Generator: Adobe Illustrator 16.0.0, SVG Export Plug-In . SVG Version: 6.00 Build 0)  -->
<!DOCTYPE svg PUBLIC "-//W3C//DTD SVG 1.1//EN" "http://www.w3.org/Graphics/SVG/1.1/DTD/svg11.dtd">
<svg version="1.1" id="Слой_1" xmlns="http://www.w3.org/2000/svg" xmlns:xlink="http://www.w3.org/1999/xlink" x="0px" y="0px"
	 width="53px" height="21px" fill="#ffffff" viewBox="0 0 399.921 158.413" enable-background="new 0 0 399.921 158.413"
	 xml:space="preserve">
<path fill-rule="evenodd" clip-rule="evenodd" fill="#ffffff" d="M-300.106,579.529c333.333,0,666.667,0,1000,0
	c0,25.655-0.036,51.312,0.059,76.967c0.009,2.415-0.437,3.565-3.025,3.047c-0.48-0.096-0.997-0.014-1.497-0.014
	c-330.357,0-660.715-0.008-991.073,0.1c-3.833,0.001-4.583-0.966-4.557-4.633C-300.021,629.842-300.106,604.686-300.106,579.529z"/>
<path fill-rule="evenodd" clip-rule="evenodd" fill="#ffffff" d="M209.01,146.164c-5.592,1.278-11.118,2.54-16.644,3.806
	c-11.914,2.73-23.838,5.414-35.73,8.237c-2.331,0.553-2.844,0.065-2.656-2.312c0.5-6.324,0.388-6.258-6.075-6.613
	c-32.34-1.772-64.4-5.499-95.719-14.152c-10.997-3.039-21.726-6.828-31.756-12.373c-5.304-2.933-10.259-6.332-14.325-10.9
	c-8.123-9.124-8.156-20.112-0.012-29.24c6.227-6.979,14.246-11.332,22.649-15.013c17.998-7.886,37.023-12.137,56.241-15.686
	c1.455-0.269,1.975,0.246,2.193,1.559c0.426,2.559,0.783,5.143,1.427,7.65c0.505,1.964-0.077,2.633-2.015,2.971
	c-10.148,1.767-20.221,3.905-30.146,6.689c-10.5,2.946-20.81,6.402-30.408,11.688c-4.049,2.23-7.91,4.745-10.939,8.319
	c-3.771,4.448-3.807,8.385-0.057,12.846c3.012,3.583,6.867,6.117,10.927,8.332c13.062,7.125,27.193,11.264,41.57,14.626
	c24.53,5.738,49.455,8.666,74.569,10.151c3.51,0.209,7.025,0.334,10.535,0.56c1.485,0.096,2.176-0.438,2.134-1.976
	c-0.036-1.337,0.135-2.681,0.091-4.018c-0.062-1.898,0.676-2.239,2.428-1.686c8.459,2.679,16.948,5.267,25.426,7.883
	c8.16,2.519,16.322,5.027,24.478,7.555C207.805,145.256,208.555,145.232,209.01,146.164z"/>
<path fill-rule="evenodd" clip-rule="evenodd" fill="#ffffff" d="M287.5,54.905c4.492,0,8.985,0.062,13.476-0.012
	c13.314-0.217,26.63-0.437,39.94-0.784c2.388-0.062,2.843,0.538,2.22,2.807c-1.321,4.813-1.214,4.838,3.611,6.207
	c12.192,3.46,24.146,7.524,35.125,14.016c4.418,2.612,8.52,5.643,11.941,9.507c8.132,9.187,8.154,20.09,0.002,29.241
	c-6.636,7.447-15.263,11.916-24.243,15.737c-16.899,7.189-34.669,11.317-52.666,14.542c-27.591,4.941-55.449,7.17-83.438,7.99
	c-3.264,0.096-3.268,0.07-3.344-3.222c-0.05-2.177,0.02-4.362-0.167-6.528c-0.165-1.912,0.632-2.471,2.417-2.516
	c5.859-0.146,11.72-0.339,17.574-0.634c32.436-1.637,64.599-5.175,95.951-14.136c9.919-2.836,19.612-6.299,28.634-11.41
	c3.656-2.071,7.155-4.381,9.964-7.56c4.265-4.829,4.245-9.049-0.123-13.788c-4.581-4.969-10.448-8.06-16.469-10.844
	c-8.612-3.983-17.635-6.818-26.769-9.338c-1.776-0.49-2.432,0.002-2.733,1.681c-0.279,1.562-0.881,3.07-1.112,4.636
	c-0.308,2.08-1.016,2.389-2.887,1.333c-7.51-4.239-15.097-8.342-22.654-12.497c-7.559-4.155-15.117-8.31-22.67-12.472
	c-0.577-0.318-1.124-0.691-1.685-1.038C287.431,55.519,287.466,55.212,287.5,54.905z"/>
<path fill-rule="evenodd" clip-rule="evenodd" fill="#ffffff" d="M133.262,57.566c0.4,0.088,0.803,0.17,1.202,0.265
	c6.928,1.636,12.284,5.292,14.006,12.492c1.796,7.506,0.002,14.308-5.735,19.751c-4.032,3.827-9.009,5.739-14.419,6.516
	c-7.885,1.133-15.678,0.833-23.327-1.697c-2.298-0.76-3.438-1.879-3.208-4.485c0.249-2.825,0.122-5.69,0.041-8.536
	c-0.056-1.955,0.528-2.081,2.114-1.162c6.007,3.477,12.5,4.715,19.354,3.655c6.575-1.017,10.195-5.962,8.912-11.864
	c-0.734-3.371-3.039-5.3-6.01-6.576c-3.216-1.382-6.63-1.641-10.091-1.634c-6.482,0.013-6.482-0.01-6.482-6.602
	c0-1.088,0.098-2.188-0.019-3.263c-0.224-2.049,0.516-2.816,2.649-2.726c3.845,0.161,7.716,0.203,11.447-1.03
	c4.607-1.522,6.67-4.483,6.473-9.233c-0.17-4.099-2.209-6.759-6.238-7.757c-5.817-1.442-11.288-0.233-16.498,2.501
	c-2.833,1.487-2.833,1.496-2.838-1.625c-0.004-2.596,0.072-5.195-0.026-7.787c-0.059-1.561,0.485-2.483,1.958-3.059
	c9.034-3.534,18.267-4.331,27.542-1.387c10.089,3.202,14.768,12.191,12.104,22.438c-1.442,5.549-5.074,9.101-10.245,11.248
	c-0.902,0.375-1.818,0.717-2.728,1.075C133.219,57.246,133.241,57.406,133.262,57.566z"/>
<path fill-rule="evenodd" clip-rule="evenodd" fill="#ffffff" d="M-167.459,633.542c-0.617-0.082-2.186-0.041-3.552-0.546
	c-1.34-0.496-4.075,0.222-3.586-2.344c0.497-2.607,2.689-1.113,4.099-0.774c1.981,0.476,3.943,0.839,5.917,0.331
	c2.122-0.545,4.324-1.242,4.486-3.966c0.154-2.565-1.847-3.288-3.778-3.958c-2.042-0.708-4.158-1.24-6.132-2.103
	c-2.611-1.14-4.379-3.011-4.182-6.152c0.206-3.275,2.124-5.101,5.075-6.063c3.627-1.185,6.865,0.023,10.057,1.616
	c1.362,0.68,1.536,1.702,0.868,2.874c-0.823,1.443-1.75,0.245-2.482-0.139c-1.944-1.018-3.889-1.945-6.156-1.656
	c-1.731,0.221-3.375,0.822-3.774,2.719c-0.44,2.093,1.166,2.925,2.775,3.547c1.239,0.479,2.516,0.861,3.79,1.24
	c4.231,1.261,8.007,3.054,7.563,8.377C-156.825,630.764-160.952,633.474-167.459,633.542z"/>
<path fill-rule="evenodd" clip-rule="evenodd" fill="#ffffff" d="M-102.482,619.475c4.604-1.269,5.811-7.261,11.12-5.607
	c-9.804,6.809-4.367,12.979,1.16,18.946c-3.014,1.383-4.617,0.552-5.906-1.603c-1.107-1.85-2.404-3.588-3.673-5.334
	c-1.138-1.567-2.084-1.58-2.561,0.482c-0.111,0.479,0.025,1.022-0.122,1.481c-0.61,1.902,1.5,5.651-2.068,5.367
	c-2.929-0.233-1.355-3.815-1.439-5.843c-0.234-5.64-0.1-11.297-0.06-16.947c0.009-1.234-0.369-2.866,1.762-2.807
	c2.042,0.057,1.739,1.658,1.768,2.905C-102.437,613.327-102.482,616.141-102.482,619.475z"/>
<path fill-rule="evenodd" clip-rule="evenodd" fill="#ffffff" d="M-143.532,623.451c0.037-6.003,3.524-9.924,8.848-9.946
	c5.508-0.024,9.111,4.124,8.972,10.33c-0.134,5.968-3.727,9.795-9.103,9.696C-140.103,633.435-143.568,629.427-143.532,623.451z"/>
<path fill-rule="evenodd" clip-rule="evenodd" fill="#ffffff" d="M-113.088,616.71c-4.147-0.198-6.765,2.432-6.768,6.795
	c-0.003,4.562,2.727,7.177,7.188,6.781c1.224-0.108,2.826-1.275,3.213,0.798c0.412,2.208-1.671,2.12-2.981,2.314
	c-3.719,0.551-7.023-0.401-9.118-3.719c-2.411-3.819-2.408-7.939-0.305-11.844c1.843-3.42,5.08-4.691,8.857-4.219
	c1.433,0.18,3.901-0.22,3.531,2.286C-109.832,618.35-111.789,616.737-113.088,616.71z"/>
<path fill-rule="evenodd" clip-rule="evenodd" fill="#ffffff" d="M-268.204,607.311c2.804,7.624,5.608,15.247,8.807,23.943
	c3.118-8.531,5.904-16.155,8.691-23.779c1.123,3.791-0.633,6.785-1.634,9.932c-1.462,4.596-3.164,9.115-4.782,13.66
	c-0.384,1.08-0.661,2.247-2.139,2.438c-1.563,0.201-2.02-0.868-2.416-1.982c-2.766-7.787-5.511-15.581-8.262-23.373
	C-269.361,607.869-268.783,607.59-268.204,607.311z"/>
<path fill-rule="evenodd" clip-rule="evenodd" fill="#ffffff" d="M-235.394,631.226c-3.028,3.079-6.649,3.011-10.168,1.225
	c-4.33-2.198-5.058-6.281-4.562-10.66c0.447-3.938,2.35-6.963,6.332-8.063c4.904-1.354,9.956,3.87,9.038,9.026
	c-0.282,1.586-1.176,1.783-2.402,1.792c-2.322,0.016-4.654-0.113-6.962,0.068c-1.311,0.103-3.312-0.978-3.793,1.09
	c-0.395,1.694,0.774,3.22,2.029,4.325C-242.705,632.83-239.067,631.406-235.394,631.226z"/>
<path fill-rule="evenodd" clip-rule="evenodd" fill="#ffffff" d="M-188.118,623.734c-0.06,5.792-3.702,9.793-8.933,9.815
	c-5.446,0.023-9.133-4.13-9.045-10.189c0.084-5.82,3.701-9.813,8.919-9.847C-191.803,613.478-188.055,617.707-188.118,623.734z"/>
<path fill-rule="evenodd" clip-rule="evenodd" fill="#ffffff" d="M-153.302,618.642c0-2.995-0.021-5.99,0.012-8.985
	c0.012-1.022,0.175-2.028,1.565-2.048c1.329-0.019,1.708,0.829,1.654,1.934c-0.114,2.323-0.068,4.424,3.228,4.08
	c0.63-0.065,1.286,0.271,1.36,1.128c0.087,1.017-0.422,1.715-1.364,1.638c-3.797-0.312-3.293,2.33-3.162,4.584
	c0.219,3.729-1.547,8.331,4.166,9.809c0.858,0.222,0.305,1.129,0.05,1.69c-0.407,0.896-1.188,1.099-2.072,0.892
	c-3.062-0.714-5.139-2.472-5.326-5.741c-0.17-2.984-0.036-5.985-0.036-8.979C-153.252,618.642-153.277,618.642-153.302,618.642z"/>
<path fill-rule="evenodd" clip-rule="evenodd" fill="#ffffff" d="M-83.989,615.769c-3.277-0.359-4.525-2.38-4.485-5.139
	c0.044-3.08,2.243-4.454,4.961-4.393c2.824,0.063,3.962,2.354,3.946,4.817C-79.585,613.867-81.144,615.671-83.989,615.769z"/>
<path fill-rule="evenodd" clip-rule="evenodd" fill="#ffffff" d="M-217.073,615.446c-9.94,0.171-12.376,1.752-12.707,7.616
	c-0.331,5.856,1.913,7.496,12.09,8.834c-3.99,2.541-8.676,2.158-11.539-0.942c-3.214-3.481-3.517-10.016-0.646-13.93
	C-227.125,613.273-222.972,612.552-217.073,615.446z"/>
<path fill-rule="evenodd" clip-rule="evenodd" fill="#ffffff" d="M566.89,633.517c0-3.927-0.58-6.78,0.153-9.243
	c0.832-2.797,4.026-0.685,6.024-1.586c0.614-0.276,1.755,0.92,2.647,0.909c6.433-0.079,7.486,1.604,5.07,9.159
	c-1.43-2.029-0.726-4.025-0.95-5.814c-0.127-1.013-0.161-2.172-1.403-2.301c-1.355-0.141-2.026,0.838-2.412,2.064
	c-0.567,1.804,0.604,3.953-1.322,5.904c-1.267-1.551-0.702-3.222-0.849-4.711c-0.141-1.432,0.29-3.297-1.957-3.334
	c-2.072-0.033-2.762,1.457-2.998,3.293C568.702,629.353,569.357,631.093,566.89,633.517z"/>
<path fill-rule="evenodd" clip-rule="evenodd" fill="#ffffff" d="M-212.884,607.512c2.407,2.058-1.312,7.504,6.318,5.759
	c-6.706,3.91-6.786,14.369-1.944,19.142C-213.959,632.772-216.323,619.907-212.884,607.512z"/>
<path fill-rule="evenodd" clip-rule="evenodd" fill="#ffffff" d="M630.28,619.527c-2.581,1.571-6.382,0.175-6.407,4.144
	c0.44,0.862,1.141,0.318,1.731,0.302c2.916-0.084,4.9,1.18,5.105,4.168c0.153,2.225-1.218,3.797-3.416,4.253
	c-2.849,0.591-4.943-0.743-5.918-3.335c-1.201-3.194-0.524-6.259,1.849-8.73C625.048,618.428,627.225,617.959,630.28,619.527z"/>
<path fill-rule="evenodd" clip-rule="evenodd" fill="#ffffff" d="M643.418,629.999c2.388,1.49,5.142-0.11,7.528,1.823
	c-0.841,0.363-1.252,0.717-1.598,0.662c-2.771-0.445-6.775,1.795-8.076-1.134c-1.266-2.847,2.576-4.438,4.654-6.225
	c0.975-0.839,2.371-1.749,1.561-3.254c-1.485-2.755-3.732-0.615-6.296-0.498c1.094-2.394,2.667-2.978,4.703-2.82
	c1.823,0.141,3.368,1.068,3.734,2.782C650.644,626.09,645.659,626.822,643.418,629.999z"/>
<path fill-rule="evenodd" clip-rule="evenodd" fill="#ffffff" d="M652.894,631.824c1.039-1.909,2.722-0.805,3.718-1.674
	c0.775-0.678,1.554-1.423,1.313-2.484c-0.27-1.184-1.336-0.452-2.049-0.555c-2.738-0.396-4.134-1.977-3.927-4.724
	c0.15-2.007,1.316-3.426,3.348-3.744c2.774-0.436,4.314,1.211,5.173,3.592C662.443,627.705,658.6,632.799,652.894,631.824z"/>
<path fill-rule="evenodd" clip-rule="evenodd" fill="#ffffff" d="M610.381,620.881c2.16-3.092,4.871-3.293,7.367-0.893
	c2.373,2.282,0.827,4.495-1.13,6.367c-1.266,1.211-3.262,1.647-3.927,3.689c2.025,1.592,4.849-0.251,7.262,1.778
	c-1.784,1.112-3.426,0.849-4.885,0.7c-1.674-0.171-4.12,1.126-4.882-0.932c-0.87-2.352,1.336-3.811,3.021-5.158
	c0.646-0.515,1.36-0.951,1.968-1.506c0.971-0.888,2.127-1.789,1.151-3.333c-0.732-1.159-1.876-1.135-3.085-0.969
	C612.347,620.749,611.616,622.003,610.381,620.881z"/>
<path fill-rule="evenodd" clip-rule="evenodd" fill="#ffffff" d="M445.825,627.788c2.485,2.847,2.485,2.847,6.047,2.851
	c-2.151,2.133-3.543,2.47-5.532,1.158c-2.39-1.576-3.109-3.876-2.066-6.467c0.907-2.255,2.858-3.146,5.255-2.717
	c1.821,0.326,3.063,1.563,3.13,3.356c0.094,2.552-2.078,1.344-3.3,1.604C448.408,627.777,447.398,627.706,445.825,627.788z"/>
<path fill-rule="evenodd" clip-rule="evenodd" fill="#ffffff" d="M499.143,620.487c-0.816,0.11-1.271,0.259-1.709,0.216
	c-1.625-0.159-3.715-0.842-4.217,1.3c-0.428,1.823,1.672,2.114,2.972,2.732c1.853,0.88,3.657,1.899,3.553,4.291
	c-0.07,1.644-1.192,2.788-2.718,3.22c-2.274,0.643-4.422,0.463-6.078-1.565c0.794-0.874,1.364-0.745,2.044-0.54
	c1.59,0.478,3.62,1.159,4.375-0.794c0.864-2.231-1.575-2.448-2.896-3.186c-1.755-0.979-3.695-1.774-3.499-4.278
	c0.116-1.482,1.119-2.439,2.414-2.896C495.429,618.266,497.487,617.951,499.143,620.487z"/>
<path fill-rule="evenodd" clip-rule="evenodd" fill="#ffffff" d="M431.108,618.984c4.088,1.862,3.312,6.188,5.787,9.115
	c2.368-2.904,1.927-7.052,5.024-9.342c-0.387,4.582-2.097,8.764-3.887,12.873c-0.685,1.574-1.987,0.998-2.503-0.362
	C433.987,627.199,432.572,623.082,431.108,618.984z"/>
<path fill-rule="evenodd" clip-rule="evenodd" fill="#ffffff" d="M-184.861,633.228c0-6.376,0-12.751,0-20.083
	c2.363,4.206,4.856,0.338,7.924,1.095C-187.663,617.866-181.087,627.143-184.861,633.228z"/>
<path fill-rule="evenodd" clip-rule="evenodd" fill="#ffffff" d="M538.033,632.662c-3.569-0.734-3.257-3.858-5.464-4.759
	c-1.665,0.95,0.354,3.635-2.327,4.517c-0.729-4.624-0.354-9.075-0.186-14.131c2.974,2.059,0.916,4.985,2.283,6.935
	c2.207,0.592,2.124-2.905,4.815-2.368C533.746,626.125,536.025,629.093,538.033,632.662z"/>
<path fill-rule="evenodd" clip-rule="evenodd" fill="#ffffff" d="M481.871,627.58c-0.507,2.967-2.053,5.023-5.21,4.877
	c-3.093-0.144-4.864-2.131-4.709-5.24c0.143-2.85,1.921-4.618,4.812-4.633C479.926,622.568,481.443,624.579,481.871,627.58z"/>
<path fill-rule="evenodd" clip-rule="evenodd" fill="#ffffff" d="M517.863,627.369c-0.338,3.004-1.814,5.075-4.979,5.089
	c-3.14,0.014-4.932-1.926-4.935-5.021c-0.002-2.875,1.737-4.691,4.604-4.85C515.723,622.414,517.323,624.366,517.863,627.369z"/>
<path fill-rule="evenodd" clip-rule="evenodd" fill="#ffffff" d="M560.025,632.575c-3.022-0.307-5.023-1.845-5.065-4.973
	c-0.043-3.109,1.809-4.976,4.922-5.008c2.904-0.03,4.695,1.813,4.859,4.599C564.92,630.258,563.085,632.038,560.025,632.575z"/>
<path fill-rule="evenodd" clip-rule="evenodd" fill="#ffffff" d="M662.547,618.503c2.805,0,4.978-0.018,7.149,0.007
	c1.162,0.013,2.064,0.503,1.491,1.788c-1.863,4.175-3.844,8.298-5.779,12.44c-0.505-0.247-1.01-0.494-1.516-0.741
	c1.604-3.666,3.207-7.333,4.768-10.903C666.982,619.572,664.533,621.29,662.547,618.503z"/>
<path fill-rule="evenodd" clip-rule="evenodd" fill="#ffffff" d="M638.414,632.125c-1.77,0.746-3.494,0.456-5.368,0.134
	c2.537-3.99,2.526-6.675-0.111-9.836c-0.569-0.683-0.538-1.091-0.071-1.581c0.878-0.922,1.559-2.327,3.099-2.086
	c1.026,0.162,0.8,1.248,0.881,2.028C637.235,624.56,635.742,628.593,638.414,632.125z"/>
<path fill-rule="evenodd" clip-rule="evenodd" fill="#ffffff" d="M607.691,632.164c-2.187,0.494-3.793,0.617-5.399,0.01
	c1.153-3.428,4.032-6.889-0.585-9.959c-0.802-0.533-0.021-1.226,0.361-1.629c0.771-0.809,1.408-1.991,2.747-1.867
	c1.123,0.104,0.917,1.125,1.021,1.907C606.339,624.407,604.551,628.518,607.691,632.164z"/>
<path fill-rule="evenodd" clip-rule="evenodd" fill="#ffffff" d="M598.66,632.139c-2.103,0.547-3.703,0.623-5.319,0.066
	c1.052-3.416,3.942-6.877-0.588-9.933c-0.765-0.517-0.147-1.233,0.269-1.646c0.791-0.785,1.375-1.98,2.722-1.919
	c1.188,0.055,0.987,1.062,1.097,1.841C597.372,624.328,595.515,628.44,598.66,632.139z"/>
<path fill-rule="evenodd" clip-rule="evenodd" fill="#ffffff" d="M464.304,630.72c-3.697,2.485-6.201,2.349-8.33-0.143
	c-1.74-2.036-1.598-4.403,0.203-6.318c2.035-2.165,4.391-2.533,7.408-0.114c-2.927,0.8-6.962-0.672-6.499,3.784
	C457.469,631.62,460.749,630.279,464.304,630.72z"/>
<path fill-rule="evenodd" clip-rule="evenodd" fill="#ffffff" d="M529.124,624.264c-3.531,0.5-6.865-0.726-7.042,2.983
	c-0.217,4.533,3.779,2.85,6.461,3.569c-2.543,2.611-4.958,2.18-7.121,0.238c-1.957-1.756-2.222-4.11-0.629-6.262
	C522.733,622.172,525.177,621.79,529.124,624.264z"/>
<path fill-rule="evenodd" clip-rule="evenodd" fill="#ffffff" d="M553.97,624.248c-3.47,0.535-7.107-0.73-6.886,3.448
	c0.214,4.017,3.768,2.638,6.658,2.839c-2.67,2.902-5.093,2.466-7.275,0.56c-1.983-1.732-2.273-4.099-0.704-6.27
	C547.687,622.165,550.137,621.721,553.97,624.248z"/>
<path fill-rule="evenodd" clip-rule="evenodd" fill="#ffffff" d="M470.095,632.305c-3.817-1.136-6.133-7.634-4.272-10.188
	c0.668-0.917,1.503-1.101,1.812-0.2c0.319,0.934,2.013,0.766,1.347,2.591C467.441,628.736,467.661,628.816,470.095,632.305z"/>
<path fill-rule="evenodd" clip-rule="evenodd" fill="#ffffff" d="M506.253,632.492c-3.904-1.444-6.133-7.671-4.479-10.178
	c0.601-0.91,1.396-1.237,1.858-0.354c0.421,0.804,2.49,0.979,1.21,2.508C502.513,627.248,504.141,629.52,506.253,632.492z"/>
<path fill-rule="evenodd" clip-rule="evenodd" fill="#ffffff" d="M484.982,632.369c-2.094-8.65-1.844-9.183,4.538-9.212
	C485.39,625.359,485.918,629.123,484.982,632.369z"/>
<path fill-rule="evenodd" clip-rule="evenodd" fill="#ffffff" d="M583.747,632.672c1.474-4.634,2.948-9.268,4.423-13.902
	c0.55,0.15,1.101,0.302,1.65,0.452c-1.488,4.655-2.977,9.311-4.465,13.966C584.819,633.016,584.283,632.844,583.747,632.672z"/>
<path fill-rule="evenodd" clip-rule="evenodd" fill="#ffffff" d="M273.068,52.084c-0.415-6.639-1.485-13.146-4.563-19.161
	c-2.667-5.212-6.613-8.988-12.22-10.925c-13.574-4.692-27.231,1.356-32.77,14.561c-3.136,7.476-3.877,15.368-3.969,23.65
	c0.121,8.138,0.761,16.466,4.539,24.199c2.48,5.078,6.225,8.884,11.544,10.996c14.363,5.701,28.808-0.665,34.216-15.091
	C273.272,71.177,273.667,61.676,273.068,52.084z M254.785,76.198c-0.547,1.947-1.275,3.817-2.512,5.439
	c-3.039,3.99-8.189,4.136-11.438,0.315c-2.02-2.375-2.955-5.265-3.479-8.241c-1.772-10.077-1.734-20.16,0.313-30.203
	c0.521-2.556,1.394-5.01,2.982-7.128c3.487-4.646,9.23-4.371,12.242,0.603c2.184,3.606,2.8,7.684,3.262,11.766
	c0.32,2.824,0.404,5.676,0.545,7.788C256.648,63.64,256.529,70,254.785,76.198z"/>
<path fill-rule="evenodd" clip-rule="evenodd" fill="#ffffff" d="M210.121,59.531c-2.956-6.306-7.808-10.122-14.806-10.995
	c-7.418-0.925-13.744,1.067-18.986,6.979c0.13-1.235,0.217-2.478,0.396-3.706c2.345-16.018,13.491-22.472,28.505-16.453
	c1.464,0.586,1.934,0.428,1.904-1.184c-0.059-3.264-0.073-6.53,0.004-9.793c0.033-1.438-0.557-2.084-1.9-2.453
	c-2.195-0.602-4.429-0.885-6.675-1.125c-16.299-1.748-28.873,5.918-34.802,21.189c-1.927,4.963-2.922,10.13-3.274,15.412
	c-0.59,8.857-0.139,17.607,3.763,25.798c6.949,14.583,26.321,18.83,38.849,8.571C212.199,84.318,215.237,70.447,210.121,59.531z
	 M194.49,80.308c-3.577,5.813-11.26,6-14.994,0.309c-2.457-3.744-3.151-7.882-2.199-12.253c1.112-5.105,4.83-8.099,9.783-7.976
	c5.105,0.127,8.105,2.822,9.104,8.253c0.211,1.145,0.244,2.323,0.359,3.485C196.496,75.024,196.034,77.798,194.49,80.308z"/>
<path fill-rule="evenodd" clip-rule="evenodd" fill="#ffffff" d="M301.303,0C290.477-0.085,281.525,8.748,281.5,19.54
	c-0.024,10.703,8.758,19.569,19.451,19.637c10.898,0.069,19.691-8.64,19.726-19.538C320.712,8.851,312.065,0.086,301.303,0z
	 M301.165,26.984c-4.03,0.018-7.311-3.242-7.347-7.301c-0.037-4.091,3.121-7.395,7.158-7.489c4.066-0.094,7.532,3.331,7.521,7.432
	C308.487,23.638,305.168,26.967,301.165,26.984z"/>
<path fill-rule="evenodd" clip-rule="evenodd" fill="#ffffff" d="M-140.171,623.495c0.416-3.742,1.432-7.022,5.745-6.819
	c4.196,0.197,5.32,3.447,5.254,7.046c-0.067,3.646-1.427,6.779-5.653,6.634C-139.081,630.208-139.864,626.812-140.171,623.495z"/>
<path fill-rule="evenodd" clip-rule="evenodd" fill="#ffffff" d="M-242.664,622.962c-1.66-1.18-5.083,1.503-5.102-2.039
	c-0.014-2.82,1.863-5.386,5.362-5.455c3.515-0.07,5.48,2.146,5.254,5.269C-237.421,624.489-240.906,621.745-242.664,622.962z"/>
<path fill-rule="evenodd" clip-rule="evenodd" fill="#ffffff" d="M-190.155,623.743c-0.076,4.86-2.796,7.931-7.013,7.915
	c-4.176-0.015-6.852-3.135-6.88-8.021c-0.03-5.127,2.841-8.374,7.228-8.177C-192.697,615.647-190.079,618.9-190.155,623.743z"/>
<path fill-rule="evenodd" clip-rule="evenodd" fill="#ffffff" d="M625.883,625.605c1.607,0.225,2.894,0.925,2.808,2.759
	c-0.073,1.58-1.186,2.288-2.719,2.171c-1.697-0.131-2.841-1.123-2.885-2.796C623.043,626.037,624.473,625.74,625.883,625.605z"/>
<path fill-rule="evenodd" clip-rule="evenodd" fill="#ffffff" d="M658.736,623.35c-0.146,1.428-1.094,2.048-2.328,2.036
	c-1.517-0.015-2.431-0.946-2.439-2.484c-0.008-1.552,0.807-2.524,2.441-2.301C657.918,620.808,658.495,621.988,658.736,623.35z"/>
<path fill-rule="evenodd" clip-rule="evenodd" fill="#ffffff" d="M479.774,627.402c-0.155,1.827-0.911,3.203-3.009,3.176
	c-1.804-0.023-2.712-1.163-2.771-2.884c-0.065-1.951,0.829-3.232,2.919-3.218C478.736,624.489,479.507,625.699,479.774,627.402z"/>
<path fill-rule="evenodd" clip-rule="evenodd" fill="#ffffff" d="M515.769,627.666c-0.286,1.678-0.991,2.925-2.851,2.908
	c-2.091-0.018-2.977-1.32-2.921-3.239c0.051-1.714,0.992-2.822,2.798-2.854C514.942,624.441,515.593,625.878,515.769,627.666z"/>
<path fill-rule="evenodd" clip-rule="evenodd" fill="#ffffff" d="M562.804,627.503c-0.34,2.115-1.331,3.308-3.303,3.076
	c-1.992-0.233-2.697-1.698-2.485-3.523c0.19-1.646,1.177-2.679,2.942-2.598C562.024,624.553,562.606,625.99,562.804,627.503z"/>
</svg>
