<?xml version="1.0" encoding="utf-8"?>
<!-- Generator: Adobe Illustrator 16.0.0, SVG Export Plug-In . SVG Version: 6.00 Build 0)  -->
<!DOCTYPE svg PUBLIC "-//W3C//DTD SVG 1.1//EN" "http://www.w3.org/Graphics/SVG/1.1/DTD/svg11.dtd">
<svg version="1.1" id="Слой_1" xmlns="http://www.w3.org/2000/svg" xmlns:xlink="http://www.w3.org/1999/xlink" x="0px" y="0px"
	 width="39px" height="41px" fill="#ffffff" viewBox="0 0 410.183 425.326" enable-background="new 0 0 410.183 425.326"
	 xml:space="preserve">
<path fill-rule="evenodd" clip-rule="evenodd" d="M320.595,17.303c6.722,2.417,12.826,5.642,17.138,11.694
	c4.929,6.921,5.969,14.6,5.236,22.785c-3.99,44.585-7.944,89.172-11.912,133.76c-5.185,58.258-10.348,116.519-15.569,174.773
	c-1.212,13.526-2.131,27.105-4.087,40.528c-1.938,13.295-11.538,21.945-24.814,23.957c-0.775,0.118-1.533,0.348-2.299,0.526
	c-64.816-5.768-129.632-11.535-194.449-17.303c-6.722-2.416-12.826-5.642-17.137-11.693c-4.93-6.921-5.969-14.601-5.236-22.785
	c3.989-44.585,7.945-89.172,11.912-133.759c5.184-58.257,10.347-116.518,15.568-174.772c1.212-13.526,2.132-27.104,4.088-40.528
	c1.936-13.283,11.552-21.95,24.814-23.96c0.775-0.118,1.533-0.348,2.299-0.525C190.963,5.768,255.779,11.535,320.595,17.303z
	 M301.718,357.889c8.049-90.446,16.078-180.684,24.126-271.13c-72.462-6.448-144.666-12.873-217.129-19.321
	c-8.048,90.446-16.078,180.684-24.126,271.13C157.052,345.016,229.254,351.44,301.718,357.889z M326.881,72.37
	c0.86-9.658,2.177-19.165,2.281-28.685c0.034-3.071-2.446-7.017-4.987-9.042c-2.908-2.318-7.084-3.825-10.847-4.171
	c-60.788-5.597-121.598-10.954-182.403-16.359c-1.194-0.106-2.396-0.226-3.591-0.197c-6.574,0.156-13.208,4.102-14.239,10.206
	c-1.606,9.504-1.912,19.229-2.78,28.978C182.485,59.521,254.681,65.945,326.881,72.37z M83.345,352.929
	c-0.832,9.346-2.042,18.21-2.188,27.093c-0.053,3.231,1.897,6.885,3.882,9.669c2.775,3.895,7.346,4.905,12.028,5.319
	c60.808,5.373,121.612,10.796,182.417,16.203c1.193,0.106,2.396,0.226,3.59,0.198c6.72-0.151,13.396-4.325,14.406-10.558
	c1.523-9.397,1.868-18.988,2.727-28.628C227.97,365.798,155.771,359.374,83.345,352.929z"/>
<path fill-rule="evenodd" clip-rule="evenodd" d="M2.411,180.961c1.398-6.75,2.673-13.529,4.223-20.245
	c3.273-14.184,7.792-27.956,14.899-40.717c1.166-2.094,3.505-4.257,5.706-4.828c1.799-0.466,4.669,0.891,6.227,2.339
	c2.243,2.087,1.688,4.985,0.54,7.807c-4.099,10.085-9.036,19.967-11.842,30.413c-9.938,36.992-12.139,74.25-1.232,111.56
	c0.112,0.383,0.212,0.771,0.306,1.158c1.049,4.348-0.638,7.972-4.23,9.092c-3.906,1.218-7.385-0.783-8.853-5.294
	c-4.601-14.141-6.871-28.703-7.575-43.518c-0.328-6.885-0.395-13.782-0.58-20.673C0.804,199.026,1.607,189.993,2.411,180.961z"/>
<path fill-rule="evenodd" clip-rule="evenodd" d="M408.023,244.364c-1.398,6.75-2.673,13.529-4.223,20.245
	c-3.273,14.185-7.902,27.895-14.791,40.777c-2.572,4.81-6.131,6.378-9.996,4.366c-3.544-1.845-4.521-5.943-2.233-10.426
	c15.099-29.571,19.874-61.291,19.667-94.053c-0.103-16.328-2.167-32.362-7.119-47.986c-1.44-4.544,0.357-8.305,4.067-9.493
	c3.98-1.276,7.433,0.837,8.988,5.67c6.06,18.833,7.972,38.228,7.8,57.905c-0.017,1.966,0.162,3.934,0.251,5.899
	C409.63,226.301,408.827,235.333,408.023,244.364z"/>
<path fill-rule="evenodd" clip-rule="evenodd" d="M42.014,198.606c1.655-16.526,5.067-32.348,10.862-47.62
	c1.879-4.951,5.463-7.039,9.424-5.53c3.74,1.425,5.191,5.179,3.399,10.077c-6.36,17.388-10.459,35.269-10.374,53.803
	c0.051,11.123,1.264,22.261,2.363,33.351c0.671,6.775-0.673,10.36-5.244,11.047c-4.6,0.689-7.145-2.179-8.348-8.91
	C41.339,229.402,40.916,213.889,42.014,198.606z"/>
<path fill-rule="evenodd" clip-rule="evenodd" d="M369.118,227.198c-2.397,16.379-5.864,32.319-11.831,47.678
	c-1.783,4.589-4.947,6.459-8.832,5.224c-3.93-1.25-5.585-5.024-3.884-9.786c4.493-12.568,7.865-25.371,9.486-38.657
	c1.981-16.237,1.629-32.379-1.108-48.489c-0.199-1.179-0.411-2.361-0.514-3.55c-0.354-4.108,1.979-7.375,5.591-7.901
	c3.712-0.54,6.943,1.716,7.718,5.854c0.951,5.09,1.944,10.224,2.222,15.376C368.582,204.351,368.76,215.779,369.118,227.198z"/>
<path fill-rule="evenodd" clip-rule="evenodd" d="M219.342,49.349c-10.622-0.945-21.248-1.866-31.867-2.846
	c-5.413-0.5-8.247-3.307-7.801-7.578c0.428-4.101,3.697-6.436,8.817-5.991c21.648,1.88,43.292,3.805,64.933,5.778
	c5.115,0.467,7.919,3.347,7.61,7.462c-0.321,4.277-3.605,6.535-9.025,6.071C241.119,51.31,230.232,50.318,219.342,49.349z"/>
<path fill-rule="evenodd" clip-rule="evenodd" d="M190.65,375.942c6.496,0.578,12.997,1.096,19.483,1.753
	c4.726,0.479,7.442,3.453,7.051,7.454c-0.37,3.798-3.518,6.429-7.979,6.074c-13.133-1.045-26.257-2.211-39.368-3.501
	c-4.642-0.456-7.322-3.76-6.813-7.718c0.497-3.859,3.558-6.123,8.138-5.774C177.665,374.725,184.155,375.365,190.65,375.942z"/>
<path fill-rule="evenodd" clip-rule="evenodd" d="M121.323,383.452c-4.103-0.362-8.215-0.643-12.306-1.113
	c-4.894-0.564-7.793-3.761-7.254-7.774c0.528-3.922,3.736-6.152,8.566-5.757c8.343,0.685,16.682,1.413,25.012,2.234
	c4.793,0.473,7.396,3.355,7.007,7.441c-0.369,3.874-3.387,6.327-7.921,6.095C130.052,384.354,125.691,383.837,121.323,383.452z"/>
<path fill-rule="evenodd" clip-rule="evenodd" d="M258.754,382.015c4.368,0.389,8.745,0.683,13.099,1.191
	c4.188,0.489,6.78,3.397,6.604,7.102c-0.172,3.595-3.246,6.611-7.335,6.354c-9.014-0.567-18.02-1.372-26.995-2.372
	c-4.4-0.492-6.796-3.818-6.249-7.726c0.526-3.76,3.421-5.892,7.775-5.723c0.265,0.011,0.53,0.038,0.795,0.062
	c4.103,0.365,8.204,0.73,12.308,1.096C258.755,382.004,258.755,382.009,258.754,382.015z"/>
</svg>
