<?xml version="1.0" encoding="utf-8"?>
<!-- Generator: Adobe Illustrator 16.0.0, SVG Export Plug-In . SVG Version: 6.00 Build 0)  -->
<!DOCTYPE svg PUBLIC "-//W3C//DTD SVG 1.1//EN" "http://www.w3.org/Graphics/SVG/1.1/DTD/svg11.dtd">
<svg version="1.1" id="Layer_1" xmlns="http://www.w3.org/2000/svg" xmlns:xlink="http://www.w3.org/1999/xlink" x="0px" y="0px"
	 width="35px" height="27px" fill="#ffffff" viewBox="12 24 104 80" enable-background="new 12 24 104 80" xml:space="preserve">
<g>
	<g>
		<path d="M84,72h3.391c-2.578,4.473-5.805,9.02-8.522,12.219c-4.289,5.047-3.688,12.617,1.358,16.91
			C82.483,103.055,85.25,104,88,104c3.391,0,6.75-1.426,9.125-4.207C100.28,96.102,116,80,116,60V40c0-8.836-7.164-16-16-16H84
			c-8.836,0-16,7.164-16,16v16C68,64.836,75.164,72,84,72z M76,40c0-4.41,3.586-8,8-8h16c4.405,0,8,3.59,8,8v20
			c0,15.449-12,28.988-15.938,33.438l-1.022,1.16C90,95.816,88.687,96,88,96c-0.664,0-1.656-0.168-2.595-0.965
			c-1.672-1.426-1.875-3.953-0.438-5.637c3.172-3.738,6.672-8.746,9.352-13.402c1.431-2.477,1.431-5.523-0.008-8
			C92.891,65.523,90.25,64,87.391,64H84c-4.414,0-8-3.59-8-8V40z M28,72h3.391c-2.578,4.473-5.805,9.02-8.522,12.219
			c-4.289,5.047-3.688,12.617,1.358,16.91c2.258,1.926,5.023,2.871,7.781,2.871c3.383,0,6.75-1.426,9.117-4.207
			C44.281,96.102,60,80,60,60V40c0-8.836-7.164-16-16-16H28c-8.836,0-16,7.164-16,16v16C12,64.836,19.164,72,28,72z M20,40
			c0-4.41,3.586-8,8-8h16c4.414,0,8,3.59,8,8v20c0,15.461-12,29-15.945,33.445l-1.016,1.156C34,95.816,32.695,96,32.008,96
			c-0.672,0-1.664-0.168-2.602-0.965c-1.672-1.426-1.875-3.953-0.445-5.637c3.18-3.738,6.68-8.746,9.359-13.402
			c1.43-2.477,1.43-5.523,0-8C36.891,65.523,34.25,64,31.391,64H28c-4.414,0-8-3.59-8-8V40z"/>
	</g>
</g>
</svg>
