<?xml version="1.0" encoding="iso-8859-1"?>
<!-- Generator: Adobe Illustrator 17.1.0, SVG Export Plug-In . SVG Version: 6.00 Build 0)  -->
<!DOCTYPE svg PUBLIC "-//W3C//DTD SVG 1.1//EN" "http://www.w3.org/Graphics/SVG/1.1/DTD/svg11.dtd">
<svg version="1.1" id="Capa_1" xmlns="http://www.w3.org/2000/svg" xmlns:xlink="http://www.w3.org/1999/xlink" x="0px" y="0px"
	 width="51px" height="61px" fill="#c0b495" viewBox="0 0 374.683 374.683" style="enable-background:new 0 0 374.683 374.683;" xml:space="preserve">
<path d="M114.171,39.363c6.186-7.718,8.605-19.703,5.885-29.146c-1.223-4.246,1.228-8.679,5.473-9.902
	c4.246-1.223,8.679,1.227,9.902,5.473c4.137,14.358,0.61,31.872-8.775,43.582c-8.549,10.666-10.773,29.438-0.955,38.598
	c3.23,3.014,3.406,8.076,0.393,11.307c-1.575,1.689-3.711,2.543-5.852,2.543c-1.954,0-3.913-0.712-5.455-2.15
	C98.031,84.037,100.941,55.867,114.171,39.363z M166.758,48.652h52.614c4.418,0,8-3.582,8-8s-3.582-8-8-8h-52.614
	c-4.418,0-8,3.582-8,8S162.34,48.652,166.758,48.652z M345.151,125.242v64.043c0,31.985-23.992,58.473-54.923,62.417v71.449h7.983
	c4.418,0,8,3.582,8,8v35.533c0,4.418-3.582,8-8,8H37.532c-4.418,0-8-3.582-8-8V331.15c0-4.418,3.582-8,8-8h6.645
	c-3.144-68.99,3.646-146.513,30.931-172.255L31.068,90.517c-0.998-1.369-1.536-3.02-1.536-4.714V70.319
	c0-2.122,0.843-4.157,2.343-5.657c1.501-1.5,3.535-2.343,5.657-2.343l33.116,0.001c1.454-8.455,4.986-16.55,10.122-22.957
	c6.186-7.718,8.605-19.703,5.883-29.145c-1.224-4.245,1.227-8.679,5.472-9.903c4.246-1.224,8.68,1.226,9.902,5.471
	c4.14,14.357,0.613,31.872-8.772,43.583c-4.34,5.414-7.05,12.919-7.381,20.194c0.023,0.249,0.035,0.501,0.035,0.757
	c0,0.355-0.023,0.706-0.068,1.049c0.062,6.403,2.041,12.475,6.46,16.599c3.23,3.015,3.405,8.077,0.391,11.307
	c-3.014,3.23-8.075,3.407-11.307,0.391c-5.813-5.425-9.559-12.821-10.912-21.346l-24.94,0v4.876l47.088,64.559
	c0.13,0.174,0.255,0.354,0.373,0.541c0.509,0.803,0.858,1.667,1.054,2.552c0.258,1.163,0.246,2.352-0.008,3.482
	c-0.001,0-0.001,0.001-0.001,0.001c-0.001,0.004-0.002,0.008-0.003,0.013c-0.259,1.145-0.769,2.237-1.517,3.185
	c-0.554,0.702-1.233,1.322-2.027,1.82c-0.182,0.115-0.367,0.222-0.556,0.32c-9.802,5.37-18.531,24.51-23.961,52.55
	c-5.794,29.92-7.786,68.223-5.781,110.933h214.035v-78.943c0-4.418,3.582-8,8-8c25.873,0,46.923-21.049,46.923-46.922v-64.043
	c0-25.874-21.05-46.923-46.923-46.923h-54.855v173.195c0,13.96-11.359,25.318-25.321,25.318c-13.964,0-25.32-11.358-25.32-25.318
	V102.008c0-4.418,3.582-8,8-8s8,3.582,8,8v149.506c0,5.138,4.18,9.318,9.316,9.318c5.144,0,9.325-4.18,9.325-9.318V78.319
	l-69.066,0.001v-16l139.922-0.001C316.923,62.319,345.151,90.546,345.151,125.242z M290.212,339.15H45.532v19.533h244.68V339.15z
	 M282.228,205.735c4.418,0,8-3.582,8-8V116.79c0-4.418-3.582-8-8-8s-8,3.582-8,8v80.945
	C274.228,202.154,277.81,205.735,282.228,205.735z"/>
<g>
</g>
<g>
</g>
<g>
</g>
<g>
</g>
<g>
</g>
<g>
</g>
<g>
</g>
<g>
</g>
<g>
</g>
<g>
</g>
<g>
</g>
<g>
</g>
<g>
</g>
<g>
</g>
<g>
</g>
</svg>
