<?xml version="1.0" encoding="utf-8"?>
<!-- Generator: Adobe Illustrator 16.0.0, SVG Export Plug-In . SVG Version: 6.00 Build 0)  -->
<!DOCTYPE svg PUBLIC "-//W3C//DTD SVG 1.1//EN" "http://www.w3.org/Graphics/SVG/1.1/DTD/svg11.dtd">
<svg version="1.1" id="Слой_1" xmlns="http://www.w3.org/2000/svg" xmlns:xlink="http://www.w3.org/1999/xlink" x="0px" y="0px"
	 width="415px" height="278.562px" viewBox="0 0 415 278.562" enable-background="new 0 0 415 278.562" xml:space="preserve">
<text transform="matrix(1 0 0 1 78.8828 278.5615)" fill="#F8F5E7" font-family="'BodoniC-Bold'" font-size="26.3163">С</text>
<text transform="matrix(1 0 0 1 105.6465 278.5615)"><tspan x="0" y="0" fill="#F8F5E7" font-family="'BodoniC-Bold'" font-size="26.3163" letter-spacing="10">АН</tspan><tspan x="53.264" y="0" fill="#F8F5E7" font-family="'BodoniC-Bold'" font-size="26.3163" letter-spacing="9">А</tspan><tspan x="79.343" y="0" fill="#F8F5E7" font-family="'BodoniC-Bold'" font-size="26.3163" letter-spacing="10">ТО</tspan><tspan x="130.555" y="0" fill="#F8F5E7" font-family="'BodoniC-Bold'" font-size="26.3163" letter-spacing="9">Р</tspan><tspan x="154.528" y="0" fill="#F8F5E7" font-family="'BodoniC-Bold'" font-size="26.3163" letter-spacing="10">И</tspan><tspan x="181.845" y="0" fill="#F8F5E7" font-family="'BodoniC-Bold'" font-size="26.3163">Й</tspan></text>
<path fill="#F8F5E7" d="M271.354,84.23h-6.612v-3.971h-5.899V31.817h9.474L211.474,0l-58.631,31.996h9.831v46.833h-7.328v4.29
	h-5.542v7.704h121.549V84.23z M203.071,78.829h-27.527V31.996h27.527V78.829z M187.289,24.42l11.645-7l11.645-7l11.647,7l11.644,7
	h-23.291H187.289z M245.078,78.829h-27.527V31.996h27.527V78.829z"/>
<path fill="#F8F5E7" d="M171.075,134.956c20.021,22.701,50.051,16.98,61.848,14.479c-26.813-1.787-38.789-7.507-36.286-13.047
	c2.502-5.542,11.976-0.358,33.069,5.183c21.092,5.542,28.421,0,28.421,0c-26.813,0.407-55.056-21.402-79.187-21.938
	C172.149,119.48,160.35,121.728,171.075,134.956"/>
<path fill="#F8F5E7" d="M292.447,97.261H178.94c0,0,15.373,8.022,10.189,11.062c-5.184,3.038-20.556-3.04-25.74-5.721
	s-13.048-9.295-24.489-8.401c-11.44,0.894-16.783,8.072-15.015,17.339c4.827,23.953,38.524,31.021,48.083,34.678
	c-27.348-26.813-7.864-37,17.339-29.707c31.903,9.234,38.79,18.624,69.892,18.263C302.094,135.646,292.447,97.261,292.447,97.261"/>
<path fill="#F8F5E7" d="M20.716,222.79c0,3.792,0.374,6.745,1.123,8.861c0.748,2.111,2.586,3.316,5.515,3.618v0.896H2.849v-0.896
	c2.928-0.436,4.766-1.592,5.514-3.473c0.749-1.88,1.124-4.647,1.124-8.308v-41.17c0-2.532-0.118-4.577-0.35-6.141
	c-0.233-1.563-0.822-2.934-1.772-4.118c-0.948-1.176-2.453-1.918-4.516-2.222v-0.943h24.505v0.943
	c-2.064,0.237-3.57,0.894-4.518,1.976c-0.948,1.081-1.538,2.352-1.77,3.817c-0.235,1.464-0.35,3.442-0.35,5.937v21.558
	l30.392-26.546c0-1.866-0.374-3.387-1.122-4.566c-0.749-1.182-2.587-1.904-5.515-2.175v-0.943h24.603v0.943
	c-2.928,0.369-4.765,1.518-5.514,3.444c-0.748,1.933-1.123,4.691-1.123,8.285v41.222c0.066,2.829,0.199,4.95,0.399,6.362
	c0.199,1.417,0.774,2.711,1.722,3.892c0.948,1.187,2.452,1.924,4.516,2.226v0.896H44.471v-0.896
	c2.061-0.203,3.567-0.831,4.516-1.898c0.948-1.063,1.539-2.339,1.772-3.816c0.231-1.483,0.349-3.5,0.349-6.065v-39.975
	l-30.392,26.603V222.79z"/>
<path fill="#F8F5E7" d="M134.103,237.163c-0.698-0.197-1.829-0.297-3.393-0.297l-12.377,0.647c-12.509,0-22.458-3.075-29.843-9.235
	c-2.196-1.828-4.126-3.858-5.789-6.088c-1.664-2.225-3.028-4.554-4.093-6.986c-1.066-2.428-1.88-5.021-2.444-7.784
	c-0.567-2.764-0.849-5.508-0.849-8.233c0-3.061,0.374-6.041,1.123-8.932c0.748-2.896,1.878-5.616,3.394-8.162
	c1.512-2.546,3.383-4.767,5.613-6.66c3.494-2.829,7.344-4.841,11.554-6.041c4.208-1.195,8.841-1.795,13.899-1.795l11.228,0.897
	l3.294,0.297c1.962,0,3.293-0.713,3.993-2.145l4.69,19.315l-0.848,0.349c-1.764-4.26-4.709-7.563-8.833-9.905
	c-4.126-2.347-8.634-3.519-13.524-3.519c-3.561,0-6.705,0.515-9.433,1.545c-2.728,1.034-5.174,2.814-7.336,5.342
	c-2.163,2.494-3.793,5.37-4.891,8.635c-1.098,3.258-1.647,6.604-1.647,10.027c0,5.924,1.273,11.478,3.818,16.669
	c2.546,5.192,6.164,9.334,10.854,12.428c4.692,3.094,10.048,4.644,16.07,4.644c3.494,0,6.67-0.643,9.533-1.922
	c2.859-1.28,5.389-3.138,7.584-5.565c2.197-2.427,4.026-5.243,5.49-8.436l0.998,0.401L134.103,237.163z"/>
<path fill="#F8F5E7" d="M175.427,222.88c0,2.729,0.116,4.903,0.349,6.519c0.232,1.615,0.824,2.972,1.772,4.071
	c0.948,1.101,2.452,1.696,4.516,1.8v0.897H157.46v-0.897c2.063-0.104,3.569-0.661,4.517-1.677c0.948-1.011,1.539-2.286,1.771-3.817
	c0.233-1.534,0.35-3.632,0.35-6.296v-49.299c-6.31,0-11.414,1.087-15.317,3.25c-3.901,2.163-6.814,5.71-8.739,10.637l-0.947-0.297
	l5.04-20.174c0.4,0.533,1.041,0.883,1.922,1.048c0.882,0.165,2.254,0.251,4.117,0.251h39.227c1.862,0,3.235-0.086,4.116-0.251
	c0.882-0.165,1.522-0.515,1.921-1.048l4.992,20.174l-0.899,0.297c-1.929-4.927-4.85-8.474-8.758-10.637
	c-3.91-2.163-9.026-3.25-15.346-3.25V222.88z"/>
<path fill="#F8F5E7" d="M213.009,228.08c-2.295-2.195-4.261-4.656-5.89-7.388c-1.631-2.725-2.879-5.63-3.743-8.705
	c-0.866-3.08-1.298-6.164-1.298-9.258c0-6.655,1.605-12.668,4.816-18.039c3.21-5.375,7.584-9.564,13.125-12.578
	c5.541-3.01,11.587-4.516,18.143-4.516c6.816,0,13.023,1.53,18.611,4.591c5.593,3.062,9.966,7.335,13.126,12.825
	c3.16,5.488,4.742,11.646,4.742,18.463c0,6.424-1.682,12.239-5.04,17.444c-3.362,5.205-7.854,9.276-13.476,12.199
	c-5.621,2.93-11.61,4.395-17.964,4.395c-3.027,0-6.05-0.331-9.06-0.997c-3.013-0.666-5.88-1.714-8.61-3.146
	C217.766,231.939,215.271,230.178,213.009,228.08 M240.505,232.223c4.558,0,8.502-1.19,11.827-3.571
	c3.325-2.38,5.829-5.545,7.511-9.489c1.681-3.943,2.522-8.147,2.522-12.611c0-4.53-0.699-8.842-2.098-12.938
	s-3.326-7.7-5.791-10.812c-2.461-3.113-5.285-5.546-8.483-7.293c-3.193-1.748-6.585-2.622-10.18-2.622
	c-4.591,0-8.516,1.224-11.775,3.67c-3.263,2.447-5.691,5.678-7.288,9.693c-1.597,4.01-2.395,8.299-2.395,12.856
	c0,3.764,0.59,7.652,1.771,11.662c1.181,4.015,2.886,7.638,5.115,10.864c2.229,3.23,4.983,5.805,8.257,7.718
	C232.777,231.269,236.447,232.223,240.505,232.223"/>
<path fill="#F8F5E7" d="M287.517,182.319c0-3.793-0.373-6.712-1.121-8.762c-0.749-2.046-2.589-3.283-5.515-3.718v-0.944h24.503
	v0.944c-2.929,0.27-4.767,1.375-5.515,3.32c-0.749,1.947-1.123,4.747-1.123,8.408v12.479l8.784-7.039
	c1.729-1.363,3.618-2.946,5.664-4.741c2.045-1.796,3.898-3.627,5.563-5.489c1.663-1.86,2.497-3.358,2.497-4.492
	c0-0.864-0.228-1.464-0.675-1.794c-0.45-0.336-1.156-0.553-2.122-0.652v-0.944h24.654v0.944c-2.395,0.138-4.676,0.676-6.837,1.625
	c-2.164,0.944-4.051,2.013-5.664,3.193c-1.616,1.181-3.818,2.919-6.612,5.215l-7.686,6.339c3.493,3.292,6.578,6.722,9.256,10.278
	c2.677,3.561,5.065,7.265,7.163,11.104c2.095,3.847,4.157,8.263,6.188,13.25l1.946,4.69c0.268,0.633,0.673,1.606,1.224,2.919
	c0.548,1.318,1.105,2.438,1.672,3.373c0.564,0.931,1.247,1.686,2.046,2.267c0.798,0.586,1.747,0.974,2.843,1.177v0.897h-22.507
	v-0.897c2.396-0.401,3.595-1.733,3.595-3.996c0-2.429-0.832-5.668-2.497-9.73c-1.661-4.057-3.327-7.534-4.99-10.43
	c-3.559-6.088-8.15-12.21-13.773-18.364l-9.731,7.732v22.309c0,3.793,0.374,6.745,1.123,8.861c0.748,2.11,2.586,3.315,5.515,3.618
	v0.897h-24.503v-0.897c2.062-0.335,3.568-1.049,4.516-2.149c0.949-1.096,1.537-2.371,1.771-3.817
	c0.233-1.444,0.349-3.386,0.349-5.813V182.319z"/>
<path fill="#F8F5E7" d="M365.223,173.586h-4.093c-3.99,0-7.328,1.313-10.007,3.939c-2.678,2.626-4.964,6.164-6.859,10.618
	l-0.95-0.298l5.042-20.249c0.399,0.533,1.046,0.883,1.946,1.049c0.897,0.165,2.263,0.25,4.093,0.25h28.794v0.954
	c-2.896,0.269-4.724,1.482-5.488,3.651c-0.768,2.163-1.147,5.11-1.147,8.841l-0.102,9.792c6.952,0.364,13.291,1.603,19.014,3.714
	s10.258,4.969,13.599,8.577c3.345,3.609,5.017,7.757,5.017,12.441c0,4.091-1.072,7.582-3.219,10.472
	c-2.147,2.892-5.298,5.087-9.457,6.585c-4.158,1.493-9.251,2.244-15.271,2.244h-27.547v-0.897c2.927-0.435,4.766-1.587,5.512-3.467
	c0.749-1.881,1.124-4.648,1.124-8.305V173.586z M376.451,223.796c0,2.824,0.5,4.813,1.499,5.956
	c1.002,1.148,3.467,1.725,7.401,1.725c5.466,0,9.717-1.322,12.751-3.969c3.033-2.64,4.549-6.285,4.549-10.943
	c0-2.659-0.649-5.153-1.95-7.478c-1.299-2.329-3.092-4.354-5.375-6.084c-2.282-1.728-5.057-3.16-8.323-4.289
	c-3.269-1.128-6.785-1.794-10.552-1.992V223.796z"/>
</svg>
