<?xml version="1.0" encoding="utf-8"?>
<!-- Generator: Adobe Illustrator 16.0.0, SVG Export Plug-In . SVG Version: 6.00 Build 0)  -->
<!DOCTYPE svg PUBLIC "-//W3C//DTD SVG 1.1//EN" "http://www.w3.org/Graphics/SVG/1.1/DTD/svg11.dtd">
<svg version="1.1" id="Слой_1" xmlns="http://www.w3.org/2000/svg" xmlns:xlink="http://www.w3.org/1999/xlink" x="0px" y="0px"
	 width="25px" height="28px" fill="#c0b495" viewBox="0 0 449.752 512.08" enable-background="new 0 0 449.752 512.08"
	 xml:space="preserve">
<path fill-rule="evenodd" clip-rule="evenodd" d="M230.971,0c10.287,4.722,14.341,12.808,14.025,23.997
	c-0.417,14.77-0.103,29.559-0.103,45.725c8.56-8.579,16.245-16.275,23.921-23.98c4.237-4.252,9.372-6.51,15.343-6.647
	c7.459-0.173,15.44,4.831,18.28,11.896c2.576,6.407,1.729,16.417-3.881,21.924c-17.122,16.806-34.014,33.846-50.906,50.883
	c-1.274,1.285-2.627,3.257-2.636,4.917c-0.157,30.486-0.115,60.973-0.115,92.204c5.335-2.969,10.271-5.637,15.13-8.438
	c16.432-9.47,32.833-18.992,49.252-28.484c4.812-2.782,9.847-5.242,14.377-8.424c1.995-1.401,3.659-4.048,4.324-6.448
	c6.178-22.3,11.896-44.727,18.175-66.998c4.452-15.789,21.435-20.667,33.236-10.661c7.741,6.564,7.714,15.564,4.832,24.895
	c-2.767,8.962-4.89,18.125-7.632,28.463c7.518-4.179,14.041-7.714,20.474-11.406c7.371-4.233,14.498-8.919,22.024-12.846
	c12.509-6.527,28.528-1.465,30.539,16.095c0.962,8.402-3.886,15.066-11.26,19.369c-13.28,7.75-26.629,15.382-39.936,23.087
	c-0.22,0.128-0.263,0.561-0.611,1.37c9.571,2.542,18.997,5.355,28.57,7.513c14.084,3.173,18.988,13.551,18.508,22.018
	c-0.627,11.064-10.926,20.868-22.847,17.906c-22.458-5.58-44.907-11.212-67.241-17.264c-4.884-1.323-8.642-1.568-13.255,1.162
	c-24.062,14.24-48.367,28.069-72.573,42.065c-0.804,0.464-1.455,1.19-2.851,2.359c5.342,3.148,10.177,6.033,15.045,8.861
	c21.068,12.241,42.063,24.615,63.334,36.494c2.441,1.363,6.592,0.509,9.696-0.294c22.874-5.914,45.558-12.628,68.573-17.901
	c9.845-2.255,20.898,5.372,22.086,18.366c0.961,10.527-5.806,18.49-17.462,21.825c-9.702,2.776-19.522,5.137-30.581,8.018
	c5.494,3.237,10.147,5.945,14.771,8.708c10.38,6.203,20.964,12.103,31.031,18.781c5.763,3.822,8.494,12.074,6.055,21.119
	c-2.006,7.436-9.526,13.05-16.903,13.725c-8.788,0.805-15.282-4.154-22.205-8.038c-10.662-5.979-21.186-12.204-33.054-19.066
	c2.82,10.554,5.129,19.767,7.766,28.885c2.026,7.004,2.551,13.666-1.375,20.299c-3.663,6.188-9.332,9.481-15.98,9.599
	c-7.688,0.137-15.096-2.872-18.015-10.55c-3.975-10.458-6.837-21.358-9.837-32.163c-3.879-13.972-7.019-28.165-11.414-41.963
	c-1.017-3.191-5.555-5.653-8.95-7.63c-24.017-13.978-48.158-27.743-72.265-41.567c-0.262-0.15-0.591-0.187-1.563-0.479
	c0,1.564,0,2.954,0,4.344c0.003,28.492,0.063,56.984-0.069,85.477c-0.016,3.303,1.074,5.501,3.352,7.756
	c16.579,16.409,33.038,32.938,49.53,49.435c8.047,8.049,8.28,20.449,0.969,28.419c-6.618,7.214-20.486,8.871-29.138,0.173
	c-7.863-7.906-15.686-15.853-24.337-24.602c-0.14,2.586-0.293,4.121-0.295,5.657c-0.016,14.663,0.006,29.325-0.007,43.988
	c-0.01,10.927-8.24,19.282-18.223,20.076c-13.585,1.081-21.463-9.465-21.581-19.716c-0.169-14.661-0.043-29.325-0.043-43.987
	c0-1.59,0-3.181,0-6.368c-8.839,8.96-16.492,16.977-24.428,24.702c-11.537,11.23-30.223,6.674-33.969-8.667
	c-1.781-7.293-0.333-13.852,5.252-19.39c16.799-16.659,33.511-33.407,50.134-50.242c1.461-1.48,2.872-3.839,2.884-5.797
	c0.178-29.825,0.119-59.65,0.105-89.476c0-0.478-0.129-0.956-0.274-1.97c-7.529,4.304-14.862,8.472-22.173,12.679
	c-16.288,9.374-32.566,18.765-48.845,28.155c-2.692,1.554-5.616,2.841-7.965,4.809c-1.695,1.42-3.208,3.604-3.789,5.725
	c-6.163,22.474-11.863,45.076-18.228,67.49c-4.332,15.255-20.786,20.531-32.952,10.739c-7.694-6.193-7.96-14.992-5.594-23.896
	c2.503-9.421,5.256-18.775,7.12-29.186c-2.362,1.401-4.709,2.83-7.09,4.198c-11.056,6.356-22.157,12.635-33.174,19.06
	c-11.329,6.606-28.432,3.027-31.282-13.427c-0.035-0.202-0.51-0.327-0.779-0.488c0-1.667,0-3.332,0-4.999
	c1.951-8.992,8.073-14.512,15.663-18.807c7.539-4.265,15.097-8.497,22.617-12.797c4.683-2.678,9.309-5.453,14.552-8.532
	c-12.283-3.485-23.587-6.521-34.781-9.919c-11.22-3.406-16.997-18.202-10.09-29.176c5.121-8.138,13.001-11.343,24.369-8.401
	c21.292,5.509,42.438,11.575,63.705,17.184c2.954,0.779,6.927,1.496,9.276,0.181c23.816-13.328,47.403-27.07,71.024-40.748
	c2.438-1.412,4.678-3.168,7.082-4.814c-0.788-0.938-1.033-1.446-1.438-1.681c-25.589-14.854-51.174-29.713-76.834-44.441
	c-1.373-0.788-3.525-0.987-5.079-0.573c-19.836,5.287-39.572,10.958-59.463,16.021c-6.649,1.692-13.17,4.37-20.593,2.596
	C8.276,225.24,2.15,211.807,6.255,201.568c3.199-7.979,9.857-11.443,17.6-13.508c9.371-2.499,18.738-5.016,28.396-7.603
	c-0.499-0.733-0.662-1.239-1.002-1.436c-11.617-6.701-23.256-13.362-34.879-20.052c-5.65-3.252-11.568-6.244-14.223-12.806
	c-0.816-2.019-1.438-4.119-2.148-6.181c0-1.333,0-2.667,0-4c0.269-0.162,0.756-0.3,0.777-0.489
	c1.842-16.847,19.092-21.641,32.152-13.944c9.572,5.641,19.149,11.274,28.764,16.843c3.517,2.038,7.146,3.88,11.715,6.348
	c-3.233-11.895-6.477-22.306-8.833-32.913c-2.503-11.272,2.316-19.913,11.062-23.613c13.024-5.512,24.3,1.347,27.925,13.519
	c6.695,22.479,12.225,45.302,18.432,67.93c0.579,2.11,2.125,4.435,3.91,5.642c4.729,3.198,9.838,5.832,14.792,8.698
	c16.405,9.493,32.797,19.007,49.217,28.474c4.863,2.803,9.802,5.474,15.13,8.442c0-31.207,0.051-61.687-0.129-92.165
	c-0.01-1.782-1.56-3.878-2.948-5.28c-16.768-16.918-33.66-33.712-50.475-50.584c-6.863-6.885-7.24-19.293-1.238-26.631
	c6.024-7.366,18.851-9.928,26.579-3.715c5.017,4.033,9.595,8.632,14.191,13.158c4.418,4.353,8.607,8.939,12.896,13.423
	c1.127-16.934,1.104-33.053,1.162-49.17c0.006-1.765,0.431-3.538,0.759-5.289C207.252,7.134,212.952,3.418,218.972,0
	C222.972,0,226.972,0,230.971,0z"/>
</svg>
