<svg height="59px" viewBox="-34 0 512 512.00003" width="51px" fill="#c0b495" xmlns="http://www.w3.org/2000/svg"><path d="m128 136.535156h119.464844c4.714844 0 8.535156-3.824218 8.535156-8.535156v-85.332031c0-4.714844-3.820312-8.535157-8.535156-8.535157h-119.464844c-4.710938 0-8.535156 3.820313-8.535156 8.535157v85.332031c0 4.710938 3.824218 8.535156 8.535156 8.535156zm8.535156-85.335937h102.398438v68.265625h-102.398438zm0 0"/><path d="m179.199219 256h-59.734375c-9.421875 0-17.066406 7.640625-17.066406 17.066406v17.066406c0 9.425782 7.644531 17.066407 17.066406 17.066407h59.734375c9.425781 0 17.066406-7.640625 17.066406-17.066407v-17.066406c0-9.425781-7.640625-17.066406-17.066406-17.066406zm-59.734375 34.132812v-17.066406h59.734375v17.066406zm0 0"/><path d="m230.398438 256h-8.53125c-4.714844 0-8.535157 3.820312-8.535157 8.535156 0 4.710938 3.820313 8.53125 8.535157 8.53125h8.53125c4.714843 0 8.535156-3.820312 8.535156-8.53125 0-4.714844-3.820313-8.535156-8.535156-8.535156zm0 0"/><path d="m264.535156 256h-8.535156c-4.710938 0-8.535156 3.820312-8.535156 8.535156 0 4.710938 3.824218 8.53125 8.535156 8.53125h8.535156c4.710938 0 8.53125-3.820312 8.53125-8.53125 0-4.714844-3.820312-8.535156-8.53125-8.535156zm0 0"/><path d="m230.398438 290.132812h-8.53125c-4.714844 0-8.535157 3.820313-8.535157 8.535157 0 4.710937 3.820313 8.53125 8.535157 8.53125h8.53125c4.714843 0 8.535156-3.820313 8.535156-8.53125 0-4.714844-3.820313-8.535157-8.535156-8.535157zm0 0"/><path d="m264.535156 290.132812h-8.535156c-4.710938 0-8.535156 3.820313-8.535156 8.535157 0 4.710937 3.824218 8.53125 8.535156 8.53125h8.535156c4.710938 0 8.53125-3.820313 8.53125-8.53125 0-4.714844-3.820312-8.535157-8.53125-8.535157zm0 0"/><path d="m110.933594 418.132812c4.710937 0 8.53125-3.820312 8.53125-8.53125v-25.601562c0-4.710938-3.820313-8.535156-8.53125-8.535156-4.714844 0-8.535156 3.824218-8.535156 8.535156v25.601562c0 4.710938 3.820312 8.53125 8.535156 8.53125zm0 0"/><path d="m426.667969 221.867188h-85.335938c-9.425781 0-17.066406 7.640624-17.066406 17.066406v17.066406c0 9.425781 7.640625 17.066406 17.066406 17.066406h8.535157v42.667969c0 4.710937-3.820313 8.53125-8.535157 8.53125h-34.132812v-85.332031c0-9.425782-7.640625-17.066406-17.066407-17.066406v-17.066407c0-9.425781-7.640624-17.066406-17.066406-17.066406h-8.53125v-17.066406c14.136719 0 25.597656-11.460938 25.597656-25.601563v-119.464844c0-14.140624-11.460937-25.601562-25.597656-25.601562h-153.601562c-14.140625 0-25.601563 11.460938-25.601563 25.601562v42.664063h-8.53125c-42.394531.054687-76.7499998 34.40625-76.800781 76.800781v256c0 14.140625 11.460938 25.601563 25.601562 25.601563h8.53125v17.066406c0 14.136719 11.460938 25.597656 25.601563 25.597656h10.90625c3.023437 5.265625 8.621094 8.515625 14.691406 8.535157v17.066406c0 9.425781 7.640625 17.066406 17.066407 17.066406h34.136718c9.425782 0 17.066406-7.640625 17.066406-17.066406v-17.066406h68.265626v17.066406c0 9.425781 7.640624 17.066406 17.066406 17.066406h34.132812c9.425782 0 17.066406-7.640625 17.066406-17.066406v-17.066406c9.425782 0 17.066407-7.640626 17.066407-17.066407v-119.46875h34.132812c14.140625 0 25.601563-11.460937 25.601563-25.597656v-42.667969h59.734375c9.425781 0 17.066406-7.640625 17.066406-17.066406v-17.066406c0-9.425782-7.640625-17.066406-17.066406-17.066406zm-136.535157 102.398437h-204.800781v-85.332031h204.800781zm-238.933593-51.199219c0-4.710937 3.820312-8.53125 8.535156-8.53125h8.53125v68.265625h-8.53125c-4.714844 0-8.535156-3.820312-8.535156-8.535156zm221.867187-51.199218h-170.667968v-17.066407h170.667968zm-25.601562-34.132813h-119.464844v-17.066406h119.464844zm-145.066406-162.132813c0-4.714843 3.820312-8.535156 8.535156-8.535156h153.601562c4.710938 0 8.53125 3.820313 8.53125 8.535156v119.464844c0 4.714844-3.820312 8.535156-8.53125 8.535156h-153.601562c-4.714844 0-8.535156-3.820312-8.535156-8.535156zm-85.332032 119.464844c.039063-32.972656 26.757813-59.695312 59.734375-59.734375h8.53125v59.734375c0 14.140625 11.460938 25.601563 25.601563 25.601563v17.066406h-8.535156c-9.425782 0-17.066407 7.640625-17.066407 17.066406v17.066407c-9.425781 0-17.066406 7.640624-17.066406 17.066406v8.53125h-8.53125c-14.140625 0-25.601563 11.464844-25.601563 25.601562v17.066406h-17.066406zm8.535156 264.535156c-4.714843 0-8.535156-3.820312-8.535156-8.535156v-93.867187h17.066406v17.066406c0 14.140625 11.460938 25.601563 25.601563 25.601563h8.53125v17.066406h-8.53125c-14.140625 0-25.601563 11.460937-25.601563 25.601562v17.066406zm25.597657 34.132813v-51.199219c0-4.714844 3.820312-8.535156 8.535156-8.535156h8.53125v68.265625h-8.53125c-4.714844 0-8.535156-3.820313-8.535156-8.53125zm85.335937 51.199219h-34.136718v-17.066406h34.136718zm136.53125 0h-34.132812v-17.066406h34.132812zm17.066406-34.132813h-204.800781v-119.46875h204.800781zm51.199219-204.800781v-17.066406h85.335938v17.066406zm0 0"/><path d="m168.191406 70.742188c-3.421875-3.160157-8.695312-3.160157-12.117187 0-.789063.800781-1.398438 1.761718-1.792969 2.816406-.4375 1.023437-.667969 2.125-.679688 3.242187 0 4.710938 3.820313 8.53125 8.53125 8.53125 4.714844 0 8.535157-3.820312 8.535157-8.53125.027343-1.121093-.207031-2.230469-.683594-3.242187-.414063-1.046875-1.019531-2-1.792969-2.816406zm0 0"/><path d="m213.332031 68.265625h-17.066406c-4.710937 0-8.53125 3.820313-8.53125 8.535156 0 4.710938 3.820313 8.53125 8.53125 8.53125h17.066406c4.714844 0 8.535157-3.820312 8.535157-8.53125 0-4.714843-3.820313-8.535156-8.535157-8.535156zm0 0"/></svg>
