<?xml version="1.0" encoding="utf-8"?>
<!-- Generator: Adobe Illustrator 16.0.0, SVG Export Plug-In . SVG Version: 6.00 Build 0)  -->
<!DOCTYPE svg PUBLIC "-//W3C//DTD SVG 1.1//EN" "http://www.w3.org/Graphics/SVG/1.1/DTD/svg11.dtd">
<svg version="1.1" id="Capa_1" xmlns="http://www.w3.org/2000/svg" xmlns:xlink="http://www.w3.org/1999/xlink" x="0px" y="0px"
	 width="29px" height="29px" fill="#c0b495" viewBox="40.004 33.333 429.992 466.667"
	 enable-background="new 40.004 33.333 429.992 466.667" xml:space="preserve">
<g>
	<g>
		<path d="M358.333,33.333H141.667c-4.6,0-8.333,3.733-8.333,8.333v450c0,4.6,3.733,8.333,8.333,8.333h216.667
			c4.6,0,8.333-3.733,8.333-8.333v-450C366.667,37.066,362.934,33.333,358.333,33.333z M350,483.333H150V50h200V483.333L350,483.333
			z"/>
	</g>
</g>
<g>
	<g>
		<path d="M461.664,483.333H48.337c-4.6,0-8.333,3.733-8.333,8.333S43.737,500,48.337,500h413.326c4.6,0,8.333-3.733,8.333-8.333
			S466.264,483.333,461.664,483.333z"/>
	</g>
</g>
<g>
	<g>
		<path d="M208.333,258.333H175c-4.6,0-8.333,3.733-8.333,8.333s3.733,8.333,8.333,8.333h33.333c4.6,0,8.333-3.733,8.333-8.333
			C216.667,262.066,212.934,258.333,208.333,258.333z"/>
	</g>
</g>
</svg>
