<?xml version="1.0" encoding="utf-8"?>
<!-- Generator: Adobe Illustrator 16.0.0, SVG Export Plug-In . SVG Version: 6.00 Build 0)  -->
<!DOCTYPE svg PUBLIC "-//W3C//DTD SVG 1.1//EN" "http://www.w3.org/Graphics/SVG/1.1/DTD/svg11.dtd">
<svg version="1.1" id="Capa_1" xmlns="http://www.w3.org/2000/svg" xmlns:xlink="http://www.w3.org/1999/xlink" x="0px" y="0px"
	 width="53px" height="29px" fill="#c0b495" viewBox="40.004 33.333 620.496 466.667"
	 enable-background="new 40.004 33.333 620.496 466.667" xml:space="preserve">
<g>
	<g>
		<path d="M320.33,33.333H103.664c-4.6,0-8.333,3.733-8.333,8.333v450c0,4.6,3.733,8.333,8.333,8.333h216.667
			c4.6,0,8.333-3.733,8.333-8.333v-450C328.664,37.066,324.931,33.333,320.33,33.333z M311.997,483.333h-200V50h200V483.333
			L311.997,483.333z"/>
	</g>
</g>
<g>
	<g>
		<path d="M652.168,483.333H48.337c-4.6,0-8.333,3.733-8.333,8.333S43.737,500,48.337,500h603.83c4.6,0,8.333-3.733,8.333-8.333
			S656.768,483.333,652.168,483.333z"/>
	</g>
</g>
<g>
	<g>
		<path d="M170.33,258.333h-33.333c-4.6,0-8.333,3.733-8.333,8.333s3.733,8.333,8.333,8.333h33.333c4.6,0,8.333-3.733,8.333-8.333
			C178.664,262.066,174.931,258.333,170.33,258.333z"/>
	</g>
</g>
<g>
	<g>
		<path d="M602.338,33.333H385.672c-4.6,0-8.333,3.733-8.333,8.333v450c0,4.6,3.733,8.333,8.333,8.333h216.667
			c4.6,0,8.333-3.733,8.333-8.333v-450C610.672,37.066,606.938,33.333,602.338,33.333z M594.005,483.333h-200V50h200V483.333
			L594.005,483.333z"/>
	</g>
</g>
<g>
	<g>
		<path d="M452.338,258.333h-33.333c-4.6,0-8.333,3.733-8.333,8.333s3.733,8.333,8.333,8.333h33.333c4.6,0,8.333-3.733,8.333-8.333
			C460.672,262.066,456.938,258.333,452.338,258.333z"/>
	</g>
</g>
</svg>
