<?xml version="1.0" encoding="utf-8"?>
<!-- Generator: Adobe Illustrator 16.0.0, SVG Export Plug-In . SVG Version: 6.00 Build 0)  -->
<!DOCTYPE svg PUBLIC "-//W3C//DTD SVG 1.1//EN" "http://www.w3.org/Graphics/SVG/1.1/DTD/svg11.dtd">
<svg version="1.1" id="Слой_1" xmlns="http://www.w3.org/2000/svg" xmlns:xlink="http://www.w3.org/1999/xlink" x="0px" y="0px"
	 width="145.02px" height="310.365px" viewBox="0 0 145.02 310.365" enable-background="new 0 0 145.02 310.365"
	 xml:space="preserve">
<path fill-rule="evenodd" clip-rule="evenodd" d="M145.028,104.518c0,17.664,0.038,35.326-0.008,52.989
	c-0.077,29.621-21.888,51.428-51.471,51.49c-14.331,0.03-28.662,0.064-42.992-0.008c-28.281-0.143-50.363-22.128-50.463-50.468
	c-0.126-35.993-0.125-71.986,0-107.979C0.192,22.201,22.255,0.215,50.543,0.059c14.663-0.08,29.327-0.078,43.99,0
	c28.292,0.15,50.3,22.132,50.473,50.469C145.116,68.524,145.027,86.521,145.028,104.518z M133.042,104.895
	c0-18.164,0.101-36.33-0.026-54.492c-0.149-21.573-16.905-38.234-38.474-38.357c-14.665-0.084-29.33-0.084-43.994,0
	c-21.553,0.123-38.392,16.804-38.466,38.364c-0.125,35.994-0.11,71.99-0.007,107.985c0.063,21.858,16.871,38.518,38.729,38.612
	c14.165,0.062,28.329,0.03,42.494,0.008c23.176-0.036,39.684-16.482,39.738-39.627C133.078,139.89,133.044,122.392,133.042,104.895z
	"/>
<path fill-rule="evenodd" clip-rule="evenodd" d="M79.038,290.013c6.366-5.793,11.706-10.717,17.12-15.558
	c5.598-5.004,9.547-5.631,12.535-2.131c2.896,3.391,1.657,7.367-3.839,12.182c-8.647,7.575-17.257,15.193-25.985,22.673
	c-4.825,4.136-7.632,4.271-12.348,0.259c-9.767-8.309-19.396-16.782-28.97-25.313c-3.226-2.875-3.69-7.271-1.159-9.804
	c2.907-2.908,6.199-2.799,9.451-0.394c0.803,0.594,1.623,1.181,2.338,1.872c4.412,4.264,8.771,8.584,13.205,12.823
	c1.158,1.108,2.524,1.999,4.651,3.657c0-3.102,0.003-5.348,0-7.593c-0.022-15.328-0.045-30.656-0.066-45.984
	c0-0.666,0.002-1.334,0.04-1.999c0.276-4.971,2.764-7.916,6.745-7.568c4.467,0.391,6.262,3.336,6.275,7.544
	c0.028,9.163,0.008,18.326,0.008,27.49C79.038,270.987,79.038,279.805,79.038,290.013z"/>
<path fill-rule="evenodd" clip-rule="evenodd" d="M79.035,70.414c-0.002,3.819,0.091,7.642-0.024,11.458
	c-0.151,4.975-2.64,7.828-6.677,7.535C67.86,89.083,66.039,86.27,66.045,82c0.012-7.971-0.062-15.942,0.027-23.912
	c0.055-4.871,2.704-7.96,6.623-7.6c4.372,0.401,6.317,3.217,6.338,7.471C79.052,62.111,79.037,66.262,79.035,70.414z"/>
</svg>
