<?xml version="1.0" encoding="utf-8"?>
<!-- Generator: Adobe Illustrator 16.0.0, SVG Export Plug-In . SVG Version: 6.00 Build 0)  -->
<!DOCTYPE svg PUBLIC "-//W3C//DTD SVG 1.1//EN" "http://www.w3.org/Graphics/SVG/1.1/DTD/svg11.dtd">
<svg version="1.1" id="Слой_1" xmlns="http://www.w3.org/2000/svg" xmlns:xlink="http://www.w3.org/1999/xlink" x="0px" y="0px"
	 width="33px" height="27px" fill="#ffffff" viewBox="0 0 402.244 402.393" enable-background="new 0 0 402.244 402.393"
	 xml:space="preserve">
<path fill-rule="evenodd" clip-rule="evenodd" d="M311.459,402.392c-21.799,0.063-36.139-3.575-50.165-8.496
	c-13.651-4.788-27.197-9.886-40.72-15.034c-24.321-9.256-46.342-22.599-66.861-38.449c-33.389-25.79-62.724-55.647-89.322-88.382
	C35.875,216.935,19.825,175.892,6.11,133.618c-4.136-12.75-6.643-25.792-6.015-39.283C1.506,64.006,14.112,38.51,34.331,16.521
	c3.151-3.428,7.535-6.567,11.929-7.845c11.603-3.373,23.489-5.817,35.333-8.3c7.261-1.522,12.564,1.654,16.111,8.051
	c5.729,10.333,11.372,20.716,17.308,30.929c8.191,14.091,16.62,28.044,24.952,42.053c0.851,1.431,1.771,2.821,2.597,4.265
	c5.427,9.489,5.228,15.033-2.282,23.008c-6.026,6.401-12.859,12.05-19.426,17.932c-6.817,6.104-13.854,11.966-20.591,18.157
	c-5.815,5.342-7.583,11.977-3.398,18.916c11.074,18.36,21.607,37.144,34.007,54.585c21.437,30.151,49.433,53.449,81.158,72.274
	c9.001,5.341,18.215,10.336,27.439,15.288c6.404,3.438,12.414,2.165,17.281-2.977c6.286-6.642,12.211-13.624,18.304-20.449
	c5.762-6.453,11.171-13.276,17.395-19.249c9.206-8.835,14.88-8.968,25.908-2.446c19.901,11.768,39.882,23.405,59.835,35.086
	c6.026,3.528,12.129,6.929,18.094,10.561c4.351,2.648,6.213,6.612,5.933,11.808c-0.761,14.112-3.883,27.687-9.529,40.587
	c-1.558,3.557-4.156,6.954-7.042,9.587C362.724,389.252,336.086,401.547,311.459,402.392z"/>
</svg>
