<?xml version="1.0" encoding="utf-8"?>
<!-- Generator: Adobe Illustrator 16.0.0, SVG Export Plug-In . SVG Version: 6.00 Build 0)  -->
<!DOCTYPE svg PUBLIC "-//W3C//DTD SVG 1.1//EN" "http://www.w3.org/Graphics/SVG/1.1/DTD/svg11.dtd">
<svg version="1.1" id="Слой_1" xmlns="http://www.w3.org/2000/svg" xmlns:xlink="http://www.w3.org/1999/xlink" x="0px" y="0px"
	 width="20px" height="17px" fill="#ffffff" viewBox="0 0 451.084 394.929" enable-background="new 0 0 451.084 394.929"
	 xml:space="preserve">
<path fill-rule="evenodd" clip-rule="evenodd" d="M0,340.614c4.453-0.693,9.064-0.868,13.329-2.176
	c13.031-3.997,20.693-13.39,24.618-26.089c0.506-1.639,1.135-2.115,2.799-2.114c124.166,0.038,248.331,0.035,372.497,0.035
	c0.609,0,1.219,0,1.874,0c0.652,2.537,1.15,5.01,1.924,7.393c4.234,13.049,13.234,19.787,26.922,20.28
	c2.375,0.085,4.748,0.244,7.122,0.369c0,15.804,0,31.607,0,47.41c-0.941,4.707-3.298,8.14-8.285,9.206
	c-144.224,0-288.448,0-432.672,0c-4.953-1.185-8.323-4.02-9.542-9.116c-0.157-0.652-0.388-1.288-0.584-1.931
	C0,369.459,0,355.036,0,340.614z"/>
<path fill-rule="evenodd" clip-rule="evenodd" d="M265.127,0c8.714,3.756,12.157,11.552,14.599,19.799
	c3.705,12.512-0.624,23.187-8.619,32.707c-2.379,2.834-5.617,4.146-9.41,3.975c-2.221-0.1-4.46,0.125-6.669-0.058
	c-2.228-0.184-3.735,0.69-5.161,2.303c-3.551,4.016-6.966,8.208-10.915,11.801c-7.45,6.778-14.341,6.766-21.857-0.013
	c-3.793-3.422-7.088-7.416-10.449-11.29c-1.676-1.933-3.405-3.068-6.097-2.812c-2.508,0.239-5.059-0.007-7.588,0.065
	c-3.432,0.098-6.339-1.088-8.666-3.545c-8.321-8.787-14.884-24.245-6.313-40.523c2.76-5.243,5.962-9.97,11.658-12.408
	C214.802,0,239.965,0,265.127,0z"/>
<path fill-rule="evenodd" clip-rule="evenodd" d="M38.367,281.98c0.436-6.527,0.664-12.882,1.316-19.191
	c2.417-23.374,8.394-45.79,18.98-66.825c21.373-42.463,54.591-71.86,98.963-88.607c26.322-9.934,53.661-13.614,81.728-12.118
	c30.639,1.634,59.582,9.372,86.228,24.712c43.639,25.122,71.617,62.422,84.958,110.822c4.399,15.958,6.545,32.271,6.95,48.813
	c0.019,0.751,0.002,1.503,0.002,2.394C291.195,281.98,165.064,281.98,38.367,281.98z M196.435,122.219
	c-2.477,0.293-4.738,0.327-6.874,0.861c-4.375,1.093-8.783,2.188-13.003,3.753c-16.185,6-30.489,15.333-44.194,25.621
	c-11.676,8.765-22.859,18.103-31.861,29.742c-3.72,4.811-7.002,9.884-8.63,15.847c-1.42,5.204-0.789,9.966,2.708,14.285
	c1.327,1.639,2.385,1.722,4.18,0.699c18.24-10.397,36.48-20.794,54.819-31.013c15.381-8.571,30.901-16.892,46.339-25.361
	c1.74-0.954,3.454-2.017,4.995-3.258c5.952-4.793,8.574-10.937,6.764-18.519c-1.264-5.296-3.371-10.165-9.363-11.721
	C200.333,122.641,198.252,122.498,196.435,122.219z"/>
</svg>
