<?xml version="1.0" encoding="iso-8859-1"?>
<!-- Generator: Adobe Illustrator 19.0.0, SVG Export Plug-In . SVG Version: 6.00 Build 0)  -->
<svg version="1.1" id="Capa_1" xmlns="http://www.w3.org/2000/svg" xmlns:xlink="http://www.w3.org/1999/xlink" x="0px" y="0px"
	 width="28px" height="28px" fill="#c0b495" viewBox="0 0 512 512" style="enable-background:new 0 0 512 512;" xml:space="preserve">
<g>
	<g>
		<g>
			<circle cx="292.429" cy="491.54" r="19.961"/>
			<circle cx="292.429" cy="421.676" r="19.961"/>
			<circle cx="372.273" cy="491.54" r="19.961"/>
			<circle cx="292.429" cy="349.817" r="19.961"/>
			<circle cx="212.585" cy="491.54" r="19.961"/>
			<circle cx="212.585" cy="421.676" r="19.961"/>
			<circle cx="212.585" cy="349.817" r="19.961"/>
			<circle cx="452.117" cy="349.817" r="19.961"/>
			<circle cx="452.117" cy="421.676" r="19.961"/>
			<path d="M490.087,206.201c-20.903-29.673-52.819-46.014-89.868-46.014h-50.591c-3.58-40.801-21.274-78.78-50.747-108.253
				C265.711,18.766,221.773,0.499,175.158,0.499S84.605,18.766,51.436,51.935C18.266,85.103,0,129.042,0,175.657v335.844h39.922
				V175.657c0-74.569,60.667-135.236,135.236-135.236c69.338,0,126.645,52.457,134.346,119.766h-49.012
				c-37.809,0-70.277,17.386-91.42,48.955c-13.32,19.889-20.361,43.472-20.361,68.2v22.572H512V276.71
				C512,250.933,504.423,226.552,490.087,206.201z M190.364,259.992c2.107-10.327,6.112-20.027,11.877-28.634
				c13.888-20.736,33.486-31.249,58.25-31.249h139.727c24.381,0,43.637,9.785,57.231,29.083c6.449,9.155,10.85,19.603,13.034,30.8
				H190.364z"/>
			<circle cx="452.117" cy="491.54" r="19.961"/>
			<circle cx="372.273" cy="421.676" r="19.961"/>
			<circle cx="372.273" cy="349.817" r="19.961"/>
		</g>
	</g>
</g>
<g>
</g>
<g>
</g>
<g>
</g>
<g>
</g>
<g>
</g>
<g>
</g>
<g>
</g>
<g>
</g>
<g>
</g>
<g>
</g>
<g>
</g>
<g>
</g>
<g>
</g>
<g>
</g>
<g>
</g>
</svg>
