<svg xmlns="http://www.w3.org/2000/svg" xmlns:xlink="http://www.w3.org/1999/xlink" width="62px" height="58px" fill="#c0b495" viewBox="0 0 100 125" version="1.1" x="0px" y="0px"><g stroke="none" stroke-width="1" fill="none" fill-rule="evenodd"><g fill="#c0b495"><path d="M89.7396857,71.5026975 C89.2774067,71.9095042 89.0312377,72.5100378 89.0738703,73.1259748 C89.0888016,73.3422143 89.0962672,73.5436429 89.0962672,73.7415168 C89.0962672,79.2804076 83.940668,83.7864832 77.6037328,83.7864832 C72.4876228,83.7864832 68.0127701,80.8148193 66.5842829,76.5986429 C69.0528487,73.481042 70.4011788,69.7036639 70.4011788,65.8490714 C70.4011788,65.7868655 70.4007859,65.7240672 70.4001965,65.6608739 C76.4634578,59.9748613 79.9222004,52.0081639 79.9222004,43.6526303 C79.9222004,39.3918235 79.0212181,35.1823613 77.2982318,31.3244118 C77.3998035,31.322042 77.5017682,31.3208571 77.6037328,31.3208571 C83.940668,31.3208571 89.0962672,35.8271303 89.0962672,41.366021 C89.0962672,41.563895 89.0888016,41.7651261 89.0738703,41.981563 C89.0312377,42.5975 89.2774067,43.1980336 89.7396857,43.6046429 C93.7436149,47.1274706 96.0396857,52.2117647 96.0396857,57.5535714 C96.0396857,62.8955756 93.7436149,67.9798697 89.7396857,71.5026975 M51.8583497,80.249042 L51.8583497,72.6103571 L63.0058939,64.5457101 C63.886444,63.9086429 64.0866405,62.6745966 63.4526523,61.7891008 C62.8192534,60.904395 61.5917485,60.7029664 60.7104126,61.3400336 L51.8583497,67.7442773 L51.8583497,51.0833697 L59.1844794,45.7832311 C60.0650295,45.1461639 60.2652259,43.9119202 59.6312377,43.0268193 C58.997446,42.141916 57.7699411,41.9404874 56.888998,42.5775546 L51.8583497,46.2170924 L51.8583497,35.9219202 C51.8583497,34.8312437 50.9785855,33.9471303 49.8937132,33.9471303 C48.8086444,33.9471303 47.9290766,34.8312437 47.9290766,35.9219202 L47.9290766,57.7862017 L39.2229862,51.4876092 C38.3426326,50.850542 37.1147348,51.0517731 36.4807466,51.9368739 C35.8469548,52.8221723 36.0469548,54.0562185 36.9277014,54.6932857 L47.9290766,62.652479 L47.9290766,80.249042 C43.6726916,79.8021471 39.9094303,77.9249118 37.280943,75.1781765 C37.2086444,75.0448782 37.1214145,74.9188866 37.0182711,74.8037563 C34.7147348,72.226063 33.497053,69.1295924 33.497053,65.8490714 C33.497053,65.5611471 33.5074656,65.2682857 33.5292731,64.9535042 C33.5717092,64.3377647 33.3255403,63.7374286 32.8632613,63.3308193 C27.2153242,58.361458 23.9760314,51.189021 23.9760314,43.6526303 C23.9760314,39.1038992 25.1571709,34.6236933 27.3921415,30.6964286 C27.4774067,30.546542 27.5396857,30.3875714 27.5829077,30.2244538 C28.9638507,27.9064454 30.7062868,25.7926303 32.7724951,23.9746387 C33.2345776,23.5680294 33.480943,22.9676933 33.4383104,22.3517563 C33.4165029,22.0371723 33.4060904,21.7441134 33.4060904,21.4561891 C33.4060904,13.457105 40.8023576,6.94957983 49.8937132,6.94957983 C58.9848723,6.94957983 66.3811395,13.457105 66.3811395,21.4561891 C66.3811395,21.7441134 66.3707269,22.0371723 66.3489194,22.3517563 C66.3064833,22.9676933 66.5528487,23.5680294 67.0147348,23.9746387 C72.6626719,28.944 75.9019646,36.116437 75.9019646,43.6526303 C75.9019646,51.189021 72.6626719,58.3612605 67.0147348,63.3308193 C66.5528487,63.7374286 66.3064833,64.3377647 66.3489194,64.9535042 C66.3707269,65.2682857 66.3811395,65.5611471 66.3811395,65.8490714 C66.3811395,73.2628277 60.0263261,79.3913908 51.8583497,80.249042 M22.3652259,83.7864832 C16.0282908,83.7864832 10.8726916,79.2804076 10.8726916,73.7415168 C10.8726916,73.5436429 10.8799607,73.3422143 10.8950884,73.1259748 C10.937721,72.5100378 10.6915521,71.9093067 10.2290766,71.5026975 C6.22534381,67.9800672 3.92927308,62.8957731 3.92927308,57.5535714 C3.92927308,52.2115672 6.22534381,47.1274706 10.2290766,43.6048403 C10.6915521,43.1982311 10.937721,42.5975 10.8950884,41.981563 C10.8799607,41.7651261 10.8726916,41.563895 10.8726916,41.366021 C10.8726916,35.8271303 16.0282908,31.3208571 22.3652259,31.3208571 C22.4396857,31.3208571 22.5139489,31.3222395 22.5884086,31.3236218 C20.8736739,35.1588613 19.9559921,39.3537101 19.9559921,43.6526303 C19.9559921,52.0083613 23.4145383,59.9748613 29.4779961,65.6608739 C29.4772102,65.7240672 29.4768173,65.7868655 29.4768173,65.8490714 C29.4768173,69.8857395 30.919057,73.6232269 33.3605108,76.6646008 C31.9078585,80.8456261 27.4544204,83.7864832 22.3652259,83.7864832 M93.0251473,41.2730084 C92.9695481,33.5991723 86.0730845,27.3712773 77.6037328,27.3712773 C76.7905697,27.3712773 75.9789784,27.4301261 75.178389,27.5450588 C73.8233792,25.3960924 72.1923379,23.4102437 70.3094303,21.644584 C70.3102161,21.5815882 70.3104126,21.5189874 70.3104126,21.4561891 C70.3104126,11.2795042 61.1514735,3 49.8937132,3 C38.6357564,3 29.4768173,11.2795042 29.4768173,21.4561891 C29.4768173,21.5189874 29.4772102,21.5815882 29.4779961,21.644584 C27.6017682,23.4039244 25.9756385,25.3822689 24.6237721,27.5223487 C23.8772102,27.4226218 23.1220039,27.3712773 22.3652259,27.3712773 C13.8958743,27.3712773 6.99941061,33.5991723 6.94381139,41.2730084 C2.51925344,45.5093277 0,51.3896597 0,57.5535714 C0,63.7176807 2.51925344,69.5980126 6.94381139,73.8345294 C6.99489194,80.9048697 12.8550098,86.7435336 20.4005894,87.618563 L20.4005894,95.0040798 C20.4005894,96.0945588 21.2803536,96.9788697 22.3652259,96.9788697 C23.4502947,96.9788697 24.3298625,96.0945588 24.3298625,95.0040798 L24.3298625,87.6205378 C29.5909627,87.0040084 34.132613,83.9470336 36.3465619,79.6443613 C39.4935167,82.1722899 43.5072692,83.8360504 47.9290766,84.2195546 L47.9290766,95.0040798 C47.9290766,96.0945588 48.8086444,96.9788697 49.8937132,96.9788697 C50.9785855,96.9788697 51.8583497,96.0945588 51.8583497,95.0040798 L51.8583497,84.2195546 C56.3398821,83.8307185 60.402947,82.1276597 63.5683694,79.5416723 C65.7628684,83.8986513 70.3359528,86.9990714 75.6390963,87.6205378 L75.6390963,95.0040798 C75.6390963,96.0945588 76.518664,96.9788697 77.6037328,96.9788697 C78.6886051,96.9788697 79.5683694,96.0945588 79.5683694,95.0040798 L79.5683694,87.618563 C87.1139489,86.7435336 92.9740668,80.9048697 93.0251473,73.8345294 C97.4495088,69.5978151 99.9689587,63.7174832 99.9689587,57.5535714 C99.9689587,51.3898571 97.4495088,45.5095252 93.0251473,41.2730084"/></g></g></svg>
