<?xml version="1.0" encoding="iso-8859-1"?>
<!-- Generator: Adobe Illustrator 18.1.1, SVG Export Plug-In . SVG Version: 6.00 Build 0)  -->
<svg version="1.1" id="Capa_1" xmlns="http://www.w3.org/2000/svg" xmlns:xlink="http://www.w3.org/1999/xlink" x="0px" y="0px"
	 width="33px" height="27px" fill="#c0b495" viewBox="0 0 470.149 470.149" style="enable-background:new 0 0 470.149 470.149;" xml:space="preserve">
<g>
	<g>
		<path d="M202.775,383.825c0,17.567,14.167,31.733,31.733,31.733s31.733-14.167,31.733-31.733
			c0-17.567-14.167-31.733-31.733-31.733C217.225,352.091,202.775,366.258,202.775,383.825z M236.775,383.825
			c0,1.133-0.85,2.267-2.267,2.267c-1.133,0-2.267-0.85-2.267-2.267c0-1.133,0.85-2.267,2.267-2.267
			C235.925,381.841,236.775,382.691,236.775,383.825z"/>
		<path d="M373.625,243.008c4.533,0,9.067-1.983,12.467-5.383c6.233-6.8,5.95-17.567-1.133-24.083
			c-41.083-37.683-94.35-58.65-150.45-58.65c-55.25,0-108.233,20.4-149.033,57.517c-7.083,6.233-7.367,17-1.133,24.083
			c6.233,7.083,17,7.367,24.083,1.133c34.567-31.45,79.617-48.733,126.367-48.733c47.317,0,92.65,17.567,127.217,49.583
			C365.408,241.591,369.375,243.008,373.625,243.008z"/>
		<path d="M310.158,319.225c4.533,0,9.067-1.983,12.467-5.383c6.233-6.8,5.95-17.567-1.133-24.083c-23.8-21.817-54.683-34-86.7-34
			s-62.617,11.9-86.133,33.15c-7.083,6.233-7.367,17-1.133,24.083c6.233,7.083,17,7.367,24.083,1.133
			c17.283-15.867,39.95-24.367,63.183-24.367c23.8,0,46.467,8.783,63.75,24.933C301.941,317.808,306.191,319.225,310.158,319.225z"
			/>
		<path d="M453.241,173.875c4.533,0,9.067-1.983,12.467-5.383c6.233-6.8,5.95-17.567-1.133-24.083
			c-62.9-58.083-144.783-89.817-230.35-89.817c-84.717,0-166.033,31.45-228.65,88.117c-7.083,6.233-7.367,17-1.133,24.083
			s17,7.367,24.083,1.133c56.383-51.283,129.483-79.333,205.7-79.333c77.067,0,150.733,28.617,207.4,80.75
			C445.025,172.175,449.275,173.875,453.241,173.875z"/>
	</g>
</g>
<g>
</g>
<g>
</g>
<g>
</g>
<g>
</g>
<g>
</g>
<g>
</g>
<g>
</g>
<g>
</g>
<g>
</g>
<g>
</g>
<g>
</g>
<g>
</g>
<g>
</g>
<g>
</g>
<g>
</g>
</svg>
