<?xml version="1.0"?>
<!--Icons from directory ""-->
<svg xmlns="http://www.w3.org/2000/svg" width="69" height="1399" viewBox="0 0 69 1399"><svg width="53" height="21" fill="#fff" viewBox="0 0 399.921 158.413" id="360" y="0"><path fill-rule="evenodd" clip-rule="evenodd" d="M-300.106 579.529h1000c0 25.655-.036 51.312.059 76.967.009 2.415-.437 3.565-3.025 3.047-.48-.096-.997-.014-1.497-.014-330.357 0-660.715-.008-991.073.1-3.833.001-4.583-.966-4.557-4.633.178-25.154.093-50.31.093-75.467zM209.01 146.164c-5.592 1.278-11.118 2.54-16.644 3.806-11.914 2.73-23.838 5.414-35.73 8.237-2.331.553-2.844.065-2.656-2.312.5-6.324.388-6.258-6.075-6.613-32.34-1.772-64.4-5.499-95.719-14.152-10.997-3.039-21.726-6.828-31.756-12.373-5.304-2.933-10.259-6.332-14.325-10.9-8.123-9.124-8.156-20.112-.012-29.24 6.227-6.979 14.246-11.332 22.649-15.013 17.998-7.886 37.023-12.137 56.241-15.686 1.455-.269 1.975.246 2.193 1.559.426 2.559.783 5.143 1.427 7.65.505 1.964-.077 2.633-2.015 2.971-10.148 1.767-20.221 3.905-30.146 6.689-10.5 2.946-20.81 6.402-30.408 11.688-4.049 2.23-7.91 4.745-10.939 8.319-3.771 4.448-3.807 8.385-.057 12.846 3.012 3.583 6.867 6.117 10.927 8.332 13.062 7.125 27.193 11.264 41.57 14.626 24.53 5.738 49.455 8.666 74.569 10.151 3.51.209 7.025.334 10.535.56 1.485.096 2.176-.438 2.134-1.976-.036-1.337.135-2.681.091-4.018-.062-1.898.676-2.239 2.428-1.686 8.459 2.679 16.948 5.267 25.426 7.883 8.16 2.519 16.322 5.027 24.478 7.555.609.189 1.359.165 1.814 1.097zM287.5 54.905c4.492 0 8.985.062 13.476-.012 13.314-.217 26.63-.437 39.94-.784 2.388-.062 2.843.538 2.22 2.807-1.321 4.813-1.214 4.838 3.611 6.207 12.192 3.46 24.146 7.524 35.125 14.016 4.418 2.612 8.52 5.643 11.941 9.507 8.132 9.187 8.154 20.09.002 29.241-6.636 7.447-15.263 11.916-24.243 15.737-16.899 7.189-34.669 11.317-52.666 14.542-27.591 4.941-55.449 7.17-83.438 7.99-3.264.096-3.268.07-3.344-3.222-.05-2.177.02-4.362-.167-6.528-.165-1.912.632-2.471 2.417-2.516 5.859-.146 11.72-.339 17.574-.634 32.436-1.637 64.599-5.175 95.951-14.136 9.919-2.836 19.612-6.299 28.634-11.41 3.656-2.071 7.155-4.381 9.964-7.56 4.265-4.829 4.245-9.049-.123-13.788-4.581-4.969-10.448-8.06-16.469-10.844-8.612-3.983-17.635-6.818-26.769-9.338-1.776-.49-2.432.002-2.733 1.681-.279 1.562-.881 3.07-1.112 4.636-.308 2.08-1.016 2.389-2.887 1.333-7.51-4.239-15.097-8.342-22.654-12.497-7.559-4.155-15.117-8.31-22.67-12.472-.577-.318-1.124-.691-1.685-1.038.036-.304.071-.611.105-.918z"/><path fill-rule="evenodd" clip-rule="evenodd" d="M133.262 57.566c.4.088.803.17 1.202.265 6.928 1.636 12.284 5.292 14.006 12.492 1.796 7.506.002 14.308-5.735 19.751-4.032 3.827-9.009 5.739-14.419 6.516-7.885 1.133-15.678.833-23.327-1.697-2.298-.76-3.438-1.879-3.208-4.485.249-2.825.122-5.69.041-8.536-.056-1.955.528-2.081 2.114-1.162 6.007 3.477 12.5 4.715 19.354 3.655 6.575-1.017 10.195-5.962 8.912-11.864-.734-3.371-3.039-5.3-6.01-6.576-3.216-1.382-6.63-1.641-10.091-1.634-6.482.013-6.482-.01-6.482-6.602 0-1.088.098-2.188-.019-3.263-.224-2.049.516-2.816 2.649-2.726 3.845.161 7.716.203 11.447-1.03 4.607-1.522 6.67-4.483 6.473-9.233-.17-4.099-2.209-6.759-6.238-7.757-5.817-1.442-11.288-.233-16.498 2.501-2.833 1.487-2.833 1.496-2.838-1.625-.004-2.596.072-5.195-.026-7.787-.059-1.561.485-2.483 1.958-3.059 9.034-3.534 18.267-4.331 27.542-1.387 10.089 3.202 14.768 12.191 12.104 22.438-1.442 5.549-5.074 9.101-10.245 11.248-.902.375-1.818.717-2.728 1.075.019.162.041.322.062.482zM-167.459 633.542c-.617-.082-2.186-.041-3.552-.546-1.34-.496-4.075.222-3.586-2.344.497-2.607 2.689-1.113 4.099-.774 1.981.476 3.943.839 5.917.331 2.122-.545 4.324-1.242 4.486-3.966.154-2.565-1.847-3.288-3.778-3.958-2.042-.708-4.158-1.24-6.132-2.103-2.611-1.14-4.379-3.011-4.182-6.152.206-3.275 2.124-5.101 5.075-6.063 3.627-1.185 6.865.023 10.057 1.616 1.362.68 1.536 1.702.868 2.874-.823 1.443-1.75.245-2.482-.139-1.944-1.018-3.889-1.945-6.156-1.656-1.731.221-3.375.822-3.774 2.719-.44 2.093 1.166 2.925 2.775 3.547 1.239.479 2.516.861 3.79 1.24 4.231 1.261 8.007 3.054 7.563 8.377-.354 4.219-4.481 6.929-10.988 6.997zM-102.482 619.475c4.604-1.269 5.811-7.261 11.12-5.607-9.804 6.809-4.367 12.979 1.16 18.946-3.014 1.383-4.617.552-5.906-1.603-1.107-1.85-2.404-3.588-3.673-5.334-1.138-1.567-2.084-1.58-2.561.482-.111.479.025 1.022-.122 1.481-.61 1.902 1.5 5.651-2.068 5.367-2.929-.233-1.355-3.815-1.439-5.843-.234-5.64-.1-11.297-.06-16.947.009-1.234-.369-2.866 1.762-2.807 2.042.057 1.739 1.658 1.768 2.905.064 2.812.019 5.626.019 8.96zM-143.532 623.451c.037-6.003 3.524-9.924 8.848-9.946 5.508-.024 9.111 4.124 8.972 10.33-.134 5.968-3.727 9.795-9.103 9.696-5.288-.096-8.753-4.104-8.717-10.08zM-113.088 616.71c-4.147-.198-6.765 2.432-6.768 6.795-.003 4.562 2.727 7.177 7.188 6.781 1.224-.108 2.826-1.275 3.213.798.412 2.208-1.671 2.12-2.981 2.314-3.719.551-7.023-.401-9.118-3.719-2.411-3.819-2.408-7.939-.305-11.844 1.843-3.42 5.08-4.691 8.857-4.219 1.433.18 3.901-.22 3.531 2.286-.361 2.448-2.318.835-3.617.808zM-268.204 607.311l8.807 23.943 8.691-23.779c1.123 3.791-.633 6.785-1.634 9.932-1.462 4.596-3.164 9.115-4.782 13.66-.384 1.08-.661 2.247-2.139 2.438-1.563.201-2.02-.868-2.416-1.982-2.766-7.787-5.511-15.581-8.262-23.373.578-.281 1.156-.56 1.735-.839zM-235.394 631.226c-3.028 3.079-6.649 3.011-10.168 1.225-4.33-2.198-5.058-6.281-4.562-10.66.447-3.938 2.35-6.963 6.332-8.063 4.904-1.354 9.956 3.87 9.038 9.026-.282 1.586-1.176 1.783-2.402 1.792-2.322.016-4.654-.113-6.962.068-1.311.103-3.312-.978-3.793 1.09-.395 1.694.774 3.22 2.029 4.325 3.177 2.801 6.815 1.377 10.488 1.197zM-188.118 623.734c-.06 5.792-3.702 9.793-8.933 9.815-5.446.023-9.133-4.13-9.045-10.189.084-5.82 3.701-9.813 8.919-9.847 5.374-.035 9.122 4.194 9.059 10.221zM-153.302 618.642c0-2.995-.021-5.99.012-8.985.012-1.022.175-2.028 1.565-2.048 1.329-.019 1.708.829 1.654 1.934-.114 2.323-.068 4.424 3.228 4.08.63-.065 1.286.271 1.36 1.128.087 1.017-.422 1.715-1.364 1.638-3.797-.312-3.293 2.33-3.162 4.584.219 3.729-1.547 8.331 4.166 9.809.858.222.305 1.129.05 1.69-.407.896-1.188 1.099-2.072.892-3.062-.714-5.139-2.472-5.326-5.741-.17-2.984-.036-5.985-.036-8.979-.025-.002-.05-.002-.075-.002zM-83.989 615.769c-3.277-.359-4.525-2.38-4.485-5.139.044-3.08 2.243-4.454 4.961-4.393 2.824.063 3.962 2.354 3.946 4.817-.018 2.813-1.577 4.617-4.422 4.715zM-217.073 615.446c-9.94.171-12.376 1.752-12.707 7.616-.331 5.856 1.913 7.496 12.09 8.834-3.99 2.541-8.676 2.158-11.539-.942-3.214-3.481-3.517-10.016-.646-13.93 2.75-3.751 6.903-4.472 12.802-1.578zM566.89 633.517c0-3.927-.58-6.78.153-9.243.832-2.797 4.026-.685 6.024-1.586.614-.276 1.755.92 2.647.909 6.433-.079 7.486 1.604 5.07 9.159-1.43-2.029-.726-4.025-.95-5.814-.127-1.013-.161-2.172-1.403-2.301-1.355-.141-2.026.838-2.412 2.064-.567 1.804.604 3.953-1.322 5.904-1.267-1.551-.702-3.222-.849-4.711-.141-1.432.29-3.297-1.957-3.334-2.072-.033-2.762 1.457-2.998 3.293-.191 1.496.464 3.236-2.003 5.66zM-212.884 607.512c2.407 2.058-1.312 7.504 6.318 5.759-6.706 3.91-6.786 14.369-1.944 19.142-5.449.359-7.813-12.506-4.374-24.901zM630.28 619.527c-2.581 1.571-6.382.175-6.407 4.144.44.862 1.141.318 1.731.302 2.916-.084 4.9 1.18 5.105 4.168.153 2.225-1.218 3.797-3.416 4.253-2.849.591-4.943-.743-5.918-3.335-1.201-3.194-.524-6.259 1.849-8.73 1.824-1.901 4.001-2.37 7.056-.802zM643.418 629.999c2.388 1.49 5.142-.11 7.528 1.823-.841.363-1.252.717-1.598.662-2.771-.445-6.775 1.795-8.076-1.134-1.266-2.847 2.576-4.438 4.654-6.225.975-.839 2.371-1.749 1.561-3.254-1.485-2.755-3.732-.615-6.296-.498 1.094-2.394 2.667-2.978 4.703-2.82 1.823.141 3.368 1.068 3.734 2.782 1.016 4.755-3.969 5.487-6.21 8.664zM652.894 631.824c1.039-1.909 2.722-.805 3.718-1.674.775-.678 1.554-1.423 1.313-2.484-.27-1.184-1.336-.452-2.049-.555-2.738-.396-4.134-1.977-3.927-4.724.15-2.007 1.316-3.426 3.348-3.744 2.774-.436 4.314 1.211 5.173 3.592 1.973 5.47-1.87 10.564-7.576 9.589zM610.381 620.881c2.16-3.092 4.871-3.293 7.367-.893 2.373 2.282.827 4.495-1.13 6.367-1.266 1.211-3.262 1.647-3.927 3.689 2.025 1.592 4.849-.251 7.262 1.778-1.784 1.112-3.426.849-4.885.7-1.674-.171-4.12 1.126-4.882-.932-.87-2.352 1.336-3.811 3.021-5.158.646-.515 1.36-.951 1.968-1.506.971-.888 2.127-1.789 1.151-3.333-.732-1.159-1.876-1.135-3.085-.969-.894.125-1.625 1.379-2.86.257zM445.825 627.788c2.485 2.847 2.485 2.847 6.047 2.851-2.151 2.133-3.543 2.47-5.532 1.158-2.39-1.576-3.109-3.876-2.066-6.467.907-2.255 2.858-3.146 5.255-2.717 1.821.326 3.063 1.563 3.13 3.356.094 2.552-2.078 1.344-3.3 1.604-.951.204-1.961.133-3.534.215zM499.143 620.487c-.816.11-1.271.259-1.709.216-1.625-.159-3.715-.842-4.217 1.3-.428 1.823 1.672 2.114 2.972 2.732 1.853.88 3.657 1.899 3.553 4.291-.07 1.644-1.192 2.788-2.718 3.22-2.274.643-4.422.463-6.078-1.565.794-.874 1.364-.745 2.044-.54 1.59.478 3.62 1.159 4.375-.794.864-2.231-1.575-2.448-2.896-3.186-1.755-.979-3.695-1.774-3.499-4.278.116-1.482 1.119-2.439 2.414-2.896 2.045-.721 4.103-1.036 5.759 1.5zM431.108 618.984c4.088 1.862 3.312 6.188 5.787 9.115 2.368-2.904 1.927-7.052 5.024-9.342-.387 4.582-2.097 8.764-3.887 12.873-.685 1.574-1.987.998-2.503-.362-1.542-4.069-2.957-8.186-4.421-12.284zM-184.861 633.228v-20.083c2.363 4.206 4.856.338 7.924 1.095-10.726 3.626-4.15 12.903-7.924 18.988zM538.033 632.662c-3.569-.734-3.257-3.858-5.464-4.759-1.665.95.354 3.635-2.327 4.517-.729-4.624-.354-9.075-.186-14.131 2.974 2.059.916 4.985 2.283 6.935 2.207.592 2.124-2.905 4.815-2.368-3.408 3.269-1.129 6.237.879 9.806zM481.871 627.58c-.507 2.967-2.053 5.023-5.21 4.877-3.093-.144-4.864-2.131-4.709-5.24.143-2.85 1.921-4.618 4.812-4.633 3.162-.016 4.679 1.995 5.107 4.996zM517.863 627.369c-.338 3.004-1.814 5.075-4.979 5.089-3.14.014-4.932-1.926-4.935-5.021-.002-2.875 1.737-4.691 4.604-4.85 3.17-.173 4.77 1.779 5.31 4.782zM560.025 632.575c-3.022-.307-5.023-1.845-5.065-4.973-.043-3.109 1.809-4.976 4.922-5.008 2.904-.03 4.695 1.813 4.859 4.599.179 3.065-1.656 4.845-4.716 5.382zM662.547 618.503c2.805 0 4.978-.018 7.149.007 1.162.013 2.064.503 1.491 1.788-1.863 4.175-3.844 8.298-5.779 12.44l-1.516-.741 4.768-10.903c-1.678-1.522-4.127.196-6.113-2.591zM638.414 632.125c-1.77.746-3.494.456-5.368.134 2.537-3.99 2.526-6.675-.111-9.836-.569-.683-.538-1.091-.071-1.581.878-.922 1.559-2.327 3.099-2.086 1.026.162.8 1.248.881 2.028.391 3.776-1.102 7.809 1.57 11.341zM607.691 632.164c-2.187.494-3.793.617-5.399.01 1.153-3.428 4.032-6.889-.585-9.959-.802-.533-.021-1.226.361-1.629.771-.809 1.408-1.991 2.747-1.867 1.123.104.917 1.125 1.021 1.907.503 3.781-1.285 7.892 1.855 11.538zM598.66 632.139c-2.103.547-3.703.623-5.319.066 1.052-3.416 3.942-6.877-.588-9.933-.765-.517-.147-1.233.269-1.646.791-.785 1.375-1.98 2.722-1.919 1.188.055.987 1.062 1.097 1.841.531 3.78-1.326 7.892 1.819 11.591zM464.304 630.72c-3.697 2.485-6.201 2.349-8.33-.143-1.74-2.036-1.598-4.403.203-6.318 2.035-2.165 4.391-2.533 7.408-.114-2.927.8-6.962-.672-6.499 3.784.383 3.691 3.663 2.35 7.218 2.791zM529.124 624.264c-3.531.5-6.865-.726-7.042 2.983-.217 4.533 3.779 2.85 6.461 3.569-2.543 2.611-4.958 2.18-7.121.238-1.957-1.756-2.222-4.11-.629-6.262 1.94-2.62 4.384-3.002 8.331-.528zM553.97 624.248c-3.47.535-7.107-.73-6.886 3.448.214 4.017 3.768 2.638 6.658 2.839-2.67 2.902-5.093 2.466-7.275.56-1.983-1.732-2.273-4.099-.704-6.27 1.924-2.66 4.374-3.104 8.207-.577zM470.095 632.305c-3.817-1.136-6.133-7.634-4.272-10.188.668-.917 1.503-1.101 1.812-.2.319.934 2.013.766 1.347 2.591-1.541 4.228-1.321 4.308 1.113 7.797zM506.253 632.492c-3.904-1.444-6.133-7.671-4.479-10.178.601-.91 1.396-1.237 1.858-.354.421.804 2.49.979 1.21 2.508-2.329 2.78-.701 5.052 1.411 8.024zM484.982 632.369c-2.094-8.65-1.844-9.183 4.538-9.212-4.13 2.202-3.602 5.966-4.538 9.212zM583.747 632.672l4.423-13.902 1.65.452-4.465 13.966-1.608-.516zM273.068 52.084c-.415-6.639-1.485-13.146-4.563-19.161-2.667-5.212-6.613-8.988-12.22-10.925-13.574-4.692-27.231 1.356-32.77 14.561-3.136 7.476-3.877 15.368-3.969 23.65.121 8.138.761 16.466 4.539 24.199 2.48 5.078 6.225 8.884 11.544 10.996 14.363 5.701 28.808-.665 34.216-15.091 3.427-9.136 3.822-18.637 3.223-28.229zm-18.283 24.114c-.547 1.947-1.275 3.817-2.512 5.439-3.039 3.99-8.189 4.136-11.438.315-2.02-2.375-2.955-5.265-3.479-8.241-1.772-10.077-1.734-20.16.313-30.203.521-2.556 1.394-5.01 2.982-7.128 3.487-4.646 9.23-4.371 12.242.603 2.184 3.606 2.8 7.684 3.262 11.766.32 2.824.404 5.676.545 7.788-.052 7.103-.171 13.463-1.915 19.661zM210.121 59.531c-2.956-6.306-7.808-10.122-14.806-10.995-7.418-.925-13.744 1.067-18.986 6.979.13-1.235.217-2.478.396-3.706 2.345-16.018 13.491-22.472 28.505-16.453 1.464.586 1.934.428 1.904-1.184a235.08 235.08 0 0 1 .004-9.793c.033-1.438-.557-2.084-1.9-2.453-2.195-.602-4.429-.885-6.675-1.125-16.299-1.748-28.873 5.918-34.802 21.189-1.927 4.963-2.922 10.13-3.274 15.412-.59 8.857-.139 17.607 3.763 25.798 6.949 14.583 26.321 18.83 38.849 8.571 9.1-7.453 12.138-21.324 7.022-32.24zM194.49 80.308c-3.577 5.813-11.26 6-14.994.309-2.457-3.744-3.151-7.882-2.199-12.253 1.112-5.105 4.83-8.099 9.783-7.976 5.105.127 8.105 2.822 9.104 8.253.211 1.145.244 2.323.359 3.485-.047 2.898-.509 5.672-2.053 8.182zM301.303 0c-10.826-.085-19.778 8.748-19.803 19.54-.024 10.703 8.758 19.569 19.451 19.637a19.54 19.54 0 0 0 19.726-19.538C320.712 8.851 312.065.086 301.303 0zm-.138 26.984c-4.03.018-7.311-3.242-7.347-7.301-.037-4.091 3.121-7.395 7.158-7.489 4.066-.094 7.532 3.331 7.521 7.432-.01 4.012-3.329 7.341-7.332 7.358z"/><path fill-rule="evenodd" clip-rule="evenodd" d="M-140.171 623.495c.416-3.742 1.432-7.022 5.745-6.819 4.196.197 5.32 3.447 5.254 7.046-.067 3.646-1.427 6.779-5.653 6.634-4.256-.148-5.039-3.544-5.346-6.861zM-242.664 622.962c-1.66-1.18-5.083 1.503-5.102-2.039-.014-2.82 1.863-5.386 5.362-5.455 3.515-.07 5.48 2.146 5.254 5.269-.271 3.752-3.756 1.008-5.514 2.225zM-190.155 623.743c-.076 4.86-2.796 7.931-7.013 7.915-4.176-.015-6.852-3.135-6.88-8.021-.03-5.127 2.841-8.374 7.228-8.177 4.123.187 6.741 3.44 6.665 8.283zM625.883 625.605c1.607.225 2.894.925 2.808 2.759-.073 1.58-1.186 2.288-2.719 2.171-1.697-.131-2.841-1.123-2.885-2.796-.044-1.702 1.386-1.999 2.796-2.134zM658.736 623.35c-.146 1.428-1.094 2.048-2.328 2.036-1.517-.015-2.431-.946-2.439-2.484-.008-1.552.807-2.524 2.441-2.301 1.508.207 2.085 1.387 2.326 2.749zM479.774 627.402c-.155 1.827-.911 3.203-3.009 3.176-1.804-.023-2.712-1.163-2.771-2.884-.065-1.951.829-3.232 2.919-3.218 1.823.013 2.594 1.223 2.861 2.926zM515.769 627.666c-.286 1.678-.991 2.925-2.851 2.908-2.091-.018-2.977-1.32-2.921-3.239.051-1.714.992-2.822 2.798-2.854 2.147-.04 2.798 1.397 2.974 3.185zM562.804 627.503c-.34 2.115-1.331 3.308-3.303 3.076-1.992-.233-2.697-1.698-2.485-3.523.19-1.646 1.177-2.679 2.942-2.598 2.066.095 2.648 1.532 2.846 3.045z"/></svg><svg width="25" height="28" fill="#c0b495" viewBox="0 0 449.752 512.08" id="air" y="21"><path fill-rule="evenodd" clip-rule="evenodd" d="M230.971 0c10.287 4.722 14.341 12.808 14.025 23.997-.417 14.77-.103 29.559-.103 45.725 8.56-8.579 16.245-16.275 23.921-23.98 4.237-4.252 9.372-6.51 15.343-6.647 7.459-.173 15.44 4.831 18.28 11.896 2.576 6.407 1.729 16.417-3.881 21.924-17.122 16.806-34.014 33.846-50.906 50.883-1.274 1.285-2.627 3.257-2.636 4.917-.157 30.486-.115 60.973-.115 92.204 5.335-2.969 10.271-5.637 15.13-8.438 16.432-9.47 32.833-18.992 49.252-28.484 4.812-2.782 9.847-5.242 14.377-8.424 1.995-1.401 3.659-4.048 4.324-6.448 6.178-22.3 11.896-44.727 18.175-66.998 4.452-15.789 21.435-20.667 33.236-10.661 7.741 6.564 7.714 15.564 4.832 24.895-2.767 8.962-4.89 18.125-7.632 28.463 7.518-4.179 14.041-7.714 20.474-11.406 7.371-4.233 14.498-8.919 22.024-12.846 12.509-6.527 28.528-1.465 30.539 16.095.962 8.402-3.886 15.066-11.26 19.369-13.28 7.75-26.629 15.382-39.936 23.087-.22.128-.263.561-.611 1.37 9.571 2.542 18.997 5.355 28.57 7.513 14.084 3.173 18.988 13.551 18.508 22.018-.627 11.064-10.926 20.868-22.847 17.906-22.458-5.58-44.907-11.212-67.241-17.264-4.884-1.323-8.642-1.568-13.255 1.162-24.062 14.24-48.367 28.069-72.573 42.065-.804.464-1.455 1.19-2.851 2.359 5.342 3.148 10.177 6.033 15.045 8.861 21.068 12.241 42.063 24.615 63.334 36.494 2.441 1.363 6.592.509 9.696-.294 22.874-5.914 45.558-12.628 68.573-17.901 9.845-2.255 20.898 5.372 22.086 18.366.961 10.527-5.806 18.49-17.462 21.825-9.702 2.776-19.522 5.137-30.581 8.018 5.494 3.237 10.147 5.945 14.771 8.708 10.38 6.203 20.964 12.103 31.031 18.781 5.763 3.822 8.494 12.074 6.055 21.119-2.006 7.436-9.526 13.05-16.903 13.725-8.788.805-15.282-4.154-22.205-8.038-10.662-5.979-21.186-12.204-33.054-19.066 2.82 10.554 5.129 19.767 7.766 28.885 2.026 7.004 2.551 13.666-1.375 20.299-3.663 6.188-9.332 9.481-15.98 9.599-7.688.137-15.096-2.872-18.015-10.55-3.975-10.458-6.837-21.358-9.837-32.163-3.879-13.972-7.019-28.165-11.414-41.963-1.017-3.191-5.555-5.653-8.95-7.63-24.017-13.978-48.158-27.743-72.265-41.567-.262-.15-.591-.187-1.563-.479v4.344c.003 28.492.063 56.984-.069 85.477-.016 3.303 1.074 5.501 3.352 7.756 16.579 16.409 33.038 32.938 49.53 49.435 8.047 8.049 8.28 20.449.969 28.419-6.618 7.214-20.486 8.871-29.138.173-7.863-7.906-15.686-15.853-24.337-24.602-.14 2.586-.293 4.121-.295 5.657-.016 14.663.006 29.325-.007 43.988-.01 10.927-8.24 19.282-18.223 20.076-13.585 1.081-21.463-9.465-21.581-19.716-.169-14.661-.043-29.325-.043-43.987v-6.368c-8.839 8.96-16.492 16.977-24.428 24.702-11.537 11.23-30.223 6.674-33.969-8.667-1.781-7.293-.333-13.852 5.252-19.39a6746.595 6746.595 0 0 0 50.134-50.242c1.461-1.48 2.872-3.839 2.884-5.797.178-29.825.119-59.65.105-89.476 0-.478-.129-.956-.274-1.97-7.529 4.304-14.862 8.472-22.173 12.679-16.288 9.374-32.566 18.765-48.845 28.155-2.692 1.554-5.616 2.841-7.965 4.809-1.695 1.42-3.208 3.604-3.789 5.725-6.163 22.474-11.863 45.076-18.228 67.49-4.332 15.255-20.786 20.531-32.952 10.739-7.694-6.193-7.96-14.992-5.594-23.896 2.503-9.421 5.256-18.775 7.12-29.186-2.362 1.401-4.709 2.83-7.09 4.198-11.056 6.356-22.157 12.635-33.174 19.06-11.329 6.606-28.432 3.027-31.282-13.427-.035-.202-.51-.327-.779-.488v-4.999c1.951-8.992 8.073-14.512 15.663-18.807 7.539-4.265 15.097-8.497 22.617-12.797 4.683-2.678 9.309-5.453 14.552-8.532-12.283-3.485-23.587-6.521-34.781-9.919-11.22-3.406-16.997-18.202-10.09-29.176 5.121-8.138 13.001-11.343 24.369-8.401 21.292 5.509 42.438 11.575 63.705 17.184 2.954.779 6.927 1.496 9.276.181 23.816-13.328 47.403-27.07 71.024-40.748 2.438-1.412 4.678-3.168 7.082-4.814-.788-.938-1.033-1.446-1.438-1.681-25.589-14.854-51.174-29.713-76.834-44.441-1.373-.788-3.525-.987-5.079-.573-19.836 5.287-39.572 10.958-59.463 16.021-6.649 1.692-13.17 4.37-20.593 2.596C8.276 225.24 2.15 211.807 6.255 201.568c3.199-7.979 9.857-11.443 17.6-13.508 9.371-2.499 18.738-5.016 28.396-7.603-.499-.733-.662-1.239-1.002-1.436-11.617-6.701-23.256-13.362-34.879-20.052-5.65-3.252-11.568-6.244-14.223-12.806-.816-2.019-1.438-4.119-2.148-6.181v-4c.269-.162.756-.3.777-.489 1.842-16.847 19.092-21.641 32.152-13.944 9.572 5.641 19.149 11.274 28.764 16.843 3.517 2.038 7.146 3.88 11.715 6.348-3.233-11.895-6.477-22.306-8.833-32.913-2.503-11.272 2.316-19.913 11.062-23.613 13.024-5.512 24.3 1.347 27.925 13.519 6.695 22.479 12.225 45.302 18.432 67.93.579 2.11 2.125 4.435 3.91 5.642 4.729 3.198 9.838 5.832 14.792 8.698 16.405 9.493 32.797 19.007 49.217 28.474 4.863 2.803 9.802 5.474 15.13 8.442 0-31.207.051-61.687-.129-92.165-.01-1.782-1.56-3.878-2.948-5.28-16.768-16.918-33.66-33.712-50.475-50.584-6.863-6.885-7.24-19.293-1.238-26.631 6.024-7.366 18.851-9.928 26.579-3.715 5.017 4.033 9.595 8.632 14.191 13.158 4.418 4.353 8.607 8.939 12.896 13.423 1.127-16.934 1.104-33.053 1.162-49.17.006-1.765.431-3.538.759-5.289C207.252 7.134 212.952 3.418 218.972 0h11.999z"/></svg><svg width="54" height="52" viewBox="0 0 480 480" fill="#c0b495" id="bell" y="49"><path d="M456 420H285.416l-9.6-24H456a8 8 0 0 0 8-8v-16a23.952 23.952 0 0 0-16.168-22.576C444.261 240.34 357.057 152.528 248 148.2V132h16c13.255 0 24-10.745 24-24s-10.745-24-24-24h-48c-13.255 0-24 10.745-24 24s10.745 24 24 24h16v16.2c-109.057 4.328-196.261 92.14-199.832 201.224A23.952 23.952 0 0 0 16 372v16a8 8 0 0 0 8 8h180.184l-9.6 24H24c-13.255 0-24 10.745-24 24v16a8 8 0 0 0 8 8h464a8 8 0 0 0 8-8v-16c0-13.255-10.745-24-24-24zM216 116a8 8 0 0 1 0-16h48a8 8 0 0 1 0 16h-48zm24 48c102.877.124 187.422 81.218 191.832 184H48.168C52.578 245.218 137.123 164.124 240 164zM32 380v-8a8 8 0 0 1 8-8h400a8 8 0 0 1 8 8v8H32zm236.184 40h-56.368l9.6-24h37.168l9.6 24zM464 452H16v-8a8 8 0 0 1 8-8h432a8 8 0 0 1 8 8v8z"/><path d="M156.184 201.2a175.942 175.942 0 0 0-82.168 96.136l15.088 5.328a160.002 160.002 0 0 1 74.712-87.4l-7.632-14.064zM189.688 187.288a176.693 176.693 0 0 0-16.736 5.936l6.096 14.792a160.599 160.599 0 0 1 15.2-5.392l-4.56-15.336zM232 12h16v48h-16zM128 100h48v16h-48zM152.408 39.715l11.314-11.313 33.94 33.94-11.313 11.314zM282.336 62.326l33.941-33.941 11.314 11.313L293.65 73.64zM304 100h48v16h-48z"/></svg><svg width="39" height="41" fill="#fff" viewBox="0 0 410.183 425.326" id="call" y="101"><path fill-rule="evenodd" clip-rule="evenodd" d="M320.595 17.303c6.722 2.417 12.826 5.642 17.138 11.694 4.929 6.921 5.969 14.6 5.236 22.785-3.99 44.585-7.944 89.172-11.912 133.76-5.185 58.258-10.348 116.519-15.569 174.773-1.212 13.526-2.131 27.105-4.087 40.528-1.938 13.295-11.538 21.945-24.814 23.957-.775.118-1.533.348-2.299.526L89.839 408.023c-6.722-2.416-12.826-5.642-17.137-11.693-4.93-6.921-5.969-14.601-5.236-22.785 3.989-44.585 7.945-89.172 11.912-133.759 5.184-58.257 10.347-116.518 15.568-174.772 1.212-13.526 2.132-27.104 4.088-40.528 1.936-13.283 11.552-21.95 24.814-23.96.775-.118 1.533-.348 2.299-.525l194.448 17.302zm-18.877 340.586l24.126-271.13-217.129-19.321-24.126 271.13 217.129 19.321zM326.881 72.37c.86-9.658 2.177-19.165 2.281-28.685.034-3.071-2.446-7.017-4.987-9.042-2.908-2.318-7.084-3.825-10.847-4.171-60.788-5.597-121.598-10.954-182.403-16.359-1.194-.106-2.396-.226-3.591-.197-6.574.156-13.208 4.102-14.239 10.206-1.606 9.504-1.912 19.229-2.78 28.978l216.566 19.27zM83.345 352.929c-.832 9.346-2.042 18.21-2.188 27.093-.053 3.231 1.897 6.885 3.882 9.669 2.775 3.895 7.346 4.905 12.028 5.319 60.808 5.373 121.612 10.796 182.417 16.203 1.193.106 2.396.226 3.59.198 6.72-.151 13.396-4.325 14.406-10.558 1.523-9.397 1.868-18.988 2.727-28.628L83.345 352.929zM2.411 180.961c1.398-6.75 2.673-13.529 4.223-20.245 3.273-14.184 7.792-27.956 14.899-40.717 1.166-2.094 3.505-4.257 5.706-4.828 1.799-.466 4.669.891 6.227 2.339 2.243 2.087 1.688 4.985.54 7.807-4.099 10.085-9.036 19.967-11.842 30.413-9.938 36.992-12.139 74.25-1.232 111.56.112.383.212.771.306 1.158 1.049 4.348-.638 7.972-4.23 9.092-3.906 1.218-7.385-.783-8.853-5.294-4.601-14.141-6.871-28.703-7.575-43.518-.328-6.885-.395-13.782-.58-20.673l2.411-27.094zM408.023 244.364c-1.398 6.75-2.673 13.529-4.223 20.245-3.273 14.185-7.902 27.895-14.791 40.777-2.572 4.81-6.131 6.378-9.996 4.366-3.544-1.845-4.521-5.943-2.233-10.426 15.099-29.571 19.874-61.291 19.667-94.053-.103-16.328-2.167-32.362-7.119-47.986-1.44-4.544.357-8.305 4.067-9.493 3.98-1.276 7.433.837 8.988 5.67 6.06 18.833 7.972 38.228 7.8 57.905-.017 1.966.162 3.934.251 5.899l-2.411 27.096zM42.014 198.606c1.655-16.526 5.067-32.348 10.862-47.62 1.879-4.951 5.463-7.039 9.424-5.53 3.74 1.425 5.191 5.179 3.399 10.077-6.36 17.388-10.459 35.269-10.374 53.803.051 11.123 1.264 22.261 2.363 33.351.671 6.775-.673 10.36-5.244 11.047-4.6.689-7.145-2.179-8.348-8.91-2.757-15.422-3.18-30.935-2.082-46.218zM369.118 227.198c-2.397 16.379-5.864 32.319-11.831 47.678-1.783 4.589-4.947 6.459-8.832 5.224-3.93-1.25-5.585-5.024-3.884-9.786 4.493-12.568 7.865-25.371 9.486-38.657 1.981-16.237 1.629-32.379-1.108-48.489-.199-1.179-.411-2.361-.514-3.55-.354-4.108 1.979-7.375 5.591-7.901 3.712-.54 6.943 1.716 7.718 5.854.951 5.09 1.944 10.224 2.222 15.376.616 11.404.794 22.832 1.152 34.251z"/><path fill-rule="evenodd" clip-rule="evenodd" d="M219.342 49.349c-10.622-.945-21.248-1.866-31.867-2.846-5.413-.5-8.247-3.307-7.801-7.578.428-4.101 3.697-6.436 8.817-5.991a15190.29 15190.29 0 0 1 64.933 5.778c5.115.467 7.919 3.347 7.61 7.462-.321 4.277-3.605 6.535-9.025 6.071-10.89-.935-21.777-1.927-32.667-2.896zM190.65 375.942c6.496.578 12.997 1.096 19.483 1.753 4.726.479 7.442 3.453 7.051 7.454-.37 3.798-3.518 6.429-7.979 6.074a2116.831 2116.831 0 0 1-39.368-3.501c-4.642-.456-7.322-3.76-6.813-7.718.497-3.859 3.558-6.123 8.138-5.774 6.503.495 12.993 1.135 19.488 1.712zM121.323 383.452c-4.103-.362-8.215-.643-12.306-1.113-4.894-.564-7.793-3.761-7.254-7.774.528-3.922 3.736-6.152 8.566-5.757 8.343.685 16.682 1.413 25.012 2.234 4.793.473 7.396 3.355 7.007 7.441-.369 3.874-3.387 6.327-7.921 6.095-4.375-.224-8.736-.741-13.104-1.126zM258.754 382.015c4.368.389 8.745.683 13.099 1.191 4.188.489 6.78 3.397 6.604 7.102-.172 3.595-3.246 6.611-7.335 6.354a563.128 563.128 0 0 1-26.995-2.372c-4.4-.492-6.796-3.818-6.249-7.726.526-3.76 3.421-5.892 7.775-5.723.265.011.53.038.795.062l12.308 1.096-.002.016z"/></svg><svg height="59" viewBox="-34 0 512 512" width="51" fill="#c0b495" id="cardiogram" y="142"><path d="M128 136.535h119.465A8.536 8.536 0 0 0 256 128V42.668a8.534 8.534 0 0 0-8.535-8.535H128a8.536 8.536 0 0 0-8.535 8.535V128c0 4.71 3.824 8.535 8.535 8.535zm8.535-85.336h102.399v68.266H136.535zm0 0M179.2 256h-59.735c-9.422 0-17.067 7.64-17.067 17.066v17.067c0 9.426 7.645 17.066 17.067 17.066h59.734c9.426 0 17.067-7.64 17.067-17.066v-17.067c0-9.425-7.641-17.066-17.067-17.066zm-59.735 34.133v-17.067h59.734v17.067zm0 0M230.398 256h-8.53a8.534 8.534 0 1 0 0 17.066h8.53a8.533 8.533 0 1 0 0-17.066zm0 0M264.535 256H256a8.536 8.536 0 0 0-8.535 8.535c0 4.711 3.824 8.531 8.535 8.531h8.535a8.533 8.533 0 0 0 0-17.066zm0 0M230.398 290.133h-8.53a8.534 8.534 0 1 0 0 17.066h8.53a8.533 8.533 0 1 0 0-17.066zm0 0M264.535 290.133H256a8.536 8.536 0 0 0-8.535 8.535c0 4.71 3.824 8.531 8.535 8.531h8.535c4.711 0 8.531-3.82 8.531-8.531a8.533 8.533 0 0 0-8.53-8.535zm0 0M110.934 418.133c4.71 0 8.53-3.82 8.53-8.531V384c0-4.71-3.82-8.535-8.53-8.535a8.536 8.536 0 0 0-8.536 8.535v25.602c0 4.71 3.82 8.53 8.536 8.53zm0 0"/><path d="M426.668 221.867h-85.336c-9.426 0-17.066 7.64-17.066 17.067V256c0 9.426 7.64 17.066 17.066 17.066h8.535v42.668c0 4.711-3.82 8.532-8.535 8.532h-34.133v-85.332c0-9.426-7.64-17.067-17.066-17.067v-17.066c0-9.426-7.64-17.067-17.067-17.067h-8.53v-17.066c14.136 0 25.597-11.461 25.597-25.602V25.602C290.133 11.46 278.672 0 264.535 0H110.934C96.793 0 85.332 11.46 85.332 25.602v42.664h-8.531C34.406 68.32.05 102.672 0 145.066v256c0 14.141 11.46 25.602 25.602 25.602h8.53v17.066c0 14.137 11.462 25.598 25.602 25.598h10.907a17 17 0 0 0 14.691 8.535v17.067c0 9.425 7.64 17.066 17.066 17.066h34.137c9.426 0 17.067-7.64 17.067-17.066v-17.067h68.265v17.067c0 9.425 7.64 17.066 17.067 17.066h34.132c9.426 0 17.067-7.64 17.067-17.066v-17.067c9.426 0 17.066-7.64 17.066-17.066V341.332h34.133c14.14 0 25.602-11.46 25.602-25.598v-42.668h59.734c9.426 0 17.066-7.64 17.066-17.066v-17.066c0-9.426-7.64-17.067-17.066-17.067zM290.133 324.266H85.332v-85.332h204.8zm-238.934-51.2c0-4.71 3.82-8.53 8.535-8.53h8.532V332.8h-8.532a8.534 8.534 0 0 1-8.535-8.535zm221.867-51.199H102.398v-17.066h170.668zm-25.601-34.133H128v-17.066h119.465zM102.398 25.602a8.534 8.534 0 0 1 8.536-8.536h153.601c4.711 0 8.531 3.82 8.531 8.536v119.464a8.533 8.533 0 0 1-8.53 8.536H110.933a8.534 8.534 0 0 1-8.536-8.536zM17.066 145.066c.04-32.972 26.758-59.695 59.735-59.734h8.531v59.734c0 14.141 11.461 25.602 25.602 25.602v17.066h-8.536c-9.425 0-17.066 7.641-17.066 17.067v17.066c-9.426 0-17.066 7.64-17.066 17.067v8.53h-8.532c-14.14 0-25.601 11.466-25.601 25.602v17.067H17.066zm8.536 264.536a8.534 8.534 0 0 1-8.536-8.536V307.2h17.067v17.067c0 14.14 11.46 25.601 25.601 25.601h8.532v17.067h-8.532c-14.14 0-25.601 11.46-25.601 25.601v17.067zm25.597 34.132v-51.199A8.534 8.534 0 0 1 59.734 384h8.532v68.266h-8.532a8.533 8.533 0 0 1-8.535-8.532zm85.336 51.2h-34.137v-17.067h34.137zm136.531 0h-34.132v-17.067h34.132zm17.067-34.133H85.332V341.332h204.8zM341.332 256v-17.066h85.336V256zm0 0"/><path d="M168.191 70.742a8.929 8.929 0 0 0-12.117 0 8.008 8.008 0 0 0-1.793 2.817 8.472 8.472 0 0 0-.68 3.242c0 4.71 3.82 8.531 8.532 8.531a8.533 8.533 0 0 0 8.535-8.531 7.194 7.194 0 0 0-.684-3.242 8.783 8.783 0 0 0-1.793-2.817zm0 0M213.332 68.266h-17.066a8.533 8.533 0 0 0-8.532 8.535c0 4.71 3.82 8.531 8.532 8.531h17.066a8.533 8.533 0 1 0 0-17.066zm0 0"/></svg><svg width="45" height="61" fill="#c0b495" viewBox="0 0 315 315" id="closet" y="201"><path d="M266.202 0H48.798a7 7 0 0 0-7 7v275.422a7 7 0 0 0 7 7h18.469V308a7 7 0 1 0 14 0v-18.578h152.467V308a7 7 0 1 0 14 0v-18.578h18.469a7 7 0 0 0 7-7V7a7.001 7.001 0 0 0-7.001-7zM55.798 14H150.5v261.422H55.798V14zm203.404 261.422H164.5V14h94.702v261.422z"/><circle cx="123.147" cy="157.5" r="8.29"/><circle cx="191.852" cy="157.5" r="8.29"/></svg><svg width="61" height="45" fill="#c0b495" viewBox="0 0 511.999 511.999" id="conditioner" y="262"><path d="M466.826 66.661H45.174C20.266 66.661 0 86.926 0 111.835v103.536c0 24.909 20.266 45.174 45.174 45.174h421.651c24.909 0 45.174-20.265 45.174-45.174V111.835c.001-24.909-20.265-45.174-45.173-45.174zm29.869 152.469h-297.67a7.53 7.53 0 0 0-7.531 7.531 7.53 7.53 0 0 0 7.531 7.531h291.281c-5.523 6.876-13.994 11.291-23.48 11.291H45.174c-9.486 0-17.956-4.413-23.48-11.291H168.9a7.53 7.53 0 0 0 7.531-7.531 7.53 7.53 0 0 0-7.531-7.531H15.305c-.382-3.054-.19-4.496-.243-9.408H311.5a7.53 7.53 0 0 0 7.531-7.531 7.53 7.53 0 0 0-7.531-7.531H15.062v-82.825c0-16.604 13.508-30.112 30.112-30.112h421.651c16.604 0 30.112 13.508 30.112 30.112v82.825H341.624a7.53 7.53 0 0 0-7.531 7.531 7.53 7.53 0 0 0 7.531 7.531h155.313c-.052 4.828.142 6.335-.242 9.408z"/><circle cx="434.93" cy="169.249" r="10.353"/><circle cx="474.825" cy="169.249" r="10.353"/><path d="M475.896 372.496l-26.386-16.397 26.386-16.397a7.53 7.53 0 0 0 2.422-10.372 7.53 7.53 0 0 0-10.371-2.422l-25.174 15.643v-29.639a7.53 7.53 0 1 0-15.062 0v29.64l-25.175-15.644a7.528 7.528 0 0 0-10.371 2.422 7.53 7.53 0 0 0 2.422 10.372l26.386 16.397-26.386 16.397a7.53 7.53 0 0 0-2.422 10.372 7.524 7.524 0 0 0 6.404 3.557c3.767 0 3.492-1.289 29.143-16.779v29.64a7.53 7.53 0 1 0 15.062 0v-29.639c25.677 15.506 25.369 16.778 29.142 16.778 7.547 0 10.404-9.937 3.98-13.929zM193.764 349.987l-26.386-16.397 26.386-16.397a7.53 7.53 0 0 0 2.422-10.372 7.531 7.531 0 0 0-10.371-2.422l-25.175 15.644v-29.64a7.53 7.53 0 1 0-15.062 0v29.639l-25.174-15.643a7.53 7.53 0 0 0-10.371 2.422 7.53 7.53 0 0 0 2.422 10.372l26.386 16.397-26.386 16.397a7.53 7.53 0 0 0-2.422 10.372c2.183 3.515 6.822 4.628 10.371 2.422l25.174-15.643v29.639a7.53 7.53 0 1 0 15.062 0v-29.64c25.683 15.509 25.37 16.779 29.143 16.779 7.549 0 10.406-9.939 3.981-13.929zM285.869 419.048l-11.94-7.42 11.94-7.42a7.532 7.532 0 1 0-7.951-12.795l-10.728 6.667v-12.63a7.53 7.53 0 1 0-15.062 0v12.63l-10.727-6.666a7.53 7.53 0 0 0-10.372 2.422 7.531 7.531 0 0 0 2.421 10.372l11.94 7.42-11.94 7.42a7.53 7.53 0 0 0-2.421 10.372c2.207 3.551 6.855 4.606 10.372 2.422l10.727-6.666v12.63a7.53 7.53 0 1 0 15.062 0v-12.631l10.728 6.667c3.51 2.182 8.163 1.134 10.372-2.422a7.531 7.531 0 0 0-2.421-10.372zM50.134 319.234c-12.783 0-23.184 10.4-23.184 23.184s10.4 23.184 23.184 23.184 23.184-10.4 23.184-23.184-10.401-23.184-23.184-23.184zm0 31.305c-4.479 0-8.122-3.643-8.122-8.122 0-4.478 3.643-8.122 8.122-8.122s8.122 3.643 8.122 8.122c0 4.478-3.643 8.122-8.122 8.122zM321.042 284.827c-12.783 0-23.184 10.4-23.184 23.184s10.4 23.184 23.184 23.184 23.184-10.4 23.184-23.184c0-12.783-10.401-23.184-23.184-23.184zm0 31.307c-4.479 0-8.122-3.643-8.122-8.122 0-4.478 3.643-8.122 8.122-8.122s8.122 3.643 8.122 8.122c-.001 4.478-3.644 8.122-8.122 8.122zM279.167 108.937h-45.019c-4.16 0-7.531 3.372-7.531 7.531s3.371 7.531 7.531 7.531h45.019c4.16 0 7.531-3.372 7.531-7.531s-3.371-7.531-7.531-7.531z"/></svg><svg width="55" height="61" viewBox="0 0 512 512" fill="#c0b495" id="doctor" y="307"><path d="M482.726 485.783l-22.65-132.603c-2.441-14.287-12.576-25.764-26.453-29.95l-61.092-18.433a67.95 67.95 0 0 0-17.578-40.175 68.085 68.085 0 0 0-29.704-18.999 124.42 124.42 0 0 0 5.372-6.377c14.528-18.477 22.306-38.833 24.286-52.724h4.713c12.258 0 22.231-9.972 22.231-22.231v-11.396c0-8.181-4.602-15.594-11.523-19.441V106.05a7.498 7.498 0 0 0-14.995 0v30.764c-2.92.507-6.404 1.383-9.968 2.884a7.53 7.53 0 0 0-1.056.472c-.805.367-1.611.754-2.414 1.19V80.938c0-16.693-13.58-30.273-30.273-30.273h-20.695a31.105 31.105 0 0 0-19.637 7.005l-2.031 1.66a20.999 20.999 0 0 1-13.257 4.73c-4.819 0-9.528-1.68-13.258-4.73l-2.03-1.66a31.11 31.11 0 0 0-19.637-7.005H200.38c-16.693 0-30.273 13.58-30.273 30.273v60.422a38.473 38.473 0 0 0-2.414-1.19 7.519 7.519 0 0 0-1.055-.472c-3.564-1.501-7.049-2.377-9.968-2.884V59.025c0-24.278 19.752-44.03 44.03-44.03h110.601c24.279 0 44.03 19.752 44.03 44.03v11.786a7.498 7.498 0 1 0 14.995 0V59.025C370.326 26.479 343.847 0 311.301 0H200.7c-32.547 0-59.025 26.479-59.025 59.025v74.43c-6.921 3.847-11.523 11.259-11.523 19.441v11.396c0 12.259 9.973 22.231 22.231 22.231h4.713c1.979 13.891 9.758 34.247 24.286 52.724a124.188 124.188 0 0 0 5.367 6.371c-25.98 8.252-44.926 31.61-47.277 59.179L78.378 323.23c-13.877 4.186-24.013 15.663-26.453 29.95l-9.198 53.849a7.497 7.497 0 1 0 14.781 2.524l9.198-53.849c1.476-8.644 7.608-15.586 16.003-18.118l56.505-17.049v14.831c-12.952 2.384-23.973 11.281-28.512 23.608a38.026 38.026 0 0 0-2.226 10.182l-5.461 70.095a19.11 19.11 0 0 0 5.01 14.423 19.114 19.114 0 0 0 13.989 6.116h9.348a7.497 7.497 0 1 0 0-14.995h-9.348a4.07 4.07 0 0 1-2.982-1.304 4.07 4.07 0 0 1-1.067-3.073l5.461-70.096a23.021 23.021 0 0 1 1.348-6.167c3.158-8.575 11.686-14.382 21.223-14.449l1.235-.009.172-.001c9.269 0 17.474 5.256 20.935 13.427a22.997 22.997 0 0 1 1.755 7.199l5.463 70.097a4.078 4.078 0 0 1-1.068 3.073 4.074 4.074 0 0 1-2.982 1.303h-9.348a7.497 7.497 0 1 0 0 14.995h9.348a19.108 19.108 0 0 0 13.989-6.116 19.11 19.11 0 0 0 5.011-14.422l-5.463-70.096a37.974 37.974 0 0 0-2.898-11.884c-4.939-11.657-15.5-19.762-27.938-21.955v-19.306l25.774-7.777c2.345 4.939 6.992 15.612 16.197 38.619 9.277 23.214 20.808 52.969 31.867 81.895.079.243.17.48.272.712a9889.647 9889.647 0 0 1 20.662 54.541 7.498 7.498 0 0 0 14.04 0 9730.632 9730.632 0 0 1 20.662-54.541c.103-.232.193-.47.272-.712 11.051-28.909 22.576-58.645 31.849-81.852 9.217-23.037 13.868-33.719 16.214-38.662l25.774 7.777v44.285c-17.858 3.469-31.385 19.219-31.385 38.077 0 21.391 17.403 38.795 38.795 38.795 21.392 0 38.795-17.403 38.795-38.795 0-18.796-13.438-34.508-31.21-38.045v-39.792l56.506 17.049c8.395 2.532 14.526 9.474 16.003 18.118l22.65 132.603a7.329 7.329 0 0 1-1.648 6.054 7.334 7.334 0 0 1-5.69 2.644H51.393a7.333 7.333 0 0 1-5.69-2.644 7.331 7.331 0 0 1-1.648-6.054l7.475-43.762a7.497 7.497 0 0 0-6.128-8.652c-4.08-.7-7.955 2.047-8.653 6.128l-7.475 43.762a22.4 22.4 0 0 0 4.968 18.248A22.398 22.398 0 0 0 51.393 512h409.214a22.394 22.394 0 0 0 17.151-7.969 22.4 22.4 0 0 0 4.968-18.248zM355.421 152.089c3.995-.996 7.202-.978 7.238-.977a7.664 7.664 0 0 0 3.664-.87c.334.831.531 1.724.531 2.654v11.396c0 3.99-3.246 7.236-7.236 7.236h-4.197v-19.439zm-198.842 19.439h-4.197c-3.99 0-7.236-3.246-7.236-7.236v-11.396c0-.93.198-1.823.531-2.653a7.646 7.646 0 0 0 3.664.869c.057.01 3.255-.008 7.238.981v19.435zm14.995 8.407v-19.698c2.272.681 4.757.588 7.051-.369a10.502 10.502 0 0 0 6.477-9.716V80.938c0-8.424 6.854-15.278 15.278-15.278h20.695c3.688 0 7.291 1.285 10.146 3.619l2.03 1.66A36.033 36.033 0 0 0 256 79.054a36.039 36.039 0 0 0 22.749-8.115l2.03-1.66a16.07 16.07 0 0 1 10.146-3.619h20.695c8.424 0 15.278 6.854 15.278 15.278v69.215c0 4.26 2.542 8.074 6.477 9.716a10.471 10.471 0 0 0 7.051.375v19.691c0 10.947-7.568 32.205-21.594 50.043-4.646 5.909-10.618 12.257-17.971 17.805a7.51 7.51 0 0 0-.669.505c-11.391 8.422-26.038 14.874-44.192 14.874s-32.801-6.452-44.193-14.875a7.608 7.608 0 0 0-.667-.503c-7.353-5.549-13.325-11.897-17.972-17.806-14.025-17.837-21.594-39.096-21.594-50.043zM305.12 301.07L256 337.784l-49.12-36.714c4.871-6.191 7.6-14.138 7.6-21.23v-12.086c11.551 6.212 25.334 10.404 41.52 10.404s29.97-4.192 41.52-10.404v12.086c0 7.092 2.729 15.039 7.6 21.23zm-110.753-8.369a20.5 20.5 0 0 0-12.642-.636 9.418 9.418 0 0 0-.539.144l-25.903 7.816c4.381-21.542 21.873-38.688 44.202-42.009v21.824c0 4.704-2.1 9.567-5.118 12.861zm20.349 60.188l-.041-.104a2233.66 2233.66 0 0 0-1.328-3.353l-1.081-2.722-.075-.189a2891.71 2891.71 0 0 0-3.212-8.039l-.225-.56-.876-2.177-.316-.783c-.28-.694-.558-1.384-.832-2.059l-.243-.599a3020.388 3020.388 0 0 0-2.392-5.874l-.584-1.424-.219-.534-.168-.408c-.866-2.104-1.689-4.087-2.47-5.952l-.019-.045c-.416-.993-.823-1.963-1.214-2.887l-.599-1.412 42.245 31.574-17.652 7.499-.094.04-7.37 3.131-1.235-3.123zm17.89 45.908a7797.43 7797.43 0 0 0-4.468-11.569 6045.963 6045.963 0 0 0-6.708-17.251l2.798-1.189 11.432 13.289-3.054 16.72zm23.539 60.938a7.466 7.466 0 0 0-.767-1.259c-3.388-8.955-7.688-20.286-12.447-32.753l7-38.325h12.138l7 38.325a11871.808 11871.808 0 0 0-12.924 34.012zm8.736-87.331h-17.762l-8.405-9.77L256 355.291l17.286 7.343-8.405 9.77zm18.981 14.824a7797.43 7797.43 0 0 0-4.468 11.569l-3.054-16.721 11.432-13.289 2.798 1.189c-2.137 5.47-4.37 11.213-6.708 17.252zm28.718-72.048a777.44 777.44 0 0 0-1.15 2.733l-.154.368c-.389.93-.785 1.88-1.195 2.869l-.082.2c-.354.853-.717 1.733-1.086 2.63l-.203.492-.253.617-.499 1.216-.622 1.519-.204.5a1458.71 1458.71 0 0 0-1.606 3.951l-.257.635-.824 2.039-.326.809-.867 2.155-.247.615a2635.385 2635.385 0 0 0-3.167 7.925l-.108.272-1.074 2.704-.203.511-1.133 2.861-.021.053-1.248 3.16-7.377-3.134-.077-.033-17.662-7.503 42.245-31.574c-.198.46-.398.93-.6 1.41zm18.234-22.97l-.004-.001c-.006-.002-.013-.003-.019-.006-4.35-1.305-8.99-1.089-13.157.498-3.019-3.294-5.118-8.157-5.118-12.861v-21.835a52.849 52.849 0 0 1 44.232 42.029l-25.934-7.824zm58.187 106.165c0 13.124-10.677 23.8-23.8 23.8s-23.8-10.676-23.8-23.8 10.677-23.8 23.8-23.8 23.8 10.676 23.8 23.8z"/></svg><svg width="29" height="29" fill="#c0b495" viewBox="40.004 33.333 429.992 466.667" id="door_one" y="368"><path d="M358.333 33.333H141.667a8.336 8.336 0 0 0-8.333 8.333v450c0 4.6 3.733 8.333 8.333 8.333h216.667c4.6 0 8.333-3.733 8.333-8.333v-450c0-4.6-3.733-8.333-8.334-8.333zm-8.333 450H150V50h200v433.333z"/><path d="M461.664 483.333H48.337c-4.6 0-8.333 3.733-8.333 8.333S43.737 500 48.337 500h413.326c4.6 0 8.333-3.733 8.333-8.333s-3.732-8.334-8.332-8.334zM208.333 258.333H175c-4.6 0-8.333 3.733-8.333 8.333s3.733 8.333 8.333 8.333h33.333c4.6 0 8.333-3.733 8.333-8.333.001-4.6-3.732-8.333-8.333-8.333z"/></svg><svg width="53" height="29" fill="#c0b495" viewBox="40.004 33.333 620.496 466.667" id="door_two" y="397"><path d="M320.33 33.333H103.664a8.336 8.336 0 0 0-8.333 8.333v450c0 4.6 3.733 8.333 8.333 8.333h216.667c4.6 0 8.333-3.733 8.333-8.333v-450c0-4.6-3.733-8.333-8.334-8.333zm-8.333 450h-200V50h200v433.333z"/><path d="M652.168 483.333H48.337c-4.6 0-8.333 3.733-8.333 8.333S43.737 500 48.337 500h603.83c4.6 0 8.333-3.733 8.333-8.333s-3.732-8.334-8.332-8.334zM170.33 258.333h-33.333c-4.6 0-8.333 3.733-8.333 8.333s3.733 8.333 8.333 8.333h33.333c4.6 0 8.333-3.733 8.333-8.333.001-4.6-3.732-8.333-8.333-8.333z"/><path d="M602.338 33.333H385.672a8.336 8.336 0 0 0-8.333 8.333v450c0 4.6 3.733 8.333 8.333 8.333h216.667c4.6 0 8.333-3.733 8.333-8.333v-450c0-4.6-3.734-8.333-8.334-8.333zm-8.333 450h-200V50h200v433.333z"/><path d="M452.338 258.333h-33.333c-4.6 0-8.333 3.733-8.333 8.333s3.733 8.333 8.333 8.333h33.333c4.6 0 8.333-3.733 8.333-8.333.001-4.6-3.733-8.333-8.333-8.333z"/></svg><svg fill="#fff" viewBox="0 0 33.293 33.293" width="32" height="32" id="download" y="426"><path d="M16.646 24.786a.5.5 0 0 1-.5-.5l.001-11.279a.5.5 0 0 1 1 0l-.001 11.279a.5.5 0 0 1-.5.5z"/><path d="M16.646 24.786a.502.502 0 0 1-.354-.146l-4.313-4.313a.5.5 0 0 1 .707-.707l3.959 3.959 3.959-3.959a.5.5 0 0 1 .707.707l-4.313 4.313a.494.494 0 0 1-.352.146z"/><path d="M27.578 33.293H5.715a2.503 2.503 0 0 1-2.5-2.5V2.5c0-1.379 1.122-2.5 2.5-2.5h15.877a.5.5 0 0 1 0 1H5.715c-.827 0-1.5.673-1.5 1.5v28.293c0 .827.673 1.5 1.5 1.5h21.863c.827 0 1.5-.673 1.5-1.5V8.704a.5.5 0 0 1 1 0v22.09a2.502 2.502 0 0 1-2.5 2.499z"/><path d="M29.578 9.204h-7.986a.5.5 0 0 1-.5-.5V.717a.5.5 0 0 1 1 0v7.486h7.486a.5.5 0 0 1 0 1.001z"/><path d="M29.578 9.204a.5.5 0 0 1-.358-.151L21.234.85a.5.5 0 0 1 .717-.697l7.986 8.203a.5.5 0 0 1-.359.848z"/></svg><svg width="61" height="61" fill="#c0b495" viewBox="0 0 60 60" id="dressing" y="458"><path d="M56 33h1c1.654 0 3-1.346 3-3s-1.346-3-3-3h-3V15a1 1 0 0 0-1-1H42v-2c0-6.617-5.383-12-12-12S18 5.383 18 12v2H7a1 1 0 0 0-1 1v12H3c-1.654 0-3 1.346-3 3s1.346 3 3 3h1v6h3.582c-1.184 2.219-2.133 5.298-1.571 9.145.631 4.318-.58 5.877-.829 6.146a1.017 1.017 0 0 0-.099.126l-.003-.003-2.891 4A1 1 0 0 0 3 60h1c1.639 0 3.117-.671 4.395-1.992 2.634-2.729 3.693-7.515 3.604-10.043-.218-6.206 2.564-8.489 2.883-8.729.035-.026.081-.064.112-.096l.142-.14H18v4h24v-4h2.864l.137.135c.032.033.08.073.117.101.318.24 3.101 2.523 2.883 8.729-.089 2.528.971 7.314 3.604 10.043C52.883 59.329 54.361 60 56 60h1a1.001 1.001 0 0 0 .811-1.586l-2.891-4-.003.002a.865.865 0 0 0-.1-.126c-.249-.268-1.46-1.824-.828-6.146.562-3.846-.387-6.926-1.571-9.145H56V33zM42 22h10v4H42v-4zm10-6v4H42v-4h10zm-32-4c0-5.514 4.486-10 10-10s10 4.486 10 10v15H20V12zM8 22h10v4H8v-4zm0-6h10v4H8v-4zM3 31a1 1 0 0 1 0-2h54a1 1 0 0 1 0 2H3zm7.001 17.035c.076 2.196-.938 6.401-3.046 8.583-.582.604-1.212 1.011-1.881 1.219l1.603-2.218c.656-.727 2.025-2.886 1.313-7.764-.571-3.903.65-6.912 1.896-8.855h2.479c-1.142 1.514-2.529 4.34-2.364 9.035zM40 41H20v-4h20v4zm12.011 6.855c-.711 4.863.646 7.022 1.313 7.764l1.603 2.218c-.669-.208-1.299-.615-1.881-1.219-2.107-2.182-3.122-6.387-3.046-8.583.165-4.694-1.222-7.521-2.364-9.035h2.479c1.245 1.943 2.466 4.952 1.896 8.855zM54 37H42v-2H18v2H6v-4h48v4z"/><path d="M33 38h-6a1 1 0 1 0 0 2h6a1 1 0 1 0 0-2zM14 17h-2a1 1 0 1 0 0 2h2a1 1 0 1 0 0-2zM14 23h-2a1 1 0 1 0 0 2h2a1 1 0 1 0 0-2zM46 19h2a1 1 0 1 0 0-2h-2a1 1 0 1 0 0 2zM48 23h-2a1 1 0 1 0 0 2h2a1 1 0 1 0 0-2zM24 18a.997.997 0 0 0 .707-.293l10-10a.999.999 0 1 0-1.414-1.414l-10 10A.999.999 0 0 0 24 18zM24.5 13a.997.997 0 0 0 .707-.293l4.5-4.5a.999.999 0 1 0-1.414-1.414l-4.5 4.5A.999.999 0 0 0 24.5 13zM32.293 12.293l-3 3a.999.999 0 1 0 1.414 1.414l3-3a.999.999 0 1 0-1.414-1.414zM27.29 17.29c-.181.189-.29.45-.29.71 0 .27.109.52.29.7.189.19.439.3.71.3.26 0 .52-.11.71-.29.18-.19.29-.45.29-.71s-.101-.521-.29-.71c-.38-.37-1.05-.37-1.42 0z"/></svg><svg width="61" height="61" fill="#c0b495" viewBox="0 0 512.001 512.001" id="hair-dryer" y="519"><path d="M196 355.94v-96.776c86.219-16.424 224.698-50.577 250.551-56.998l50.532 28.543a9.999 9.999 0 0 0 14.918-8.707V45.997a10.001 10.001 0 0 0-14.918-8.707l-50.531 28.543a8422.606 8422.606 0 0 0-97.982-23.678c-5.374-1.266-10.759 2.069-12.024 7.445-1.265 5.376 2.069 10.759 7.445 12.023a8481.94 8481.94 0 0 1 94.01 22.694v99.358C394.314 194.469 175.542 248 134 248c-30.761 0-59.596-12.066-81.193-33.977-21.592-21.905-33.239-50.923-32.795-81.708C20.9 70.734 71.737 20.35 133.337 20.002l.256-.001c11.763 0 45.798 4.49 140.842 25.662 5.39 1.2 10.734-2.195 11.935-7.587 1.201-5.391-2.196-10.733-7.586-11.935C200.912 8.795 152.054.001 133.548.001l-.324.001C98.097.201 64.91 14.028 39.777 38.934 14.642 63.844.52 96.905.014 132.026c-.521 36.182 13.169 70.288 38.549 96.037 9.96 10.104 21.234 18.418 33.437 24.803V355.94c0 30.782 22.553 56.384 52 61.181v24.786c0 16.56 13.472 30.031 30.031 30.031H481.97c5.531 0 10.031 4.5 10.031 10.031S487.501 492 481.97 492H256.128c-5.523 0-10 4.478-10 10s4.477 10 10 10H481.97c16.559 0 30.031-13.472 30.031-30.031s-13.472-30.031-30.031-30.031H154.031c-5.531 0-10.031-4.5-10.031-10.031v-24.786c29.448-4.797 52-30.399 52-61.181zM458.001 82.336l34-19.205v141.737l-34-19.205V82.336zM134 397.939c-23.159 0-42-18.841-42-41.999v-94.619c13.368 4.393 27.501 6.679 42 6.679 8.447 0 23.257-1.953 42-5.19v93.13c0 23.158-18.841 41.999-42 41.999z"/><path d="M151.501 274.089h-35.002c-5.523 0-10 4.478-10 10s4.477 10 10 10h35.002c5.523 0 10-4.478 10-10s-4.477-10-10-10zM151.501 325.001h-35.002c-5.523 0-10 4.478-10 10s4.477 10 10 10h35.002c5.523 0 10-4.478 10-10s-4.477-10-10-10zM134 65.321c-37.869 0-68.679 30.809-68.679 68.679 0 37.869 30.809 68.678 68.679 68.678 37.869 0 68.678-30.809 68.678-68.678S171.869 65.321 134 65.321zm0 117.357c-26.841 0-48.679-21.838-48.679-48.678 0-26.842 21.837-48.679 48.679-48.679 26.842 0 48.678 21.837 48.678 48.679 0 26.841-21.837 48.678-48.678 48.678zM221.071 494.931a10.076 10.076 0 0 0-7.07-2.93c-2.63 0-5.21 1.069-7.07 2.93-1.86 1.86-2.93 4.44-2.93 7.07s1.07 5.21 2.93 7.069c1.86 1.86 4.44 2.931 7.07 2.931s5.21-1.07 7.07-2.931c1.86-1.859 2.93-4.439 2.93-7.069s-1.07-5.21-2.93-7.07zM314.36 34.199l-.024-.005a1.825 1.825 0 0 0-.079-.019l-.08-.019-.023-.005c-6.139-1.35-10.928 2.733-12.022 7.496-1.094 4.762 1.43 10.529 7.543 11.995l.022.006.078.018.021.005.078.018.022.005c.807.177 1.589.26 2.344.26 4.989 0 8.726-3.63 9.672-7.768 1.09-4.763-1.439-10.526-7.552-11.987z"/></svg><svg width="20" height="17" fill="#fff" viewBox="0 0 451.084 394.929" id="icon_bell" y="580"><path fill-rule="evenodd" clip-rule="evenodd" d="M0 340.614c4.453-.693 9.064-.868 13.329-2.176 13.031-3.997 20.693-13.39 24.618-26.089.506-1.639 1.135-2.115 2.799-2.114 124.166.038 248.331.035 372.497.035h1.874c.652 2.537 1.15 5.01 1.924 7.393 4.234 13.049 13.234 19.787 26.922 20.28 2.375.085 4.748.244 7.122.369v47.41c-.941 4.707-3.298 8.14-8.285 9.206H10.128c-4.953-1.185-8.323-4.02-9.542-9.116-.157-.652-.388-1.288-.584-1.931C0 369.459 0 355.036 0 340.614zM265.127 0c8.714 3.756 12.157 11.552 14.599 19.799 3.705 12.512-.624 23.187-8.619 32.707-2.379 2.834-5.617 4.146-9.41 3.975-2.221-.1-4.46.125-6.669-.058-2.228-.184-3.735.69-5.161 2.303-3.551 4.016-6.966 8.208-10.915 11.801-7.45 6.778-14.341 6.766-21.857-.013-3.793-3.422-7.088-7.416-10.449-11.29-1.676-1.933-3.405-3.068-6.097-2.812-2.508.239-5.059-.007-7.588.065-3.432.098-6.339-1.088-8.666-3.545-8.321-8.787-14.884-24.245-6.313-40.523 2.76-5.243 5.962-9.97 11.658-12.408L265.127 0zM38.367 281.98c.436-6.527.664-12.882 1.316-19.191 2.417-23.374 8.394-45.79 18.98-66.825 21.373-42.463 54.591-71.86 98.963-88.607 26.322-9.934 53.661-13.614 81.728-12.118 30.639 1.634 59.582 9.372 86.228 24.712 43.639 25.122 71.617 62.422 84.958 110.822 4.399 15.958 6.545 32.271 6.95 48.813.019.751.002 1.503.002 2.394H38.367zm158.068-159.761c-2.477.293-4.738.327-6.874.861-4.375 1.093-8.783 2.188-13.003 3.753-16.185 6-30.489 15.333-44.194 25.621-11.676 8.765-22.859 18.103-31.861 29.742-3.72 4.811-7.002 9.884-8.63 15.847-1.42 5.204-.789 9.966 2.708 14.285 1.327 1.639 2.385 1.722 4.18.699 18.24-10.397 36.48-20.794 54.819-31.013 15.381-8.571 30.901-16.892 46.339-25.361 1.74-.954 3.454-2.017 4.995-3.258 5.952-4.793 8.574-10.937 6.764-18.519-1.264-5.296-3.371-10.165-9.363-11.721-1.982-.514-4.063-.657-5.88-.936z"/></svg><svg width="17" height="17" fill="#fff" viewBox="0 0 402.244 402.393" id="icon_phone" y="597"><path fill-rule="evenodd" clip-rule="evenodd" d="M311.459 402.392c-21.799.063-36.139-3.575-50.165-8.496-13.651-4.788-27.197-9.886-40.72-15.034-24.321-9.256-46.342-22.599-66.861-38.449-33.389-25.79-62.724-55.647-89.322-88.382-28.516-35.096-44.566-76.139-58.281-118.413-4.136-12.75-6.643-25.792-6.015-39.283C1.506 64.006 14.112 38.51 34.331 16.521c3.151-3.428 7.535-6.567 11.929-7.845 11.603-3.373 23.489-5.817 35.333-8.3 7.261-1.522 12.564 1.654 16.111 8.051 5.729 10.333 11.372 20.716 17.308 30.929 8.191 14.091 16.62 28.044 24.952 42.053.851 1.431 1.771 2.821 2.597 4.265 5.427 9.489 5.228 15.033-2.282 23.008-6.026 6.401-12.859 12.05-19.426 17.932-6.817 6.104-13.854 11.966-20.591 18.157-5.815 5.342-7.583 11.977-3.398 18.916 11.074 18.36 21.607 37.144 34.007 54.585 21.437 30.151 49.433 53.449 81.158 72.274 9.001 5.341 18.215 10.336 27.439 15.288 6.404 3.438 12.414 2.165 17.281-2.977 6.286-6.642 12.211-13.624 18.304-20.449 5.762-6.453 11.171-13.276 17.395-19.249 9.206-8.835 14.88-8.968 25.908-2.446 19.901 11.768 39.882 23.405 59.835 35.086 6.026 3.528 12.129 6.929 18.094 10.561 4.351 2.648 6.213 6.612 5.933 11.808-.761 14.112-3.883 27.687-9.529 40.587-1.558 3.557-4.156 6.954-7.042 9.587-22.923 20.91-49.561 33.205-74.188 34.05z"/></svg><svg width="33" height="33" fill="#fff" viewBox="0 0 512 512" id="insta" y="624"><path d="M363.273 0H148.728C66.719 0 0 66.719 0 148.728v214.544C0 445.281 66.719 512 148.728 512h214.544C445.281 512 512 445.281 512 363.273V148.728C512 66.719 445.281 0 363.273 0zM472 363.272C472 423.225 423.225 472 363.273 472H148.728C88.775 472 40 423.225 40 363.273V148.728C40 88.775 88.775 40 148.728 40h214.544C423.225 40 472 88.775 472 148.728v214.544z"/><path d="M256 118c-76.094 0-138 61.906-138 138s61.906 138 138 138 138-61.906 138-138-61.906-138-138-138zm0 236c-54.037 0-98-43.963-98-98s43.963-98 98-98 98 43.963 98 98-43.963 98-98 98z"/><circle cx="396" cy="116" r="20"/></svg><svg width="51" height="61" fill="#c0b495" viewBox="0 0 374.683 374.683" id="kettle" y="660"><path d="M114.171 39.363c6.186-7.718 8.605-19.703 5.885-29.146a8 8 0 0 1 15.375-4.429c4.137 14.358.61 31.872-8.775 43.582-8.549 10.666-10.773 29.438-.955 38.598a8.002 8.002 0 0 1-5.459 13.85 7.974 7.974 0 0 1-5.455-2.15c-16.756-15.631-13.846-43.801-.616-60.305zm52.587 9.289h52.614a8 8 0 0 0 0-16h-52.614a8 8 0 0 0 0 16zm178.393 76.59v64.043c0 31.985-23.992 58.473-54.923 62.417v71.449h7.983a8 8 0 0 1 8 8v35.533a8 8 0 0 1-8 8H37.532a8 8 0 0 1-8-8V331.15a8 8 0 0 1 8-8h6.645c-3.144-68.99 3.646-146.513 30.931-172.255l-44.04-60.378a8.003 8.003 0 0 1-1.536-4.714V70.319a8 8 0 0 1 8-8l33.116.001c1.454-8.455 4.986-16.55 10.122-22.957 6.186-7.718 8.605-19.703 5.883-29.145a8.001 8.001 0 0 1 15.374-4.432c4.14 14.357.613 31.872-8.772 43.583-4.34 5.414-7.05 12.919-7.381 20.194a8.22 8.22 0 0 1-.033 1.806c.062 6.403 2.041 12.475 6.46 16.599a8 8 0 0 1-10.916 11.698c-5.813-5.425-9.559-12.821-10.912-21.346h-24.94v4.876l47.088 64.559a7.985 7.985 0 0 1 1.419 6.575l-.001.001-.003.013a7.982 7.982 0 0 1-4.1 5.325c-9.802 5.37-18.531 24.51-23.961 52.55-5.794 29.92-7.786 68.223-5.781 110.933h214.035v-78.943a8 8 0 0 1 8-8c25.873 0 46.923-21.049 46.923-46.922v-64.043c0-25.874-21.05-46.923-46.923-46.923h-54.855v173.195c0 13.96-11.359 25.318-25.321 25.318-13.964 0-25.32-11.358-25.32-25.318V102.008a8 8 0 0 1 16 0v149.506c0 5.138 4.18 9.318 9.316 9.318 5.144 0 9.325-4.18 9.325-9.318V78.319l-69.066.001v-16l139.922-.001c34.693 0 62.921 28.227 62.921 62.923zM290.212 339.15H45.532v19.533h244.68V339.15zm-7.984-133.415a8 8 0 0 0 8-8V116.79a8 8 0 0 0-16 0v80.945a8 8 0 0 0 8 8z"/></svg><svg width="13" height="19" viewBox="0 0 430.114 430.114" id="marker" y="721"><path fill="#fff" d="M356.208 107.051c-1.531-5.738-4.64-11.852-6.939-17.205C321.747 23.704 261.612 0 213.055 0 148.054 0 76.463 43.586 66.905 133.427v18.355c0 .766.264 7.646.639 11.089 5.358 42.816 39.143 88.32 64.375 131.135 27.146 45.873 55.314 91 83.221 136.107 17.208-29.438 34.354-59.26 51.17-87.934 4.583-8.416 9.903-16.824 14.491-24.857 3.058-5.348 8.9-10.695 11.568-15.672 27.145-49.699 70.838-99.782 70.838-149.104v-20.262c.002-5.346-6.626-24.08-6.999-25.233zm-141.963 92.142c-19.107 0-40.021-9.554-50.344-35.939-1.538-4.2-1.414-12.617-1.414-13.388v-11.852c0-33.636 28.56-48.932 53.406-48.932 30.588 0 54.244 24.472 54.244 55.06 0 30.587-25.304 55.051-55.892 55.051z"/></svg><svg width="40" height="36" fill="#fff" viewBox="0 0 363 363" id="question" y="740"><path d="M277.73 94.123c0 10.997-8.006 17.685-13.852 22.593-2.214 1.859-6.335 5.251-6.324 6.518.04 4.97-3.956 8.939-8.927 8.939h-.075c-4.936 0-8.958-3.847-8.998-8.792-.079-9.747 7.034-15.584 12.75-20.383 4.485-3.766 7.426-6.416 7.426-8.841 0-4.909-3.994-8.903-8.903-8.903-4.911 0-8.906 3.994-8.906 8.903 0 4.971-4.029 9-9 9s-9-4.029-9-9c0-14.834 12.069-26.903 26.904-26.903 14.836-.001 26.905 12.034 26.905 26.869zm-28.929 46.358c-4.971 0-8.801 4.029-8.801 9v.069c0 4.971 3.831 8.966 8.801 8.966s9-4.064 9-9.035-4.029-9-9-9zM67.392 203.174c-4.971 0-9 4.029-9 9s4.029 9 9 9h.75c4.971 0 9-4.029 9-9s-4.029-9-9-9h-.75zm31.279 0c-4.971 0-9 4.029-9 9s4.029 9 9 9h.749c4.971 0 9-4.029 9-9s-4.029-9-9-9h-.749zM363 59.425v101.301c0 23.985-19.232 43.448-43.217 43.448H203.066c-2.282 0-4.161-.013-5.733-.046-1.647-.034-3.501-.047-4.224.033-.753.5-2.599 2.191-4.378 3.83-.705.649-1.503 1.363-2.364 2.149l-33.022 30.098c-2.634 2.403-6.531 3.025-9.793 1.587-3.262-1.439-5.552-4.669-5.552-8.234v-95.417H43.72c-14.062 0-25.72 11.523-25.72 25.583v101.301c0 14.061 11.659 25.116 25.72 25.116h130.374c2.245 0 4.345 1.031 6.003 2.545L207 317.523v-85.539c0-4.971 4.029-9 9-9s9 4.029 9 9v105.938c0 3.565-2.04 6.747-5.303 8.186-1.167.515-2.339.718-3.566.718-2.204 0-4.378-.905-6.069-2.449l-39.457-36.204H43.72c-23.986 0-43.72-19.13-43.72-43.116v-101.3c0-23.985 19.734-43.583 43.72-43.583H138V59.425c0-23.986 19.885-43.251 43.871-43.251h137.913c23.984 0 43.216 19.265 43.216 43.251zm-18 0c0-14.061-11.157-25.251-25.217-25.251H181.871C167.81 34.174 156 45.364 156 59.425v153.767l18.095-16.353c.838-.765 1.777-1.465 2.462-2.097 8.263-7.614 10.377-8.831 21.155-8.609 1.47.031 3.221.042 5.354.042h116.717c14.06 0 25.217-11.388 25.217-25.448V59.425z"/></svg><svg width="35" height="27" fill="#fff" viewBox="12 24 104 80" id="quote" y="776"><path d="M84 72h3.391c-2.578 4.473-5.805 9.02-8.522 12.219-4.289 5.047-3.688 12.617 1.358 16.91A11.939 11.939 0 0 0 88 104c3.391 0 6.75-1.426 9.125-4.207C100.28 96.102 116 80 116 60V40c0-8.836-7.164-16-16-16H84c-8.836 0-16 7.164-16 16v16c0 8.836 7.164 16 16 16zm-8-32c0-4.41 3.586-8 8-8h16c4.405 0 8 3.59 8 8v20c0 15.449-12 28.988-15.938 33.438l-1.022 1.16A3.956 3.956 0 0 1 88 96a3.968 3.968 0 0 1-2.595-.965 4 4 0 0 1-.438-5.637c3.172-3.738 6.672-8.746 9.352-13.402a7.971 7.971 0 0 0-.008-8A7.976 7.976 0 0 0 87.391 64H84c-4.414 0-8-3.59-8-8V40zM28 72h3.391c-2.578 4.473-5.805 9.02-8.522 12.219-4.289 5.047-3.688 12.617 1.358 16.91A11.948 11.948 0 0 0 32.008 104c3.383 0 6.75-1.426 9.117-4.207C44.281 96.102 60 80 60 60V40c0-8.836-7.164-16-16-16H28c-8.836 0-16 7.164-16 16v16c0 8.836 7.164 16 16 16zm-8-32c0-4.41 3.586-8 8-8h16c4.414 0 8 3.59 8 8v20c0 15.461-12 29-15.945 33.445l-1.016 1.156A3.944 3.944 0 0 1 32.008 96a4.008 4.008 0 0 1-3.047-6.602c3.18-3.738 6.68-8.746 9.359-13.402A7.995 7.995 0 0 0 31.391 64H28c-4.414 0-8-3.59-8-8V40z"/></svg><svg width="41" height="61" fill="#c0b495" viewBox="0 0 490 490" id="refrigerator" y="803"><path d="M385 0H105C93.972 0 85 8.972 85 20v450c0 11.028 8.972 20 20 20h280c11.028 0 20-8.972 20-20V20c0-11.028-8.972-20-20-20zM105 20h280v175H105V20zm0 450V250h220v-20H105v-15h280l.001 255H105z"/><path d="M335 295h-20v20h10v30h-10v20h20c5.523 0 10-4.478 10-10v-50c0-5.522-4.477-10-10-10zM335 75h-20v20h10v30h-10v20h20c5.523 0 10-4.478 10-10V85c0-5.522-4.477-10-10-10zM120 130h30v20h-30zM120 160h50v20h-50z"/></svg><svg width="35" height="61" fill="#c0b495" viewBox="0 0 458.676 458.676" id="room_shower" y="864"><path d="M351.825 0H278.58c-45.391 0-82.388 36.523-83.206 81.722-26.405 3.63-48.713 21.499-57.946 46.587h-2.433c-5.523 0-10 4.477-10 10v30.584c0 5.523 4.477 10 10 10h140.682c5.523 0 10-4.477 10-10v-30.584c0-5.523-4.477-10-10-10h-2.433c-9.224-25.064-31.498-42.922-57.869-46.576C216.182 47.558 244.214 20 278.58 20h73.245c5.523 0 10-4.477 10-10s-4.477-10-10-10zm-86.149 158.894H144.995V148.31h120.682v10.584zm-14.32-30.585h-92.042c8.995-16.534 26.449-27.278 46.021-27.278s37.026 10.744 46.021 27.278zM146.925 199.802c-5.452-.874-10.584 2.831-11.462 8.283l-4.928 30.606c-.878 5.453 2.831 10.584 8.284 11.462.538.086 1.073.128 1.602.128 4.822 0 9.069-3.498 9.861-8.412l4.928-30.605c.876-5.452-2.833-10.584-8.285-11.462zM135.638 269.899c-5.451-.877-10.584 2.831-11.462 8.283l-4.928 30.606c-.878 5.453 2.831 10.584 8.284 11.462.538.086 1.073.128 1.602.128 4.822 0 9.069-3.498 9.861-8.412l4.928-30.605c.877-5.452-2.832-10.584-8.285-11.462zM124.351 339.996c-5.45-.876-10.584 2.831-11.462 8.284l-4.928 30.606c-.878 5.453 2.831 10.584 8.284 11.462.538.086 1.073.128 1.602.128 4.822 0 9.069-3.498 9.861-8.412l4.928-30.605c.877-5.453-2.832-10.585-8.285-11.463zM113.066 410.093c-5.455-.873-10.584 2.831-11.463 8.283l-4.623 28.708c-.878 5.453 2.831 10.585 8.283 11.463.539.086 1.074.128 1.602.128 4.822 0 9.069-3.498 9.861-8.412l4.623-28.708c.878-5.451-2.831-10.584-8.283-11.462zM178.261 341.485c-5.5-.289-10.225 3.936-10.521 9.45l-1.661 30.956c-.296 5.515 3.935 10.226 9.45 10.521.182.01.364.015.544.015 5.277 0 9.691-4.132 9.977-9.465l1.661-30.956c.296-5.514-3.935-10.225-9.45-10.521zM182.066 270.587c-5.499-.293-10.226 3.935-10.521 9.45l-1.661 30.956c-.296 5.515 3.935 10.226 9.45 10.521.182.01.364.015.544.015 5.277 0 9.691-4.132 9.977-9.465l1.661-30.956c.296-5.514-3.935-10.225-9.45-10.521zM174.455 412.383c-5.5-.298-10.226 3.935-10.521 9.45l-1.412 26.306c-.296 5.515 3.935 10.226 9.45 10.521.182.01.364.014.544.014 5.277 0 9.691-4.132 9.977-9.464l1.412-26.306c.297-5.514-3.934-10.225-9.45-10.521zM185.871 199.689c-5.518-.286-10.226 3.935-10.522 9.45l-1.662 30.956c-.296 5.515 3.935 10.226 9.45 10.522.183.01.364.014.545.014 5.277 0 9.69-4.132 9.977-9.464l1.662-30.956c.296-5.515-3.935-10.226-9.45-10.522zM234.598 392.427c.18 0 .363-.005.544-.015 5.515-.296 9.746-5.007 9.45-10.521l-1.661-30.956c-.296-5.515-5.005-9.742-10.521-9.45-5.515.296-9.746 5.007-9.45 10.521l1.661 30.956a10.001 10.001 0 0 0 9.977 9.465zM246.737 421.833c-.296-5.515-4.995-9.737-10.521-9.45-5.515.296-9.746 5.007-9.45 10.521l1.412 26.306c.287 5.333 4.7 9.464 9.977 9.464.18 0 .362-.004.544-.014 5.515-.296 9.746-5.007 9.45-10.521l-1.412-26.306zM226.988 250.63c.181 0 .362-.004.545-.014 5.515-.296 9.746-5.007 9.45-10.522l-1.662-30.956c-.296-5.515-5.001-9.742-10.522-9.45-5.515.296-9.746 5.007-9.45 10.522l1.662 30.956c.287 5.333 4.7 9.464 9.977 9.464zM230.793 321.529c.18 0 .362-.005.544-.015 5.515-.296 9.746-5.007 9.45-10.521l-1.661-30.956c-.296-5.515-5.001-9.748-10.521-9.45-5.515.296-9.746 5.007-9.45 10.521l1.661 30.956c.286 5.333 4.7 9.465 9.977 9.465zM294.426 390.348c5.453-.878 9.162-6.01 8.284-11.462l-4.928-30.606c-.878-5.453-6.01-9.162-11.462-8.284-5.453.878-9.162 6.01-8.284 11.463l4.928 30.605c.792 4.915 5.038 8.412 9.861 8.412a9.917 9.917 0 0 0 1.601-.128zM309.068 418.376c-.878-5.453-6.014-9.158-11.463-8.283-5.453.878-9.161 6.01-8.283 11.463l4.623 28.708c.792 4.915 5.038 8.412 9.861 8.412.528 0 1.064-.042 1.602-.128 5.453-.878 9.161-6.01 8.283-11.463l-4.623-28.709zM271.852 250.154c5.453-.878 9.162-6.01 8.284-11.462l-4.928-30.606c-.878-5.452-6.007-9.161-11.462-8.283-5.453.878-9.162 6.01-8.284 11.463l4.928 30.605c.792 4.915 5.038 8.412 9.861 8.412a10.262 10.262 0 0 0 1.601-.129zM283.139 320.251c5.453-.878 9.162-6.01 8.284-11.462l-4.928-30.606c-.878-5.452-6.008-9.161-11.462-8.283-5.453.878-9.162 6.01-8.284 11.463l4.928 30.605c.792 4.915 5.038 8.412 9.861 8.412a10.262 10.262 0 0 0 1.601-.129z"/></svg><svg width="62" height="45" fill="#c0b495" viewBox="0 0 54.908 54.908" id="room_wifi" y="925"><path d="M54.615 19.123C47.372 11.879 37.725 7.89 27.454 7.89S7.537 11.878.293 19.123a.999.999 0 1 0 1.414 1.414C8.573 13.67 17.717 9.889 27.454 9.889s18.881 3.781 25.747 10.647a.997.997 0 0 0 1.414 0 .998.998 0 0 0 0-1.413z"/><path d="M6.171 25a.999.999 0 1 0 1.414 1.414c10.955-10.956 28.781-10.956 39.737 0A.999.999 0 1 0 48.736 25C37.002 13.266 17.907 13.264 6.171 25z"/><path d="M27.454 24.508c-5.825 0-11.295 2.263-15.404 6.371a.999.999 0 1 0 1.414 1.414c3.731-3.73 8.699-5.785 13.99-5.785s10.259 2.055 13.99 5.785a.997.997 0 0 0 1.414 0 .999.999 0 0 0 0-1.414c-4.108-4.108-9.579-6.371-15.404-6.371zM27.454 33.916c-3.612 0-6.551 2.939-6.551 6.552s2.939 6.552 6.551 6.552c3.613 0 6.552-2.939 6.552-6.552s-2.939-6.552-6.552-6.552zm0 11.103c-2.51 0-4.551-2.042-4.551-4.552s2.042-4.552 4.551-4.552 4.552 2.042 4.552 4.552-2.042 4.552-4.552 4.552z"/></svg><svg width="28" height="28" fill="#c0b495" viewBox="0 0 512 512" id="shower" y="970"><circle cx="292.429" cy="491.54" r="19.961"/><circle cx="292.429" cy="421.676" r="19.961"/><circle cx="372.273" cy="491.54" r="19.961"/><circle cx="292.429" cy="349.817" r="19.961"/><circle cx="212.585" cy="491.54" r="19.961"/><circle cx="212.585" cy="421.676" r="19.961"/><circle cx="212.585" cy="349.817" r="19.961"/><circle cx="452.117" cy="349.817" r="19.961"/><circle cx="452.117" cy="421.676" r="19.961"/><path d="M490.087 206.201c-20.903-29.673-52.819-46.014-89.868-46.014h-50.591c-3.58-40.801-21.274-78.78-50.747-108.253C265.711 18.766 221.773.499 175.158.499S84.605 18.766 51.436 51.935C18.266 85.103 0 129.042 0 175.657v335.844h39.922V175.657c0-74.569 60.667-135.236 135.236-135.236 69.338 0 126.645 52.457 134.346 119.766h-49.012c-37.809 0-70.277 17.386-91.42 48.955-13.32 19.889-20.361 43.472-20.361 68.2v22.572H512V276.71c0-25.777-7.577-50.158-21.913-70.509zm-299.723 53.791c2.107-10.327 6.112-20.027 11.877-28.634 13.888-20.736 33.486-31.249 58.25-31.249h139.727c24.381 0 43.637 9.785 57.231 29.083 6.449 9.155 10.85 19.603 13.034 30.8H190.364z"/><circle cx="452.117" cy="491.54" r="19.961"/><circle cx="372.273" cy="421.676" r="19.961"/><circle cx="372.273" cy="349.817" r="19.961"/></svg><svg width="24" height="24" viewBox="0 0 32 32" id="small-calendar" y="998"><g fill="#d2bb24"><path d="M29.334 3H25V1a1 1 0 1 0-2 0v2h-6V1a1 1 0 1 0-2 0v2H9V1a1 1 0 1 0-2 0v2H2.667A2.666 2.666 0 0 0 0 5.666v23.667A2.667 2.667 0 0 0 2.667 32h26.667A2.666 2.666 0 0 0 32 29.333V5.666A2.665 2.665 0 0 0 29.334 3zM30 29.333a.667.667 0 0 1-.666.667H2.667A.667.667 0 0 1 2 29.333V5.666C2 5.299 2.299 5 2.667 5H7v2a1 1 0 1 0 2 0V5h6v2a1 1 0 1 0 2 0V5h6v2a1 1 0 1 0 2 0V5h4.334c.367 0 .666.299.666.666v23.667z"/><path d="M7 12h4v3H7zM7 17h4v3H7zM7 22h4v3H7zM14 22h4v3h-4zM14 17h4v3h-4zM14 12h4v3h-4zM21 22h4v3h-4zM21 17h4v3h-4zM21 12h4v3h-4z"/></g></svg><svg width="61" height="57" fill="#c0b495" viewBox="0 0 480.006 480.006" id="spa" y="1022"><path d="M472 380.002h-8.888c22.098-21.505 22.579-56.853 1.074-78.951a55.867 55.867 0 0 0-11.474-9.049 56 56 0 0 0 27.288-48c-.04-30.911-25.089-55.96-56-56h-72v-56a8 8 0 0 0-9.216-7.904L248 138.674v-7.472c18.611-3.827 31.976-20.199 32-39.2 0-34.912-32.936-68.256-34.344-69.656a8 8 0 0 0-11.312 0C232.936 23.746 200 57.09 200 92.002c.024 19.001 13.389 35.373 32 39.2v9.944l-97.216 14.96a8 8 0 0 0-6.784 7.896v89.128a87.534 87.534 0 0 0-20-16.048 8 8 0 0 0-8 0 88.391 88.391 0 0 0-43.2 64.688 86.835 86.835 0 0 0-16.8-1.768 87.314 87.314 0 0 0-10.56.688 8 8 0 0 0-6.4 4.8c-16.302 38.24-3.597 82.671 30.456 106.512H0v16h19.056l13.784 27.576a8.001 8.001 0 0 0 7.16 4.424h304a8 8 0 0 0 8-8v-24h51.056l13.784 27.576a8.001 8.001 0 0 0 7.16 4.424h32a8 8 0 0 0 8-8v-24h8a8 8 0 0 0 8-8v-32a8 8 0 0 0-8-8zm-8-40c-.026 22.08-17.92 39.974-40 40H280c-22.091 0-40-17.909-40-40s17.909-40 40-40h104c13.255 0 24 10.745 24 24s-10.745 24-24 24h-80a8 8 0 0 1 0-16h56v-16h-56c-13.255 0-24 10.745-24 24s10.745 24 24 24h80c22.08-.026 39.974-17.92 40-40a39.583 39.583 0 0 0-8.208-24H424c22.08.026 39.974 17.92 40 40zm-64-136c13.255 0 24 10.745 24 24s-10.745 24-24 24h-80a8 8 0 0 1 0-16h56v-16h-56c-13.255 0-24 10.745-24 24s10.745 24 24 24h80c22.08-.026 39.974-17.92 40-40a39.622 39.622 0 0 0-7.392-23.008c21.544 4.888 35.047 26.315 30.159 47.859-4.113 18.131-20.176 31.037-38.767 31.149H312c-22.091 0-40-17.909-40-40s17.909-40 40-40h88zm-184-112c0-20.456 15.4-41.728 24-52 8.608 10.264 24 31.496 24 52a24 24 0 0 1-16 22.528v-14.528h-16v14.528a24 24 0 0 1-16-22.528zM104 253.426a72.25 72.25 0 0 1 31.56 52.848 88.198 88.198 0 0 0-31.488 21.432 88.54 88.54 0 0 0-31.64-21.304A72.232 72.232 0 0 1 104 253.426zm40.13 66.646a72.027 72.027 0 0 1 23.87-4.07c1.256 0 2.568.048 3.936.136 13.18 37.517-6.549 78.614-44.066 91.794a72.03 72.03 0 0 1-23.87 4.07c-1.256 0-2.568-.048-3.936-.136-13.18-37.517 6.549-78.614 44.066-91.794zM32 340.002a71.57 71.57 0 0 1 4.064-23.864 61.478 61.478 0 0 1 3.936-.136 71.256 71.256 0 0 1 54.016 24.536 86.633 86.633 0 0 0-11.44 68.216C52.487 399.376 31.994 371.519 32 340.002zm131.056 104H44.944l-8-16h134.112l-8 16zm76.944 0h-59.056l8-16H208v-16h-53.56c34.091-23.808 46.828-68.253 30.52-106.504a8 8 0 0 0-6.4-4.8 84.309 84.309 0 0 0-27.336.96 87.62 87.62 0 0 0-7.736-25.656H144V170.866l192-29.536v46.672h-24c-30.888-.041-55.961 24.966-56.002 55.854a55.927 55.927 0 0 0 17.362 40.578c-30.667 3.618-52.593 31.412-48.975 62.079a55.906 55.906 0 0 0 16.503 33.489H232a8 8 0 0 0-8 8v32a8 8 0 0 0 8 8h8v16zm35.056 0H256v-16h27.056l-8 16zm60.944 0h-43.056l8-16H336v16zm112 0h-19.056l-8-16H448v16zm16-32H240v-16h224v16z"/><path d="M160 188.002h16v64h-16zM160 268.002h16v16h-16z"/></svg><svg width="61" height="61" fill="#c0b495" viewBox="0 0 496 496" id="suite" y="1079"><path d="M496 16V0H0v16h104v157.28a330.503 330.503 0 0 1-32 2.52v-9.272c9.288-3.312 16-12.112 16-22.528 0-13.232-10.768-24-24-24s-24 10.768-24 24c0 10.416 6.712 19.216 16 22.528v146.136C36.904 323.744 24 344.376 24 368c0 8.824 7.176 16 16 16h8v16h-8v64h17.752l7.992 32h60.496l7.992-32h227.512l7.992 32h60.496l7.992-32H456v-64h-8v-16h8c8.824 0 16-7.176 16-16 0-23.624-12.904-44.256-32-55.344V166.528c9.288-3.312 16-12.112 16-22.528 0-13.232-10.768-24-24-24s-24 10.768-24 24c0 10.416 6.712 19.216 16 22.528v9.272a330.503 330.503 0 0 1-32-2.52V16h104zM250.584 80l9.6 24h-24.376l9.608-24h5.168zM120 16h120v16h-72v33.472c-9.288 3.312-16 12.112-16 22.528 0 13.232 10.768 24 24 24s24-10.768 24-24c0-10.416-6.712-19.216-16-22.528V48h56v16h-5.416l-22.4 56h71.624l-22.4-56H256V48h56v17.472c-9.288 3.312-16 12.112-16 22.528 0 13.232 10.768 24 24 24s24-10.768 24-24c0-10.416-6.712-19.216-16-22.528V32h-72V16h120v154.904c-20.232-3.48-40.056-8.6-57.136-15-2.904-1.088-6.168-2.4-9.688-3.824C292.328 145.296 269.248 136 248 136s-44.328 9.296-61.176 16.08c-3.52 1.416-6.784 2.728-9.688 3.824-17.08 6.4-36.904 11.52-57.136 15V16zm64 72c0 4.408-3.584 8-8 8s-8-3.592-8-8 3.584-8 8-8 8 3.592 8 8zm136-8c4.416 0 8 3.592 8 8s-3.584 8-8 8-8-3.592-8-8 3.584-8 8-8zM64 136c4.416 0 8 3.592 8 8s-3.584 8-8 8-8-3.592-8-8 3.584-8 8-8zm49.752 344H78.248l-4.008-16h43.512l-4 16zm304 0h-35.504l-4.008-16h43.512l-4 16zM440 448H56v-32h344v-16H64v-24c0-13.232 10.768-24 24-24h320c13.232 0 24 10.768 24 24v24h-16v16h24v32zm-8-312c4.416 0 8 3.592 8 8s-3.584 8-8 8-8-3.592-8-8 3.584-8 8-8zm24 232h-8.808c-3.72-18.232-19.872-32-39.192-32H88c-19.312 0-35.472 13.768-39.192 32H40c0-26.472 21.528-48 48-48h320c26.472 0 48 21.528 48 48zm-344-64v-56c0-3.496 4.048-6 7.16-4.424l16.84 8.416 3.568-1.776c.144-.072 14.584-7.16 28.432-7.16s28.288 7.088 28.432 7.16l3.584 1.776 16.832-8.416c3.112-1.568 7.152.936 7.152 4.424v56H112zm160 0v-56c0-3.496 4.048-6 7.16-4.424l16.84 8.416 3.568-1.776c.144-.072 14.584-7.16 28.432-7.16s28.288 7.088 28.432 7.16l3.584 1.776 16.832-8.416c3.112-1.568 7.152.936 7.152 4.424v56H272zm152-112.2v114.312c-5.128-1.336-10.464-2.112-16-2.112h-8v-56c0-11.552-9.4-20.944-20.944-20.944-3.232 0-6.48.768-9.368 2.208l-9.872 4.936c-6.12-2.576-18.832-7.152-31.816-7.152s-25.696 4.576-31.816 7.152l-9.872-4.936a21.026 21.026 0 0 0-9.368-2.208C265.4 227.056 256 236.448 256 248v56h-16v-56c0-11.552-9.4-20.944-20.944-20.944-3.232 0-6.48.768-9.368 2.208l-9.872 4.936c-6.12-2.576-18.832-7.152-31.816-7.152-12.984 0-25.696 4.576-31.816 7.152l-9.872-4.936a21.026 21.026 0 0 0-9.368-2.208C105.4 227.056 96 236.448 96 248v56h-8c-5.536 0-10.872.776-16 2.104V191.8c36.696-1.008 78.36-8.768 110.744-20.912 3.024-1.136 6.4-2.496 10.056-3.968C208.432 160.624 229.848 152 248 152s39.568 8.624 55.2 14.92c3.656 1.472 7.032 2.832 10.056 3.968C345.64 183.024 387.304 190.792 424 191.8z"/></svg><svg width="69" height="59" fill="#c0b495" viewBox="0 0 464 464" id="swimming-pool" y="1140"><path d="M456 332c-16.126 0-24.544 4.811-31.972 9.054-6.523 3.728-12.157 6.946-24.034 6.946s-17.511-3.219-24.034-6.946c-7.428-4.243-15.846-9.054-31.972-9.054-16.124 0-24.542 4.811-31.968 9.054-6.522 3.728-12.155 6.946-24.03 6.946s-17.509-3.219-24.031-6.946c-7.427-4.243-15.844-9.054-31.969-9.054-16.124 0-24.542 4.811-31.968 9.054-6.522 3.727-12.154 6.946-24.029 6.946s-17.507-3.219-24.029-6.945c-7.426-4.244-15.844-9.055-31.968-9.055a69.52 69.52 0 0 0-8.296.472V292.2h72.2v24.4a8 8 0 0 0 16 0V132.2c0-27.96 14.391-52.611 36.146-66.97 22.627 14.917 36.054 39.756 36.054 66.97a8 8 0 0 0 16 0c0-29.657-13.295-56.956-36.076-75.117A79.807 79.807 0 0 1 280.1 52c44.223 0 80.2 35.978 80.2 80.2a8 8 0 0 0 16 0c0-53.045-43.155-96.2-96.2-96.2s-96.2 43.155-96.2 96.2v15.4h-72.2v-15.4c0-44.223 35.978-80.2 80.2-80.2 1.846 0 3.715.063 5.555.189a7.994 7.994 0 0 0 8.527-7.437 8 8 0 0 0-7.436-8.526A98.219 98.219 0 0 0 191.9 36c-53.045 0-96.2 43.155-96.2 96.2v204.777c-2.805 1.299-5.292 2.716-7.672 4.076C81.505 344.781 75.873 348 63.997 348c-11.875 0-17.507-3.219-24.029-6.946C32.542 336.811 24.124 332 8 332a8 8 0 0 0 0 16c11.875 0 17.507 3.219 24.029 6.946C39.456 359.189 47.873 364 63.997 364c16.125 0 24.542-4.811 31.969-9.054 6.522-3.728 12.155-6.946 24.03-6.946 11.875 0 17.507 3.219 24.029 6.946 7.426 4.243 15.844 9.054 31.967 9.054 16.124 0 24.542-4.811 31.968-9.054 6.522-3.728 12.155-6.946 24.029-6.946 11.875 0 17.509 3.219 24.031 6.946 7.427 4.243 15.844 9.054 31.969 9.054 16.124 0 24.542-4.811 31.968-9.054 6.522-3.728 12.155-6.946 24.03-6.946 11.877 0 17.511 3.219 24.034 6.946 7.428 4.243 15.846 9.054 31.972 9.054s24.544-4.811 31.972-9.054C438.489 351.219 444.123 348 456 348a8 8 0 0 0 0-16zm-344.3-55.8v-48.3h72.2v48.3h-72.2zm72.2-112.6v48.3h-72.2v-48.3h72.2zM399.994 380c-11.877 0-17.511-3.219-24.034-6.946-7.428-4.243-15.846-9.054-31.972-9.054-16.124 0-24.542 4.811-31.968 9.054-6.522 3.728-12.155 6.946-24.03 6.946-11.876 0-17.509-3.219-24.031-6.946-7.427-4.243-15.845-9.054-31.969-9.054s-24.541 4.811-31.968 9.054C193.5 376.781 187.868 380 175.993 380s-17.507-3.219-24.029-6.946c-7.426-4.243-15.844-9.054-31.968-9.054s-24.542 4.811-31.969 9.054C81.505 376.781 75.873 380 63.997 380a8 8 0 0 0 0 16c16.125 0 24.542-4.811 31.969-9.054 6.522-3.728 12.155-6.946 24.03-6.946 11.875 0 17.507 3.219 24.029 6.946 7.426 4.243 15.844 9.054 31.967 9.054 16.124 0 24.541-4.811 31.968-9.054 6.522-3.728 12.155-6.946 24.029-6.946 11.876 0 17.509 3.219 24.031 6.946 7.427 4.243 15.845 9.054 31.969 9.054s24.542-4.811 31.968-9.054c6.522-3.728 12.155-6.946 24.03-6.946 11.877 0 17.511 3.219 24.034 6.946 7.428 4.243 15.846 9.054 31.972 9.054a8 8 0 0 0 .001-16z"/><path d="M343.988 396c-16.124 0-24.542 4.811-31.968 9.054-6.522 3.728-12.155 6.946-24.03 6.946-11.876 0-17.509-3.219-24.031-6.946-7.427-4.243-15.845-9.054-31.969-9.054s-24.542 4.811-31.968 9.054C193.5 408.781 187.868 412 175.993 412s-17.507-3.219-24.029-6.945c-7.426-4.244-15.844-9.055-31.968-9.055a8 8 0 0 0 0 16c11.875 0 17.507 3.219 24.029 6.946 7.426 4.243 15.844 9.054 31.967 9.054 16.124 0 24.542-4.811 31.968-9.054 6.522-3.728 12.155-6.946 24.029-6.946 11.876 0 17.509 3.219 24.031 6.946 7.427 4.243 15.845 9.054 31.969 9.054s24.542-4.811 31.968-9.054c6.522-3.728 12.155-6.946 24.03-6.946a8 8 0 0 0 .001-16z"/></svg><svg width="66" height="60" fill="#c0b495" id="tea" y="1199"><path d="M14.887 17.958a4.57 4.57 0 0 0 1.35 3.255.997.997 0 0 0 1.414 0 .999.999 0 0 0 0-1.414 2.588 2.588 0 0 1-.764-1.841c0-.695.271-1.35.764-1.842.87-.87 1.35-2.026 1.35-3.256s-.479-2.386-1.35-3.256a.999.999 0 1 0-1.414 1.414c.492.493.763 1.148.763 1.843s-.271 1.35-.764 1.842a4.573 4.573 0 0 0-1.349 3.255zM36.887 17.958a4.57 4.57 0 0 0 1.35 3.255.997.997 0 0 0 1.414 0 .999.999 0 0 0 0-1.414 2.588 2.588 0 0 1-.764-1.841c0-.695.271-1.35.764-1.842.87-.87 1.35-2.026 1.35-3.256s-.479-2.386-1.35-3.256a.999.999 0 1 0-1.414 1.414c.492.493.763 1.148.763 1.843s-.271 1.35-.764 1.842a4.573 4.573 0 0 0-1.349 3.255zM25.459 14.077a5.81 5.81 0 0 0 1.715 4.137.997.997 0 0 0 1.415 0 1 1 0 0 0 0-1.414 3.824 3.824 0 0 1-1.129-2.723 3.83 3.83 0 0 1 1.129-2.724c1.106-1.105 1.715-2.574 1.715-4.137s-.609-3.031-1.715-4.138a.999.999 0 1 0-1.414 1.414 3.828 3.828 0 0 1 1.129 2.724 3.83 3.83 0 0 1-1.129 2.723 5.81 5.81 0 0 0-1.716 4.138zM46.947 41.775c.019.001.034.011.053.011 7.411 0 13-5.159 13-12a1 1 0 0 0-1-1h-9.044a46.92 46.92 0 0 0 .044-2 1 1 0 0 0-1-1H22v-1a1 1 0 1 0-2 0v1H7a1 1 0 0 0-1 1c0 9.706 2.943 17.381 8.351 22H1a1 1 0 0 0-1 1c0 1.515 7.166 4.159 7.238 4.186 4.115 1.479 11.058 3.243 20.762 3.243 18.583 0 27.242-6.359 27.602-6.63a1 1 0 0 0-.601-1.799H41.649c2.179-1.861 3.951-4.225 5.298-7.011zm11.006-10.989c-.477 5.025-4.546 8.638-10.122 8.968 1.024-2.673 1.694-5.679 1.992-8.968h8.13zM28 55.214c-11.822 0-19.403-2.605-23.258-4.429H51.15c-3.959 1.84-11.586 4.429-23.15 4.429zm-10.28-6.428c-6.066-3.781-9.492-11.202-9.709-21H20v2h-2a1 1 0 0 0-1 1v7.5a1 1 0 0 0 1 1h6a1 1 0 0 0 1-1v-7.5a1 1 0 0 0-1-1h-2v-2h25.989c-.217 9.798-3.643 17.219-9.709 21H17.72zm5.28-17v5.5h-4v-5.5h4z"/></svg><svg width="62" height="58" fill="#c0b495" viewBox="0 0 100 125" id="tree" y="1259"><path d="M89.74 71.503a1.98 1.98 0 0 0-.666 1.623c.015.216.022.418.022.616 0 5.538-5.155 10.044-11.492 10.044-5.116 0-9.591-2.971-11.02-7.187 2.469-3.118 3.817-6.895 3.817-10.75v-.188a30.175 30.175 0 0 0 9.521-22.008c0-4.261-.9-8.47-2.624-12.329l.306-.003c6.337 0 11.492 4.506 11.492 10.045 0 .198-.007.4-.022.616a1.98 1.98 0 0 0 .666 1.623 18.58 18.58 0 0 1 6.3 13.949 18.581 18.581 0 0 1-6.3 13.949m-37.882 8.746V72.61l11.148-8.064a1.982 1.982 0 0 0 .447-2.757 1.958 1.958 0 0 0-2.743-.449l-8.852 6.404v-16.66l7.326-5.3a1.981 1.981 0 0 0 .447-2.757 1.958 1.958 0 0 0-2.742-.45l-5.03 3.64V35.922a1.97 1.97 0 0 0-1.965-1.975 1.97 1.97 0 0 0-1.965 1.975v21.864l-8.706-6.298a1.958 1.958 0 0 0-2.742.449 1.981 1.981 0 0 0 .447 2.756l11.001 7.96v17.596c-4.256-.447-8.02-2.324-10.648-5.07a1.96 1.96 0 0 0-.263-.375c-2.303-2.578-3.52-5.674-3.52-8.955 0-.288.01-.58.031-.895a1.98 1.98 0 0 0-.666-1.623 26.213 26.213 0 0 1-8.887-19.678c0-4.55 1.181-9.03 3.416-12.957.085-.15.148-.308.19-.472a26.14 26.14 0 0 1 5.19-6.25 1.98 1.98 0 0 0 .666-1.622 12.845 12.845 0 0 1-.032-.896c0-7.999 7.396-14.506 16.488-14.506 9.09 0 16.487 6.507 16.487 14.506 0 .288-.01.581-.032.896a1.98 1.98 0 0 0 .666 1.623 26.213 26.213 0 0 1 8.887 19.678c0 7.536-3.24 14.708-8.887 19.678a1.98 1.98 0 0 0-.666 1.623c.022.314.032.607.032.895 0 7.414-6.355 13.542-14.523 14.4m-29.493 3.537c-6.337 0-11.492-4.506-11.492-10.044 0-.198.007-.4.022-.616a1.98 1.98 0 0 0-.666-1.623 18.58 18.58 0 0 1-6.3-13.95 18.58 18.58 0 0 1 6.3-13.948 1.98 1.98 0 0 0 .666-1.623 8.754 8.754 0 0 1-.022-.616c0-5.539 5.155-10.045 11.492-10.045.075 0 .149.001.223.003a30.2 30.2 0 0 0-2.632 12.329 30.174 30.174 0 0 0 9.522 22.008l-.001.188c0 4.037 1.442 7.774 3.884 10.816-1.453 4.18-5.907 7.121-10.996 7.121m70.66-42.513c-.055-7.674-6.952-13.902-15.421-13.902-.813 0-1.625.06-2.426.174a30.08 30.08 0 0 0-4.869-5.9l.001-.189C70.31 11.28 61.151 3 49.894 3c-11.258 0-20.417 8.28-20.417 18.456l.001.189a30.071 30.071 0 0 0-4.854 5.877c-.747-.1-1.502-.15-2.259-.15-8.47 0-15.366 6.227-15.421 13.901A22.542 22.542 0 0 0 0 57.553c0 6.165 2.52 12.045 6.944 16.282.05 7.07 5.911 12.909 13.457 13.784v7.385c0 1.09.88 1.975 1.964 1.975a1.97 1.97 0 0 0 1.965-1.975v-7.383c5.261-.617 9.803-3.674 12.017-7.977 3.147 2.528 7.16 4.192 11.582 4.576v10.784c0 1.09.88 1.975 1.965 1.975a1.97 1.97 0 0 0 1.964-1.975V84.22c4.482-.39 8.545-2.092 11.71-4.678 2.195 4.357 6.768 7.457 12.071 8.079v7.383c0 1.09.88 1.975 1.965 1.975a1.97 1.97 0 0 0 1.964-1.975V87.62c7.546-.875 13.406-6.714 13.457-13.784a22.545 22.545 0 0 0 6.944-16.281c0-6.164-2.52-12.044-6.944-16.281" fill="#c0b495" fill-rule="evenodd"/></svg><svg width="61" height="55" fill="#c0b495" viewBox="0 0 512 512" id="tv" y="1317"><path d="M177.74 29.93a10.076 10.076 0 0 0-7.07-2.93c-2.64 0-5.21 1.07-7.07 2.93-1.86 1.86-2.93 4.44-2.93 7.07s1.07 5.21 2.93 7.07c1.86 1.86 4.43 2.93 7.07 2.93 2.63 0 5.21-1.07 7.07-2.93 1.86-1.86 2.93-4.44 2.93-7.07s-1.07-5.21-2.93-7.07z"/><path d="M502 27H213.333c-5.523 0-10 4.477-10 10s4.477 10 10 10H492v81.851L309.594 311.255c-3.905 3.905-3.905 10.237 0 14.143 1.953 1.952 4.512 2.929 7.071 2.929s5.119-.977 7.071-2.929L492 157.135V371H20V47h107c5.523 0 10-4.477 10-10s-4.477-10-10-10H10C4.477 27 0 31.477 0 37v344c0 5.523 4.477 10 10 10h172v34h-58c-5.523 0-10 4.477-10 10v30H57.154c-5.523 0-10 4.477-10 10s4.477 10 10 10h361.889c5.523 0 10-4.477 10-10s-4.477-10-10-10H398v-30c0-5.523-4.477-10-10-10h-58v-34h172c5.523 0 10-4.477 10-10V37c0-5.523-4.477-10-10-10zM202 391h108v34H202v-34zm176 54v20H134v-20h244z"/><path d="M177.359 114.92c-3.905-3.906-10.236-3.904-14.143 0L74.71 203.426c-3.905 3.905-3.905 10.237 0 14.143 1.953 1.953 4.512 2.929 7.071 2.929s5.119-.977 7.071-2.929l88.507-88.506c3.905-3.906 3.906-10.238 0-14.143zM60.61 231.67c-1.86-1.86-4.44-2.93-7.07-2.93s-5.21 1.07-7.07 2.93a10.058 10.058 0 0 0-2.93 7.07c0 2.63 1.07 5.21 2.93 7.07 1.86 1.86 4.44 2.93 7.07 2.93s5.21-1.07 7.07-2.93c1.86-1.86 2.93-4.44 2.93-7.07s-1.07-5.21-2.93-7.07zM461.92 467.93a10.076 10.076 0 0 0-7.07-2.93c-2.64 0-5.21 1.07-7.07 2.93-1.87 1.86-2.93 4.44-2.93 7.07s1.06 5.21 2.93 7.07a10.04 10.04 0 0 0 7.07 2.93c2.63 0 5.21-1.07 7.07-2.93 1.86-1.86 2.93-4.44 2.93-7.07s-1.07-5.21-2.93-7.07zM235.704 161.994h-56c-5.523 0-10 4.477-10 10s4.477 10 10 10h18V256c0 5.523 4.477 10 10 10s10-4.477 10-10v-74.006h18c5.523 0 10-4.477 10-10s-4.477-10-10-10zM335.458 162.507c-5.239-1.745-10.903 1.084-12.649 6.325l-18.513 55.543-18.513-55.543c-1.746-5.239-7.411-8.07-12.649-6.325-5.239 1.746-8.071 7.409-6.325 12.649l28 84.006a10 10 0 0 0 18.974 0l28-84.006c1.747-5.24-1.085-10.903-6.325-12.649z"/></svg><svg width="33" height="27" fill="#c0b495" viewBox="0 0 470.149 470.149" id="wifi" y="1372"><path d="M202.775 383.825c0 17.567 14.167 31.733 31.733 31.733s31.733-14.167 31.733-31.733c0-17.567-14.167-31.733-31.733-31.733-17.283-.001-31.733 14.166-31.733 31.733zm34 0c0 1.133-.85 2.267-2.267 2.267-1.133 0-2.267-.85-2.267-2.267 0-1.133.85-2.267 2.267-2.267 1.417.283 2.267 1.133 2.267 2.267zM373.625 243.008c4.533 0 9.067-1.983 12.467-5.383 6.233-6.8 5.95-17.567-1.133-24.083-41.083-37.683-94.35-58.65-150.45-58.65-55.25 0-108.233 20.4-149.033 57.517-7.083 6.233-7.367 17-1.133 24.083 6.233 7.083 17 7.367 24.083 1.133 34.567-31.45 79.617-48.733 126.367-48.733 47.317 0 92.65 17.567 127.217 49.583 3.398 3.116 7.365 4.533 11.615 4.533zM310.158 319.225c4.533 0 9.067-1.983 12.467-5.383 6.233-6.8 5.95-17.567-1.133-24.083-23.8-21.817-54.683-34-86.7-34s-62.617 11.9-86.133 33.15c-7.083 6.233-7.367 17-1.133 24.083 6.233 7.083 17 7.367 24.083 1.133 17.283-15.867 39.95-24.367 63.183-24.367 23.8 0 46.467 8.783 63.75 24.933a17.227 17.227 0 0 0 11.616 4.534z"/><path d="M453.241 173.875c4.533 0 9.067-1.983 12.467-5.383 6.233-6.8 5.95-17.567-1.133-24.083-62.9-58.083-144.783-89.817-230.35-89.817-84.717 0-166.033 31.45-228.65 88.117-7.083 6.233-7.367 17-1.133 24.083s17 7.367 24.083 1.133c56.383-51.283 129.483-79.333 205.7-79.333 77.067 0 150.733 28.617 207.4 80.75 3.4 2.833 7.65 4.533 11.616 4.533z"/></svg></svg>
