<?xml version="1.0" encoding="utf-8"?>
<!-- Generator: Adobe Illustrator 16.0.0, SVG Export Plug-In . SVG Version: 6.00 Build 0)  -->
<!DOCTYPE svg PUBLIC "-//W3C//DTD SVG 1.1//EN" "http://www.w3.org/Graphics/SVG/1.1/DTD/svg11.dtd">
<svg version="1.1" id="Слой_1" xmlns="http://www.w3.org/2000/svg" xmlns:xlink="http://www.w3.org/1999/xlink" x="0px" y="0px"
	 width="415px" height="111.916px" viewBox="0 166.646 415 111.916" enable-background="new 0 166.646 415 111.916"
	 xml:space="preserve">
<text transform="matrix(1 0 0 1 78.8828 278.5613)" fill="#F8F5E7" font-family="'ArialMT'" font-size="26.3163">С</text>
<text transform="matrix(1 0 0 1 105.6465 278.5613)" fill="#F8F5E7" font-family="'ArialMT'" font-size="26.3163" letter-spacing="9">АН</text>
<text transform="matrix(1 0 0 1 158.9106 278.5613)" fill="#F8F5E7" font-family="'ArialMT'" font-size="26.3163" letter-spacing="8">А</text>
<text transform="matrix(1 0 0 1 184.9893 278.5613)" fill="#F8F5E7" font-family="'ArialMT'" font-size="26.3163" letter-spacing="9">ТО</text>
<text transform="matrix(1 0 0 1 236.2012 278.5613)" fill="#F8F5E7" font-family="'ArialMT'" font-size="26.3163" letter-spacing="8">Р</text>
<text transform="matrix(1 0 0 1 260.1738 278.5613)" fill="#F8F5E7" font-family="'ArialMT'" font-size="26.3163" letter-spacing="9">И</text>
<text transform="matrix(1 0 0 1 287.4922 278.5613)" fill="#F8F5E7" font-family="'ArialMT'" font-size="26.3163">Й</text>
<path fill="#F8F5E7" d="M20.716,222.79c0,3.792,0.374,6.745,1.123,8.861c0.748,2.111,2.586,3.315,5.515,3.618v0.896H2.849v-0.896
	c2.928-0.437,4.766-1.593,5.514-3.474c0.749-1.88,1.124-4.646,1.124-8.308v-41.17c0-2.532-0.118-4.577-0.35-6.142
	c-0.233-1.563-0.822-2.934-1.772-4.117c-0.948-1.177-2.453-1.918-4.516-2.223v-0.942h24.505v0.942
	c-2.064,0.237-3.57,0.895-4.518,1.977c-0.948,1.081-1.538,2.352-1.77,3.816c-0.235,1.464-0.35,3.442-0.35,5.938v21.558
	l30.392-26.546c0-1.866-0.374-3.387-1.122-4.565c-0.749-1.183-2.587-1.904-5.515-2.176v-0.942h24.603v0.942
	c-2.928,0.369-4.765,1.519-5.514,3.444c-0.748,1.933-1.123,4.691-1.123,8.285v41.222c0.066,2.829,0.199,4.95,0.399,6.362
	c0.199,1.417,0.774,2.711,1.722,3.892c0.948,1.188,2.452,1.924,4.516,2.227v0.896H44.471v-0.896
	c2.061-0.203,3.567-0.831,4.516-1.898c0.948-1.063,1.539-2.339,1.772-3.815c0.231-1.483,0.349-3.5,0.349-6.065v-39.975
	l-30.392,26.603V222.79z"/>
<path fill="#F8F5E7" d="M134.103,237.163c-0.698-0.197-1.829-0.297-3.393-0.297l-12.377,0.647c-12.509,0-22.458-3.075-29.843-9.235
	c-2.196-1.828-4.126-3.858-5.789-6.088c-1.664-2.226-3.028-4.555-4.093-6.986c-1.066-2.428-1.88-5.021-2.444-7.784
	c-0.567-2.764-0.849-5.508-0.849-8.232c0-3.062,0.374-6.041,1.123-8.933c0.748-2.896,1.878-5.615,3.394-8.162
	c1.512-2.546,3.383-4.767,5.613-6.659c3.494-2.829,7.344-4.842,11.554-6.041c4.208-1.195,8.841-1.795,13.899-1.795l11.228,0.896
	l3.294,0.297c1.962,0,3.293-0.713,3.993-2.145l4.69,19.314l-0.848,0.35c-1.764-4.261-4.709-7.563-8.833-9.905
	c-4.126-2.347-8.634-3.52-13.524-3.52c-3.561,0-6.705,0.516-9.433,1.546c-2.728,1.033-5.174,2.813-7.336,5.342
	c-2.163,2.494-3.793,5.37-4.891,8.635c-1.098,3.258-1.647,6.604-1.647,10.027c0,5.924,1.273,11.478,3.818,16.669
	c2.546,5.191,6.164,9.334,10.854,12.428c4.692,3.094,10.048,4.644,16.07,4.644c3.494,0,6.67-0.643,9.533-1.922
	c2.859-1.279,5.389-3.138,7.584-5.564c2.197-2.427,4.026-5.243,5.49-8.437l0.998,0.401L134.103,237.163z"/>
<path fill="#F8F5E7" d="M175.427,222.88c0,2.729,0.116,4.903,0.349,6.52c0.232,1.615,0.824,2.972,1.772,4.071
	c0.948,1.101,2.452,1.695,4.516,1.8v0.896H157.46v-0.896c2.063-0.104,3.569-0.661,4.517-1.678c0.948-1.011,1.539-2.285,1.771-3.816
	c0.233-1.534,0.35-3.632,0.35-6.296v-49.299c-6.31,0-11.414,1.087-15.317,3.25c-3.901,2.162-6.814,5.71-8.739,10.637l-0.947-0.297
	l5.04-20.174c0.4,0.532,1.041,0.883,1.922,1.048c0.882,0.165,2.254,0.251,4.117,0.251h39.227c1.862,0,3.235-0.086,4.116-0.251
	c0.882-0.165,1.522-0.516,1.921-1.048l4.992,20.174l-0.899,0.297c-1.929-4.927-4.85-8.475-8.758-10.637
	c-3.91-2.163-9.026-3.25-15.346-3.25L175.427,222.88L175.427,222.88z"/>
<path fill="#F8F5E7" d="M213.009,228.08c-2.295-2.195-4.261-4.656-5.89-7.388c-1.631-2.726-2.879-5.63-3.743-8.705
	c-0.866-3.08-1.298-6.164-1.298-9.258c0-6.655,1.605-12.668,4.816-18.039c3.209-5.375,7.584-9.564,13.125-12.578
	c5.541-3.01,11.586-4.516,18.143-4.516c6.816,0,13.023,1.529,18.611,4.591c5.593,3.062,9.966,7.335,13.125,12.825
	c3.16,5.487,4.742,11.646,4.742,18.463c0,6.424-1.682,12.238-5.039,17.443c-3.362,5.205-7.854,9.276-13.477,12.199
	c-5.621,2.93-11.609,4.396-17.964,4.396c-3.027,0-6.05-0.331-9.06-0.997c-3.014-0.666-5.881-1.715-8.61-3.146
	C217.766,231.939,215.271,230.177,213.009,228.08 M240.505,232.223c4.558,0,8.502-1.19,11.827-3.571
	c3.325-2.38,5.829-5.545,7.511-9.489c1.681-3.942,2.522-8.146,2.522-12.611c0-4.529-0.699-8.842-2.098-12.938
	c-1.399-4.096-3.326-7.7-5.791-10.813c-2.461-3.112-5.285-5.546-8.483-7.293c-3.193-1.748-6.585-2.621-10.181-2.621
	c-4.59,0-8.516,1.224-11.774,3.67c-3.263,2.446-5.69,5.678-7.288,9.692c-1.598,4.01-2.395,8.299-2.395,12.856
	c0,3.764,0.59,7.651,1.771,11.662c1.181,4.015,2.886,7.638,5.115,10.863c2.229,3.23,4.983,5.806,8.257,7.719
	C232.777,231.269,236.447,232.223,240.505,232.223"/>
<path fill="#F8F5E7" d="M287.518,182.319c0-3.793-0.373-6.712-1.121-8.762c-0.75-2.047-2.59-3.283-5.516-3.719v-0.943h24.503v0.943
	c-2.929,0.271-4.767,1.375-5.515,3.32c-0.749,1.947-1.123,4.747-1.123,8.408v12.479l8.784-7.039c1.729-1.362,3.618-2.945,5.664-4.74
	c2.045-1.796,3.897-3.627,5.563-5.489c1.663-1.86,2.497-3.358,2.497-4.492c0-0.864-0.228-1.464-0.675-1.794
	c-0.45-0.336-1.156-0.553-2.122-0.652v-0.943h24.654v0.943c-2.396,0.139-4.677,0.677-6.837,1.625
	c-2.164,0.944-4.052,2.014-5.664,3.193c-1.616,1.181-3.818,2.919-6.612,5.215l-7.687,6.339c3.493,3.292,6.578,6.723,9.257,10.278
	c2.677,3.561,5.064,7.265,7.162,11.104c2.096,3.848,4.157,8.264,6.188,13.25l1.946,4.69c0.268,0.633,0.673,1.606,1.224,2.919
	c0.548,1.318,1.105,2.438,1.672,3.373c0.564,0.931,1.247,1.687,2.046,2.267c0.798,0.587,1.747,0.975,2.844,1.178v0.896h-22.508
	v-0.896c2.396-0.401,3.596-1.733,3.596-3.996c0-2.429-0.832-5.668-2.497-9.73c-1.661-4.057-3.327-7.534-4.99-10.43
	c-3.559-6.088-8.15-12.21-13.773-18.364l-9.73,7.732v22.309c0,3.793,0.374,6.745,1.123,8.861c0.748,2.11,2.586,3.314,5.515,3.618
	v0.896h-24.503v-0.896c2.062-0.335,3.568-1.049,4.517-2.149c0.949-1.096,1.537-2.371,1.771-3.816
	c0.233-1.444,0.349-3.387,0.349-5.813V182.319L287.518,182.319z"/>
<path fill="#F8F5E7" d="M365.223,173.586h-4.093c-3.99,0-7.328,1.313-10.007,3.939c-2.678,2.626-4.964,6.164-6.859,10.618
	l-0.949-0.299l5.042-20.248c0.398,0.532,1.046,0.883,1.945,1.049c0.897,0.165,2.264,0.25,4.093,0.25h28.795v0.954
	c-2.896,0.269-4.725,1.481-5.488,3.65c-0.769,2.163-1.147,5.11-1.147,8.841l-0.102,9.792c6.952,0.364,13.291,1.604,19.014,3.715
	c5.724,2.11,10.258,4.969,13.6,8.576c3.345,3.609,5.017,7.758,5.017,12.441c0,4.091-1.072,7.582-3.219,10.472
	c-2.147,2.893-5.298,5.087-9.457,6.585c-4.158,1.493-9.251,2.244-15.271,2.244h-27.547v-0.896c2.927-0.436,4.766-1.587,5.512-3.468
	c0.749-1.881,1.124-4.647,1.124-8.305L365.223,173.586L365.223,173.586z M376.451,223.796c0,2.824,0.5,4.813,1.499,5.956
	c1.002,1.148,3.467,1.726,7.4,1.726c5.467,0,9.718-1.322,12.751-3.97c3.033-2.64,4.55-6.284,4.55-10.942
	c0-2.659-0.649-5.153-1.95-7.479c-1.299-2.329-3.092-4.354-5.375-6.084c-2.282-1.728-5.058-3.16-8.323-4.289
	c-3.269-1.128-6.785-1.794-10.552-1.991V223.796z"/>
</svg>
